<svg xmlns="http://www.w3.org/2000/svg" width="81" height="81" viewBox="0 0 81 81" fill="none">
    <rect width="80.9556" height="80.9556" rx="21.9906" fill="#d4e0ff"></rect>
    <circle cx="50.8486" cy="29.1679" r="10.4579" fill="#2A5EE9"></circle>
    <path
        d="M38.0558 26.5964L43.0092 27.3394L49.077 26.9988V61.2079L21.5859 61.7651L21.7407 26.9988L32.7 26.3797L34.1551 24.3364H36.6008L38.0558 26.5964Z"
        fill="white"></path>
    <path
        d="M48.8957 25.3772H38.759C38.577 24.8595 38.2793 24.3847 37.8806 23.9861C37.1776 23.2831 36.243 22.896 35.2488 22.896C34.2547 22.896 33.3201 23.2831 32.6171 23.9861C32.2184 24.3847 31.9207 24.8595 31.7387 25.3772H21.602C20.9171 25.3772 20.3613 25.933 20.3613 26.6179V61.3554C20.3613 61.9972 20.8493 62.5266 21.4746 62.5894C21.5159 62.5944 21.5589 62.596 21.602 62.596H48.8957C49.5806 62.596 50.1364 62.0402 50.1364 61.3554V26.6179C50.1364 25.933 49.5806 25.3772 48.8957 25.3772ZM26.5645 31.9939C26.5645 32.6788 27.1203 33.2346 27.8051 33.2346H42.6926C43.3344 33.2346 43.8638 32.7466 43.9266 32.1213C43.9316 32.0799 43.9332 32.0369 43.9332 31.9939V27.8585H47.6551V60.1148H22.8426V27.8585H26.5645V31.9939ZM35.2488 25.3772C35.9337 25.3772 36.4895 25.933 36.4895 26.6179C36.4895 27.3027 37.0453 27.8585 37.7301 27.8585H41.452V30.7533H29.0457V27.8585H32.5542C32.5906 27.8585 32.6253 27.8568 32.6617 27.8535C32.6965 27.8568 32.7329 27.8585 32.7692 27.8585C33.4541 27.8585 34.0099 27.3027 34.0099 26.6179C34.0082 25.933 34.564 25.3772 35.2488 25.3772Z"
        fill="#0B2537"></path>
</svg>