<svg xmlns="http://www.w3.org/2000/svg" width="54" height="54" viewBox="0 0 54 54" fill="none">
    <rect width="54" height="54" rx="15.4286" fill="#d4e0ff"></rect>
    <circle cx="37.4567" cy="17.9225" r="8.60711" fill="#2A5EE9"></circle>
    <circle cx="24.6432" cy="28.609" r="11.9069" fill="white"></circle>
    <path
        d="M24.8296 20.8705V29.075H20.1413M16.6251 37.8655L13.6949 40.7957M33.0341 37.8655L35.9643 40.7957M24.8296 17.3542C21.7211 17.3542 18.7399 18.5891 16.5418 20.7872C14.3437 22.9852 13.1089 25.9664 13.1089 29.075C13.1089 32.1835 14.3437 35.1647 16.5418 37.3628C18.7399 39.5608 21.7211 40.7957 24.8296 40.7957C27.9381 40.7957 30.9194 39.5608 33.1174 37.3628C35.3155 35.1647 36.5503 32.1835 36.5503 29.075C36.5503 25.9664 35.3155 22.9852 33.1174 20.7872C30.9194 18.5891 27.9381 17.3542 24.8296 17.3542Z"
        stroke="#0B2537" stroke-width="2" stroke-linecap="round"></path>
    <path
        d="M13.0109 20.0413C13.5714 20.3825 16.3107 16.7923 17.6103 14.9546L17.3971 14.3455L14.5948 14.7414C13.8638 15.7567 12.4139 17.83 12.4626 18.0006C12.5235 18.2138 12.3103 19.6149 13.0109 20.0413Z"
        fill="white"></path>
    <path
        d="M36.8899 20.0413C36.3294 20.3825 33.5901 16.7923 32.2906 14.9546L32.5038 14.3455L35.3061 14.7414C36.0371 15.7567 37.487 17.83 37.4383 18.0006C37.3773 18.2138 37.5906 19.6149 36.8899 20.0413Z"
        fill="white"></path>
    <path
        d="M13.4812 15.3828C11.9768 16.8872 11.5713 19.0749 12.2646 20.9473V20.9473C12.2771 20.9798 12.3216 20.9875 12.3462 20.9629L18.9979 14.3118C19.0516 14.2581 19.0346 14.1613 18.963 14.1364V14.1364C17.1093 13.4847 14.9639 13.9002 13.4812 15.3828ZM30.611 14.1674V14.1674C30.5785 14.1799 30.5708 14.2244 30.5954 14.2491L37.2471 20.9007C37.3007 20.9544 37.3975 20.9375 37.4225 20.8658V20.8658C38.0742 19.0116 37.6587 16.8661 36.176 15.384C34.6711 13.8797 32.484 13.4741 30.611 14.1674Z"
        stroke="#0B2537" stroke-width="2"></path>
</svg>