<svg xmlns="http://www.w3.org/2000/svg" width="96" height="96" viewBox="0 0 96 96" fill="none">
    <rect width="95.269" height="95.269" rx="25.8787" fill="#d4e0ff"></rect>
    <circle cx="65.3421" cy="34.1339" r="12.307" fill="#2A5EE9"></circle>
    <circle cx="47.3828" cy="48.1958" r="16.1699" fill="white"></circle>
    <path
        d="M47.6356 37.6865V48.8285H41.2688M36.4936 60.7664L32.5144 64.7457M58.7776 60.7664L62.7569 64.7457M47.6356 32.9114C43.4142 32.9114 39.3656 34.5884 36.3805 37.5734C33.3955 40.5584 31.7185 44.607 31.7185 48.8285C31.7185 53.05 33.3955 57.0986 36.3805 60.0836C39.3656 63.0687 43.4142 64.7457 47.6356 64.7457C51.8571 64.7457 55.9057 63.0687 58.8908 60.0836C61.8758 57.0986 63.5528 53.05 63.5528 48.8285C63.5528 44.607 61.8758 40.5584 58.8908 37.5734C55.9057 34.5884 51.8571 32.9114 47.6356 32.9114Z"
        stroke="#0B2537" stroke-width="3" stroke-linecap="round"></path>
    <path
        d="M31.5864 36.5604C32.3475 37.0236 36.0676 32.1481 37.8324 29.6524L37.5429 28.8252L33.7373 29.3629C32.7445 30.7417 30.7755 33.5573 30.8417 33.789C30.9244 34.0785 30.6349 35.9813 31.5864 36.5604Z"
        fill="white"></path>
    <path
        d="M64.0147 36.5604C63.2535 37.0236 59.5335 32.1481 57.7686 29.6524L58.0581 28.8252L61.8638 29.3629C62.8566 30.7417 64.8255 33.5573 64.7594 33.789C64.6766 34.0785 64.9662 35.9813 64.0147 36.5604Z"
        fill="white"></path>
    <path
        d="M32.2247 30.2341C30.1817 32.2771 29.631 35.248 30.5725 37.7908V37.7908C30.5894 37.8349 30.6499 37.8454 30.6834 37.812L39.7166 28.7796C39.7894 28.7067 39.7664 28.5752 39.6691 28.5413V28.5413C37.1518 27.6563 34.2382 28.2206 32.2247 30.2341ZM55.4876 28.5835V28.5835C55.4434 28.6005 55.4329 28.6609 55.4664 28.6944L64.4995 37.7276C64.5724 37.8004 64.7039 37.7774 64.7378 37.6801V37.6801C65.6228 35.162 65.0585 32.2484 63.045 30.2357C61.0013 28.1927 58.0311 27.642 55.4876 28.5835Z"
        stroke="#0B2537" stroke-width="3"></path>
</svg>