<svg width="1146" height="172" viewBox="0 0 1146 172" fill="none" xmlns="http://www.w3.org/2000/svg">
<path fill-rule="evenodd" clip-rule="evenodd" d="M1033.08 128.431H1045.7L1039.03 117.666L1026.78 137.129H1021.21L1036.1 113.75C1036.75 112.805 1037.83 112.234 1039.03 112.234C1040.18 112.234 1041.26 112.785 1041.89 113.71L1056.84 137.129H1051.27L1048.64 132.78H1035.87L1033.08 128.431ZM1090.96 132.779V112.47H1086.23V134.767C1086.23 135.377 1086.47 135.968 1086.92 136.42C1087.37 136.873 1087.98 137.129 1088.65 137.129H1110.21L1113 132.78H1090.96L1090.96 132.779ZM1021.05 120.814C1021.05 125.419 1017.33 129.138 1012.73 129.138L1012.73 129.139H1010.58L1020.07 137.129H1013.21L999.091 124.79L1012.42 124.809C1014.62 124.809 1016.38 123.019 1016.38 120.815C1016.38 118.611 1014.62 116.82 1012.42 116.82H996.775V137.129H992.048V112.47H1012.73C1017.33 112.47 1021.05 116.209 1021.05 120.814ZM962.951 137.129C956.164 137.129 950.656 131.619 950.656 124.81C950.656 118 956.164 112.471 962.951 112.471H977.241C984.029 112.471 989.533 118 989.533 124.81C989.533 131.619 984.029 137.129 977.24 137.129H962.951ZM984.881 124.809C984.881 129.218 981.32 132.78 976.923 132.78H976.923H963.267C958.872 132.78 955.309 129.218 955.309 124.81C955.309 120.402 958.872 116.82 963.267 116.82H976.923C981.32 116.82 984.881 120.402 984.881 124.809ZM1066.71 137.129C1059.92 137.129 1054.41 131.619 1054.41 124.81C1054.41 118 1059.92 112.471 1066.71 112.471H1083.68L1080.92 116.82H1067.03C1062.63 116.82 1059.06 120.402 1059.06 124.81C1059.06 129.218 1062.63 132.78 1067.03 132.78H1084.08L1081.29 137.129H1066.71ZM1116.88 126.974C1117.82 130.339 1120.9 132.779 1124.53 132.779H1141.58L1138.8 137.128H1124.22C1117.43 137.128 1111.92 131.618 1111.92 124.809C1111.92 118 1117.43 112.47 1124.22 112.47H1141.21L1138.41 116.82H1124.53C1120.9 116.82 1117.82 119.279 1116.88 122.625H1139.88L1137.09 126.974H1116.88Z" fill="#EA1B22"/>
<path d="M335.849 112.852L345.039 109.496L335.849 106.044V101.346L351.59 107.578V111.414L335.849 117.646V112.852Z" fill="#BD00FF"/>
<path fill-rule="evenodd" clip-rule="evenodd" d="M346.31 124.167V118.701L341.128 120.811V124.167H338.977V127.906H341.128V137.015C341.128 140.659 342.986 142.481 346.994 142.481C348.265 142.481 349.341 142.289 349.928 142.097V138.166C349.439 138.358 348.95 138.453 348.168 138.453C346.897 138.453 346.31 137.782 346.31 136.44V127.906H349.83V124.167H346.31ZM270.637 142.576C265.553 142.576 261.838 139.508 261.838 133.372V133.084C261.838 126.947 265.749 123.687 270.637 123.687C274.841 123.687 278.263 125.797 278.654 130.495H273.766C273.473 128.769 272.495 127.618 270.735 127.618C268.584 127.618 267.02 129.344 267.02 132.892V133.467C267.02 137.111 268.389 138.741 270.735 138.741C272.495 138.741 273.766 137.495 274.059 135.481H278.752C278.459 139.7 275.624 142.576 270.637 142.576ZM242.871 137.303C242.871 140.946 245.609 142.576 248.933 142.576C251.377 142.576 253.039 141.426 254.017 140.083V142.193H259.003V130.111C259.003 125.605 255.777 123.783 251.377 123.783C247.075 123.783 243.849 125.701 243.458 129.728H248.346C248.444 128.385 249.324 127.426 251.084 127.426C253.039 127.426 253.821 128.481 253.821 130.303V131.166H251.572C246.782 131.166 242.871 132.7 242.871 137.111V137.303ZM253.821 134.522V136.248C253.821 138.07 252.257 139.029 250.497 139.125C248.737 139.125 247.955 138.262 247.955 137.015V136.823C247.955 135.193 249.226 134.522 251.768 134.522H253.821ZM281.001 133.372C281.001 139.508 284.716 142.576 289.8 142.576C294.786 142.576 297.621 139.7 297.915 135.481H293.222C292.928 137.495 291.657 138.741 289.898 138.741C287.551 138.741 286.182 137.111 286.182 133.467V132.892C286.182 129.344 287.747 127.618 289.898 127.618C291.657 127.618 292.635 128.769 292.928 130.495H297.817C297.426 125.797 294.004 123.687 289.8 123.687C284.911 123.687 281.001 126.947 281.001 133.084V133.372ZM309.06 142.576C303.781 142.576 300.163 139.508 300.163 133.467V133.084C300.163 127.043 303.976 123.687 308.963 123.687C313.558 123.687 317.371 126.18 317.371 132.221V134.426H305.345C305.541 137.686 307.007 138.933 309.158 138.933C311.114 138.933 312.189 137.878 312.58 136.632H317.371C316.784 139.988 313.851 142.576 309.06 142.576ZM308.865 127.235C310.918 127.235 312.189 128.386 312.287 131.07H305.443C305.834 128.194 307.301 127.331 308.865 127.235ZM320.499 124.166H325.681V126.851C326.561 125.125 328.418 123.783 331.254 123.783C334.578 123.783 336.826 125.796 336.826 130.111V142.193H331.645V130.878C331.645 128.769 330.765 127.81 328.907 127.81C327.147 127.81 325.681 128.865 325.681 131.166V142.193H320.499V124.166ZM369.188 142.193H364.104V139.508C363.224 141.234 361.464 142.576 358.727 142.576C355.403 142.576 352.959 140.563 352.959 136.344V124.166H358.14V135.673C358.14 137.782 359.02 138.741 360.78 138.741C362.54 138.741 364.006 137.59 364.006 135.385V124.166H369.188V142.193ZM378.183 124.166H373.001V142.289H378.183V132.988C378.183 130.015 380.236 128.961 383.756 128.961V123.975C381.018 123.975 379.258 125.125 378.183 127.522V124.166ZM394.217 142.576C388.937 142.576 385.32 139.508 385.32 133.467V133.084C385.32 127.043 389.133 123.687 394.119 123.687C398.714 123.687 402.527 126.18 402.527 132.221V134.426H390.599C390.795 137.686 392.261 138.933 394.412 138.933C396.368 138.933 397.443 137.878 397.834 136.632H402.625C401.843 139.988 399.007 142.576 394.217 142.576ZM397.443 131.07H390.501C390.99 128.194 392.457 127.331 394.021 127.235C396.074 127.235 397.345 128.386 397.443 131.07Z" fill="black"/>
<path fill-rule="evenodd" clip-rule="evenodd" d="M787.167 16.8109C784.546 16.8109 782.716 17.5797 780.949 19.3327V9.16992H775.648V28.0043C775.648 35.0542 780.691 39.8822 786.357 39.8822C792.655 39.8822 798.173 34.968 798.173 28.3469C798.173 21.8097 793.085 16.8109 787.167 16.8109ZM732.155 9.17053H726.583V39.8828H732.155V27.1084H743.905V39.8828H749.484V9.17053H743.905V21.6822H732.155V9.17053ZM762.52 34.5425C765.063 34.5425 767.135 32.4504 767.135 29.8794V16.6567H772.417V29.8794C772.417 35.3958 767.976 39.8828 762.52 39.8828C757.062 39.8828 752.621 35.3958 752.621 29.8794V16.6567H757.905V29.8794C757.905 32.4504 759.976 34.5425 762.52 34.5425ZM780.96 28.3474C780.96 31.8938 783.707 34.926 787.299 34.926C790.342 34.926 793.091 31.8938 793.091 28.3474C793.091 24.8004 790.342 21.7673 787.299 21.7673C783.707 21.7673 780.96 24.8004 780.96 28.3474ZM807.076 18.161C807.076 15.4676 808.852 14.6137 810.796 14.6137C812.361 14.6137 814.431 15.8099 815.783 17.2629L819.248 13.1616C817.516 10.8121 814.008 9.18811 811.134 9.18811C805.385 9.18811 801.242 12.5635 801.242 18.161C801.242 24.0994 805.378 25.5643 808.918 26.8181C811.566 27.7563 813.881 28.5764 813.881 31.0638C813.881 32.8563 812.149 34.4386 810.163 34.4386C807.321 34.4386 806.223 33.1693 804.969 31.7195L804.969 31.7192C804.842 31.5731 804.714 31.4251 804.583 31.2764L800.736 35.2919C803.189 38.3257 806.231 39.8645 809.867 39.8645C815.319 39.8645 819.715 36.4465 819.715 31.1051C819.715 24.1491 815.119 22.6931 811.47 21.5371C809.068 20.7761 807.076 20.1452 807.076 18.161ZM822.962 28.3867C822.962 21.3353 828.005 16.5101 833.67 16.5101C839.967 16.5101 845.487 21.423 845.487 28.0451C845.487 34.5823 840.398 39.5804 834.48 39.5804C831.858 39.5804 830.03 38.8104 828.263 37.0586V47.2697H822.962V28.3867ZM834.612 34.6258C831.02 34.6258 828.273 31.5895 828.273 28.0457C828.273 24.4987 831.02 21.4656 834.612 21.4656C837.655 21.4656 840.404 24.4987 840.404 28.0457C840.404 31.5895 837.655 34.6258 834.612 34.6258ZM880.492 31.4647C880.492 33.559 881.38 34.9255 884.506 34.9255C885.1 34.9255 885.776 34.883 886.368 34.8416L885.057 39.7117C884.549 39.8382 883.619 39.8823 882.942 39.8823C878.422 39.8823 875.126 37.4467 875.126 32.6183V13.7341L880.492 11.2994V17.4949H885.352V22.194H880.492V31.4647Z" fill="#45535E"/>
<path fill-rule="evenodd" clip-rule="evenodd" d="M866.294 18.2171C868.081 19.2836 869.511 20.7003 870.527 22.4675C871.525 24.2218 872 26.1366 872 28.212V28.3174C872 30.4272 871.41 32.3448 870.337 34.0805C869.269 35.8114 867.856 37.1672 866.051 38.1587C864.338 39.0969 862.516 39.5555 860.584 39.5555H860.264C858.516 39.5555 856.92 39.1704 855.473 38.5382C854.74 38.218 854.058 37.8467 853.426 37.4057L848.818 42.0634C848.927 42.4136 848.985 42.782 848.985 43.1596C848.987 44.1287 848.606 45.0585 847.927 45.7423C847.25 46.4299 846.33 46.8154 845.37 46.813C844.411 46.8155 843.491 46.43 842.815 45.7423C842.132 45.0524 841.756 44.1354 841.756 43.1596C841.752 42.1902 842.133 41.2598 842.813 40.576C843.806 39.5671 845.291 39.238 846.61 39.7344L851.068 35.2177C850.33 34.2981 849.735 33.2811 849.327 32.1625C848.865 30.8814 848.593 29.5177 848.593 28.0732V27.6439C848.593 25.5861 849.248 23.6997 850.321 21.9852C850.85 21.1442 851.511 20.3947 852.221 19.7357L838.79 9.95396L837.812 9.20444C837.109 9.63283 836.293 9.8934 835.412 9.8934C832.828 9.8934 830.735 7.77668 830.735 5.16627C830.735 2.55554 832.826 0.439453 835.41 0.439453C837.994 0.439453 840.085 2.55554 840.085 5.16627C840.085 5.6016 840.001 6.01422 839.891 6.41453C843.429 9.12778 848.885 13.3171 852.341 15.9702C853.408 16.7902 854.285 17.4634 854.855 17.901C856.037 17.2966 857.332 16.9032 858.58 16.7208V11.1032C857.02 10.4335 856.107 8.95113 856.107 7.22179C856.107 4.86469 858.01 2.9546 860.342 2.9546C862.672 2.9546 864.542 4.86469 864.542 7.22179C864.542 8.95113 863.574 10.4335 862.013 11.1032V16.7183C863.574 16.9325 864.959 17.4313 866.294 18.2171ZM860.584 34.5079C862.209 34.5079 863.647 33.6426 864.897 32.2379C865.986 31.0275 866.531 29.694 866.531 28.2543C866.531 28.0385 866.522 27.8126 866.505 27.5921C866.395 26.5312 866.056 25.5574 865.485 24.6546C864.897 23.7521 864.139 23.0659 863.211 22.5637C862.301 22.0928 861.336 21.8896 860.316 21.8896H860.212C859.088 21.8896 858.078 22.1984 857.133 22.8281C856.171 23.4622 855.447 24.2596 854.911 25.2852C854.41 26.2234 854.211 27.2167 854.211 28.2644V28.588C854.211 29.6536 854.561 30.6587 855.205 31.5792C855.828 32.517 856.59 33.2577 857.592 33.777C858.48 34.2486 859.388 34.5079 860.316 34.5079H860.584Z" fill="#F8761F"/>
<path fill-rule="evenodd" clip-rule="evenodd" d="M754.009 99.9795V102.756H773.758V99.9795H754.009ZM776.556 99.9795V102.756H804.7C804.7 102.756 801.825 99.9795 798.018 99.9795H776.556ZM810.221 102.756V99.9795H826.237L827.247 102.756H810.221ZM839.454 99.9795L838.444 102.756H855.315V99.9795H839.454ZM754.009 108.156V105.38H773.758V108.156H754.009ZM776.556 105.383V108.156H807.965C807.965 108.156 807.599 106.019 806.959 105.383H776.556ZM810.221 108.156V105.383H828.178L829.114 108.156H810.221ZM837.433 105.383L836.498 108.156H855.315V105.383H837.433ZM759.684 113.56V110.78H768.237V113.56H759.684ZM782.232 110.78V113.56H790.785V110.78H782.232ZM799.104 113.56V110.78H808.199C808.199 112.092 807.656 113.56 807.656 113.56H799.104ZM815.896 110.78V113.56H831.06L830.049 110.78H815.896ZM834.555 113.56L835.57 110.78H849.794V113.56H834.555ZM759.684 116.184V118.96H768.237V116.184H759.684ZM782.232 118.96V116.184H806.487C805.905 117.536 804.077 118.96 804.077 118.96H782.232ZM815.896 116.184V118.96H824.449V117.415L824.992 118.96H840.659L841.242 117.415V118.96H849.795V116.184H833.739L832.887 118.535L832.031 116.184H815.896ZM759.684 124.36V121.584H768.237V124.36H759.684ZM782.232 121.584V124.36H806.487C805.905 123.013 804.077 121.584 804.077 121.584H782.232ZM815.896 124.36V121.584H824.449V124.36H815.896ZM826.003 121.584L827.037 124.36H838.784L839.767 121.584H826.003ZM841.242 124.36V121.584H849.794V124.36H841.242ZM759.684 126.984V129.76H768.237V126.984H759.684ZM782.232 129.76V126.984H790.785V129.76H782.232ZM799.104 126.984V129.76H808.199C808.199 128.45 807.656 126.984 807.656 126.984H799.104ZM815.896 129.76V126.984H824.449V129.76H815.896ZM827.945 126.984L828.947 129.76H836.823L837.833 126.984H827.945ZM841.242 129.76V126.984H849.794V129.76H841.242ZM754.163 132.384V135.164H773.913V132.384H754.163ZM776.556 135.164V132.384H807.965C807.965 132.384 807.599 134.528 806.959 135.164H776.556ZM810.375 132.384V135.164H824.449V132.384H810.375ZM830.921 135.164L829.891 132.384H835.895L834.928 135.164H830.921ZM841.242 132.384V135.164H855.47V132.384H841.242ZM754.163 140.564V137.787H773.913V140.564H754.163ZM776.556 137.787V140.56H798.018C801.825 140.56 804.7 137.787 804.7 137.787H776.556ZM810.375 140.564V137.787H824.449V140.564H810.375ZM831.845 137.787L832.835 140.556L833.006 140.56L834.013 137.787H831.845ZM841.242 140.564V137.787H855.47V140.564H841.242Z" fill="#1F70C1"/>
<path d="M576.855 39.6196C569.029 45.3536 557.684 48.4129 547.917 48.4129C534.222 48.4129 521.893 43.3782 512.565 35.0044C511.833 34.346 512.489 33.4486 513.369 33.9614C523.435 39.7828 535.881 43.2849 548.738 43.2849C557.409 43.2849 566.947 41.5018 575.718 37.8015C577.043 37.2421 578.151 38.6639 576.855 39.6196" fill="#FF9900"/>
<path d="M580.109 35.9191C579.112 34.6488 573.496 35.3189 570.975 35.6161C570.207 35.7093 570.089 35.045 570.781 34.5672C575.254 31.438 582.594 32.3412 583.45 33.3901C584.306 34.4448 583.228 41.758 579.024 45.2485C578.379 45.7846 577.764 45.4991 578.051 44.7882C578.995 42.4456 581.111 37.1953 580.109 35.9191" fill="#FF9900"/>
<path d="M571.15 12.477V9.43521C571.15 8.97486 571.502 8.66602 571.924 8.66602H585.625C586.065 8.66602 586.417 8.98069 586.417 9.43521V12.04C586.411 12.477 586.042 13.0481 585.385 13.9513L578.285 24.0266C580.923 23.9625 583.708 24.3529 586.1 25.6932C586.639 25.9962 586.786 26.4391 586.827 26.8761V30.1219C586.827 30.5648 586.335 31.0834 585.819 30.8153C581.603 28.6185 576.005 28.3795 571.344 30.8386C570.869 31.095 570.371 30.5822 570.371 30.1394V27.0568C570.371 26.5614 570.376 25.7165 570.875 24.9648L579.1 13.2404H571.942C571.502 13.2404 571.15 12.9316 571.15 12.477" fill="#221F1F"/>
<path d="M521.172 31.4551H517.003C516.605 31.426 516.288 31.1288 516.259 30.75V9.48648C516.259 9.06109 516.616 8.72311 517.062 8.72311H520.949C521.353 8.74058 521.676 9.04944 521.705 9.43403V12.2136H521.781C522.796 9.52727 524.701 8.27441 527.269 8.27441C529.878 8.27441 531.508 9.52727 532.68 12.2136C533.688 9.52727 535.981 8.27441 538.437 8.27441C540.184 8.27441 542.096 8.99116 543.262 10.5995C544.581 12.3884 544.312 14.9874 544.312 17.2658L544.306 30.6859C544.306 31.1113 543.948 31.4551 543.503 31.4551H539.34C538.924 31.426 538.59 31.0938 538.59 30.6859V19.4161C538.59 18.5187 538.672 16.281 538.472 15.4303C538.162 14.0026 537.23 13.6005 536.022 13.6005C535.013 13.6005 533.958 14.2706 533.53 15.3428C533.102 16.4151 533.143 18.2098 533.143 19.4161V30.6859C533.143 31.1113 532.786 31.4551 532.34 31.4551H528.178C527.755 31.426 527.427 31.0938 527.427 30.6859L527.421 19.4161C527.421 17.0444 527.814 13.5539 524.853 13.5539C521.858 13.5539 521.975 16.957 521.975 19.4161V30.6859C521.975 31.1113 521.617 31.4551 521.172 31.4551" fill="#221F1F"/>
<path fill-rule="evenodd" clip-rule="evenodd" d="M607.745 20.2669C607.745 13.5539 604.398 8.27441 598.213 8.27441C592.18 8.27441 588.833 13.4199 588.833 20.0396C588.833 26.6185 592.139 31.898 598.213 31.898C604.046 31.898 607.745 26.7526 607.745 20.2669ZM594.982 19.3699C594.982 16.7768 595.176 12.6162 598.248 12.6162C599.573 12.6162 600.505 13.1931 600.974 14.6732C601.519 16.3747 601.596 18.5192 601.596 20.3139C601.596 23.0411 601.443 27.5164 598.213 27.5164C594.981 27.5164 594.982 22.1021 594.982 19.4654C594.982 19.4332 594.982 19.4013 594.982 19.3699Z" fill="#221F1F"/>
<path d="M615.766 31.4551H611.615C611.199 31.426 610.865 31.0938 610.865 30.6859L610.859 9.41655C610.894 9.02613 611.24 8.72311 611.662 8.72311H615.526C615.889 8.74058 616.188 8.98534 616.27 9.31749V12.5691H616.346C617.513 9.66129 619.149 8.27441 622.027 8.27441C623.897 8.27441 625.721 8.94455 626.893 10.7801C627.984 12.4817 627.984 15.3428 627.984 17.3999V30.785C627.937 31.1579 627.591 31.4551 627.181 31.4551H623C622.619 31.426 622.303 31.1463 622.262 30.785V19.2354C622.262 16.9104 622.531 13.5073 619.653 13.5073C618.639 13.5073 617.706 14.1832 617.243 15.2088C616.657 16.5083 616.581 17.8019 616.581 19.2354V30.6859C616.575 31.1113 616.212 31.4551 615.766 31.4551" fill="#221F1F"/>
<path fill-rule="evenodd" clip-rule="evenodd" d="M563.448 31.4968C563.758 31.6599 564.157 31.6424 564.433 31.3977L564.444 31.4094C565.277 30.6751 566.789 29.364 567.639 28.6589C567.979 28.3792 567.921 27.9305 567.651 27.5576C567.569 27.4451 567.487 27.3349 567.406 27.2255C566.725 26.3137 566.08 25.4499 566.08 23.7174V17.2608C566.08 17.0403 566.081 16.8212 566.083 16.6037C566.097 14.1266 566.11 11.8644 564.245 10.1341C562.644 8.60739 559.995 8.07129 557.966 8.07129C554.003 8.07129 549.577 9.53975 548.644 14.4113C548.551 14.9299 548.926 15.2038 549.266 15.2796L553.311 15.7108C553.686 15.6933 553.962 15.3262 554.032 14.9532C554.378 13.275 555.797 12.465 557.386 12.465C558.242 12.465 559.215 12.7797 559.725 13.5431C560.246 14.3065 560.238 15.3234 560.231 16.2357C560.23 16.3401 560.229 16.443 560.229 16.5441V17.0802C559.839 17.1244 559.429 17.1661 559.007 17.209C556.816 17.4319 554.288 17.6889 552.391 18.5195C549.782 19.6383 547.947 21.9284 547.947 25.2908C547.947 29.5971 550.679 31.7473 554.185 31.7473C557.151 31.7473 558.769 31.0539 561.056 28.7347C561.176 28.9071 561.284 29.0656 561.385 29.2147C561.924 30.0075 562.283 30.5354 563.448 31.4968ZM560.229 20.4012V21.2986C560.229 21.3725 560.229 21.4458 560.229 21.5186C560.231 23.0362 560.232 24.3245 559.449 25.6923C558.787 26.8578 557.737 27.5745 556.565 27.5745C554.964 27.5745 554.032 26.3625 554.032 24.5735C554.032 21.0422 557.215 20.4012 560.229 20.4012Z" fill="#221F1F"/>
<path fill-rule="evenodd" clip-rule="evenodd" d="M508.802 31.4977C509.112 31.6609 509.511 31.6434 509.787 31.3987L509.798 31.4103C510.631 30.6761 512.143 29.365 512.993 28.6599C513.334 28.3802 513.275 27.9315 513.005 27.5585C512.923 27.4461 512.841 27.3359 512.76 27.2264C512.079 26.3147 511.434 25.4508 511.434 23.7184V17.2618C511.434 17.0413 511.435 16.8221 511.437 16.6047C511.451 14.1276 511.464 11.8654 509.599 10.1351C507.998 8.60837 505.349 8.07227 503.32 8.07227C499.357 8.07227 494.931 9.54073 493.998 14.4123C493.905 14.9309 494.28 15.2048 494.62 15.2805L498.665 15.7118C499.04 15.6943 499.316 15.3272 499.386 14.9542C499.732 13.276 501.151 12.466 502.74 12.466C503.596 12.466 504.569 12.7807 505.079 13.544C505.6 14.3075 505.592 15.3244 505.585 16.2367C505.584 16.341 505.583 16.444 505.583 16.5451V17.0812C505.193 17.1254 504.783 17.1671 504.361 17.21C502.17 17.4328 499.642 17.6899 497.745 18.5205C495.136 19.6393 493.301 21.9294 493.301 25.2917C493.301 29.5981 496.033 31.7483 499.539 31.7483C502.505 31.7483 504.123 31.0549 506.41 28.7356C506.53 28.9081 506.638 29.0666 506.739 29.2157C507.278 30.0085 507.637 30.5364 508.802 31.4977ZM505.583 20.4016V21.299C505.583 21.3729 505.583 21.4463 505.583 21.5191C505.585 23.0366 505.586 24.3249 504.803 25.6928C504.141 26.8582 503.091 27.575 501.919 27.575C500.318 27.575 499.386 26.3629 499.386 24.5739C499.386 21.0426 502.57 20.4016 505.583 20.4016Z" fill="#221F1F"/>
<path fill-rule="evenodd" clip-rule="evenodd" d="M1049.18 15.1847C1042.75 15.1847 1036.92 20.118 1036.92 28.0541C1036.92 35.9289 1042.9 40.9235 1049.12 40.9235C1052.35 40.9235 1055.43 39.4221 1057.3 37.0014V40.4332H1062.5V4.27637H1057.3V18.8923C1055.49 16.6249 1052.41 15.1847 1049.18 15.1847ZM1087.53 33.2629C1085.72 35.0401 1083.31 35.99 1080.8 35.9287C1076.45 35.9287 1073.94 33.6306 1073.28 30.0149H1092.37C1092.76 21.3741 1088.2 15.1232 1080.11 15.1232C1072.98 15.1232 1067.45 20.6693 1067.45 28.0233C1067.45 35.4385 1072.71 40.9233 1080.86 40.9233C1085.6 40.9233 1088.65 39.2074 1090.86 36.9093L1087.53 33.2629ZM1080.17 20.0878C1084.12 20.0878 1086.09 22.5697 1086.6 25.9096H1073.28C1073.94 22.202 1076.48 20.0878 1080.17 20.0878ZM955.374 35.6524L970.082 20.4849H955.706V15.7355H976.877V20.6075L962.2 35.7444H977.089V40.4938H955.374V35.6524ZM1000.31 33.2629C998.501 35.0401 996.085 35.99 993.579 35.9287C989.23 35.9287 986.753 33.6306 986.058 30.0149H1005.15C1005.54 21.3741 1000.98 15.1232 992.884 15.1232C985.756 15.1232 980.23 20.6693 980.23 28.0233C980.23 35.4385 985.515 40.9233 993.639 40.9233C998.381 40.9233 1001.43 39.2074 1003.64 36.9093L1000.31 33.2629ZM999.408 25.9096C998.894 22.5697 996.931 20.0878 992.975 20.0878C989.29 20.0878 986.753 22.202 986.089 25.9096H999.408ZM1057.6 27.9929C1057.6 23.5805 1054.31 19.9648 1049.87 19.9648C1045.52 19.9648 1042.14 23.4886 1042.14 27.9929C1042.14 32.4972 1045.52 36.0516 1049.87 36.0516C1054.31 36.0822 1057.6 32.4665 1057.6 27.9929ZM1100.46 32.6807L1095.75 35.1627C1097.8 38.8396 1101.4 40.9233 1106.47 40.9233C1113.45 40.9845 1116.38 36.3883 1116.38 32.9565C1116.38 27.8087 1111.82 26.4605 1107.8 25.5719L1107.68 25.5451C1104.22 24.764 1102 24.2649 1102 22.5078C1102 20.9144 1103.42 19.5356 1106.23 19.5356C1108.68 19.5356 1110.61 20.608 1111.73 22.3546L1116.1 19.9033C1114.2 16.931 1110.82 15.0926 1106.26 15.0926C1100.49 15.0313 1096.81 18.647 1096.81 22.5691C1096.81 27.6862 1101.13 29.065 1105.29 29.9536C1105.51 29.9996 1105.73 30.0444 1105.95 30.0889C1108.76 30.6663 1111.21 31.1683 1111.21 33.0178C1111.21 34.7643 1109.67 36.2964 1106.74 36.2964C1104.15 36.3577 1101.73 34.9788 1100.46 32.6807ZM1130.48 29.433L1126.37 33.9985V40.4332H1121.18V4.27637H1126.37V27.9315L1137.4 15.675H1143.71L1134.17 26.2769L1143.98 40.4332H1138.09L1130.48 29.433ZM1009.86 25.94C1009.86 19.2295 1015.02 15.1542 1021.21 15.1542C1027.4 15.1542 1032.57 19.2295 1032.57 25.9706V40.4333H1027.28V26.6447C1027.28 22.5694 1025.32 20.1487 1021.39 20.1487C1017.47 20.1487 1015.17 22.5694 1015.17 26.6447V40.4333H1009.86V25.94Z" fill="#03363D"/>
<path fill-rule="evenodd" clip-rule="evenodd" d="M1142.26 12.4578C1142.98 11.7224 1144.19 11.7224 1144.92 12.4578C1145.64 13.1932 1145.64 14.4188 1144.92 15.1542C1144.19 15.8896 1142.98 15.8896 1142.26 15.1542C1141.5 14.4188 1141.5 13.2238 1142.26 12.4578ZM1144.59 14.8484C1145.13 14.2662 1145.1 13.347 1144.56 12.7954C1143.98 12.2439 1143.08 12.2745 1142.53 12.8261C1141.99 13.4083 1141.99 14.2969 1142.56 14.8484C1143.14 15.4306 1144.04 15.4 1144.59 14.8484ZM1144.31 13.1629L1143.74 12.5807L1142.35 13.9289L1142.68 14.266L1143.74 13.1935L1143.95 13.408L1143.98 13.4387C1144.1 13.5306 1144.13 13.7451 1144.01 13.8677L1143.98 13.8983C1143.86 13.9902 1143.65 13.9596 1143.56 13.837L1143.41 13.6838L1143.14 14.695L1143.53 15.0933L1143.71 14.3579C1143.95 14.4805 1144.25 14.4192 1144.43 14.2047C1144.68 13.9596 1144.68 13.5306 1144.31 13.1629Z" fill="#03363D"/>
<path d="M17.8581 0H19.1475C23.624 0.0980905 28.0275 1.91276 31.1902 5.12523C30.0225 6.32684 28.8304 7.4794 27.6869 8.68101C25.9109 7.06251 23.77 5.81186 21.4344 5.37045C17.9797 4.63478 14.2574 5.29689 11.3623 7.28322C8.19952 9.36764 6.05858 12.8989 5.59634 16.6754C5.08543 20.4028 6.13157 24.3264 8.54012 27.2201C10.8514 30.0402 14.379 31.8058 18.0284 31.9285C21.4344 32.1246 24.9864 31.0702 27.4679 28.6669C29.4142 26.9749 30.3144 24.4 30.6064 21.8987C26.5678 21.8987 22.5292 21.9232 18.4906 21.8987V16.847H35.4964C36.3723 22.2665 35.1072 28.3727 31.0199 32.2472C28.2951 34.9938 24.5242 36.6123 20.6802 36.9311C16.9579 37.2989 13.1139 36.5878 9.80522 34.7731C5.83962 32.6396 2.67688 29.0348 1.11983 24.7924C-0.339895 20.8933 -0.364224 16.4792 0.998189 12.5556C2.23896 8.97528 4.62318 5.81186 7.68861 3.60483C10.6324 1.42231 14.2087 0.220704 17.8581 0Z" fill="#3780FF"/>
<path d="M115.416 1.27637H120.622V36.2947C118.895 36.2947 117.143 36.3192 115.416 36.2701C115.44 24.6219 115.416 12.9491 115.416 1.27637Z" fill="#38B137"/>
<path fill-rule="evenodd" clip-rule="evenodd" d="M56.4193 15.4247C53.7675 13.4874 50.2885 12.8008 47.0771 13.4138C43.0385 14.125 39.4622 17.1413 38.1971 21.0894C36.932 24.7678 37.4915 29.0838 39.8028 32.2227C41.8464 35.0673 45.2038 36.8084 48.6584 37.0046C52.4294 37.2498 56.2977 35.6313 58.6576 32.615C60.8472 29.9175 61.6744 26.1901 61.0175 22.7815C60.5066 19.8387 58.8279 17.1413 56.4193 15.4247ZM44.4002 20.2556C45.276 19.1766 46.4925 18.4164 47.8062 18.0731C49.8985 17.5336 52.2097 18.1467 53.7911 19.618C56.2483 21.8986 56.7106 25.9203 55.1049 28.8385C54.1804 30.5551 52.5017 31.8548 50.5797 32.1981C48.5118 32.615 46.2735 31.9039 44.7894 30.3835C42.1863 27.735 42.0403 23.1002 44.4002 20.2556Z" fill="#FA3913"/>
<path fill-rule="evenodd" clip-rule="evenodd" d="M83.3024 16.3328C80.5532 13.7334 76.539 12.7035 72.8653 13.4147C68.8997 14.1013 65.3964 17.0195 64.0583 20.845C62.7202 24.597 63.2311 29.011 65.591 32.2235C67.6833 35.1417 71.1623 36.9073 74.69 37.0054C78.388 37.1771 82.1346 35.5586 84.4458 32.6159C88.2655 27.9566 87.7789 20.3791 83.3024 16.3328ZM70.189 20.2322C71.0648 19.1777 72.2812 18.4175 73.595 18.0742C75.6629 17.5347 77.9742 18.1232 79.5555 19.5946C82.0371 21.8752 82.4993 25.8969 80.918 28.8396C79.9935 30.5562 78.2905 31.8314 76.3928 32.1992C74.2519 32.6406 71.9406 31.8559 70.4566 30.2619C67.9507 27.5889 67.8534 23.0277 70.189 20.2322Z" fill="#FCBD06"/>
<path fill-rule="evenodd" clip-rule="evenodd" d="M104.274 14.1011C101.257 12.5807 97.5349 13.0711 94.737 14.8367C91.3553 16.9212 89.1171 20.7712 89.0441 24.7684C88.8981 28.2997 90.4552 31.8554 93.0827 34.1606C95.6859 36.4657 99.4082 37.6428 102.79 36.6864C104.347 36.3186 105.636 35.3377 106.755 34.2341C106.828 36.5147 106.828 39.0651 105.32 40.9288C103.909 42.7435 101.403 43.283 99.2379 42.8906C97.0726 42.4983 95.3453 40.7817 94.4938 38.7708C93.9222 39.0217 93.3471 39.2585 92.7738 39.4946C91.8343 39.8815 90.8995 40.2664 89.9929 40.7081C91.4527 44.2148 94.737 46.9859 98.508 47.5499C102.036 48.0894 105.953 47.2802 108.507 44.6563C110.843 42.2776 111.67 38.8199 111.694 35.5584V13.9294C110.867 13.9172 110.046 13.9172 109.228 13.9172C108.41 13.9172 107.595 13.9172 106.78 13.9049C106.768 14.2482 106.768 14.5915 106.768 14.9318C106.768 15.272 106.768 15.6092 106.755 15.9403C106.001 15.2291 105.223 14.518 104.274 14.1011ZM95.9542 20.2069C96.903 19.0544 98.2897 18.2206 99.7738 17.9754C101.793 17.6075 103.934 18.3677 105.272 19.9127C107.437 22.414 107.705 26.3131 106.099 29.1822C105.15 30.8743 103.374 32.1004 101.452 32.2966C99.4089 32.5173 97.2923 31.6345 95.9785 30.0405C93.6673 27.343 93.6673 22.9535 95.9542 20.2069Z" fill="#3780FF"/>
<path fill-rule="evenodd" clip-rule="evenodd" d="M138.042 13.8555C134.295 12.4087 129.794 13.3406 126.875 16.0871C122.325 20.3295 121.936 28.2258 125.975 32.9341C128.432 35.9259 132.47 37.3972 136.266 36.9313C139.696 36.6125 142.883 34.6017 144.781 31.7325C144.112 31.2788 143.443 30.8313 142.774 30.3838C142.105 29.9362 141.436 29.4887 140.767 29.035C140.231 29.7217 139.672 30.4328 138.966 30.9723C137.19 32.3946 134.66 32.6644 132.543 31.9042C131.035 31.3892 129.916 30.114 129.186 28.7162C131.826 27.6127 134.459 26.5153 137.093 25.4179C139.727 24.3205 142.36 23.2232 145 22.1196C143.856 18.6129 141.594 15.2043 138.042 13.8555ZM128.335 24.7447C128.311 23.2978 128.652 21.8265 129.479 20.6249C130.768 18.7121 133.177 17.4615 135.488 17.8783C136.923 18.099 138.335 18.9328 138.918 20.3061C135.391 21.802 131.863 23.2733 128.335 24.7447Z" fill="#FA3913"/>
<path d="M241.715 12.9558L231.419 19.5279L241.715 26.0999L231.419 32.672L221.123 26.0452L231.419 19.4731L221.123 12.9558L231.419 6.38379L241.715 12.9558ZM231.364 34.7531L241.661 28.1811L251.957 34.7531L241.661 41.3252L231.364 34.7531ZM241.715 26.0452L252.012 19.4731L241.715 12.9558L251.957 6.38379L262.253 12.9558L251.957 19.5279L262.253 26.0999L251.957 32.672L241.715 26.0452Z" fill="#0061FF"/>
<path d="M270.304 12.9557H278.628C283.941 12.9557 288.322 16.0226 288.322 23.0328V24.5115C288.322 31.5765 284.215 34.753 278.793 34.753H270.304V12.9557ZM274.959 16.8989V30.755H278.519C281.531 30.755 283.557 28.7833 283.557 24.402V23.2519C283.557 18.8705 281.421 16.8989 278.354 16.8989H274.959V16.8989ZM290.787 17.118H294.511L295.113 21.2255C295.825 18.4324 297.632 16.9537 300.918 16.9537H302.069V21.6636H300.152C296.373 21.6636 295.442 22.978 295.442 26.7022V34.8077H290.841V17.118H290.787ZM303 26.3188V25.8259C303 19.9111 306.779 16.6798 311.927 16.6798C317.184 16.6798 320.854 19.9111 320.854 25.8259V26.3188C320.854 32.1241 317.294 35.2459 311.927 35.2459C306.231 35.1911 303 32.1241 303 26.3188ZM316.144 26.2641V25.8259C316.144 22.5399 314.501 20.5683 311.872 20.5683C309.298 20.5683 307.6 22.3756 307.6 25.8259V26.2641C307.6 29.4405 309.243 31.2479 311.872 31.2479C314.501 31.1931 316.144 29.4405 316.144 26.2641ZM323.263 17.118H327.097L327.535 20.4588C328.466 18.2133 330.438 16.6798 333.341 16.6798C337.831 16.6798 340.789 19.9111 340.789 25.8807V26.3736C340.789 32.1789 337.503 35.2459 333.341 35.2459C330.547 35.2459 328.631 33.9862 327.7 31.9598V40.8869H323.209V17.118H323.263ZM336.134 26.2641V25.8807C336.134 22.3756 334.326 20.6231 331.917 20.6231C329.343 20.6231 327.645 22.5947 327.645 25.8807V26.2093C327.645 29.331 329.288 31.3026 331.862 31.3026C334.491 31.2479 336.134 29.5501 336.134 26.2641ZM347.58 31.5217L347.197 34.753H343.253V11.2031H347.744V20.2397C348.73 17.9395 350.702 16.6798 353.495 16.6798C357.712 16.7346 360.834 19.6372 360.834 25.4973V26.045C360.834 31.9051 357.876 35.2459 353.385 35.2459C350.428 35.1911 348.511 33.8219 347.58 31.5217ZM356.124 26.045V25.6069C356.124 22.3756 354.371 20.5683 351.907 20.5683C349.387 20.5683 347.635 22.5947 347.635 25.6616V26.045C347.635 29.331 349.333 31.2479 351.852 31.2479C354.535 31.2479 356.124 29.5501 356.124 26.045ZM362.805 26.3188V25.8259C362.805 19.9111 366.584 16.6798 371.732 16.6798C376.99 16.6798 380.659 19.9111 380.659 25.8259V26.3188C380.659 32.1241 377.045 35.2459 371.732 35.2459C366.036 35.1911 362.805 32.1241 362.805 26.3188ZM376.004 26.2641V25.8259C376.004 22.5399 374.361 20.5683 371.732 20.5683C369.158 20.5683 367.46 22.3756 367.46 25.8259V26.2641C367.46 29.4405 369.103 31.2479 371.732 31.2479C374.361 31.1931 376.004 29.4405 376.004 26.2641ZM386.684 25.6069L380.495 17.118H385.807L389.367 22.4304L392.982 17.118H398.24L391.941 25.5521L398.568 34.753H393.365L389.312 28.8929L385.369 34.753H379.947L386.684 25.6069Z" fill="black"/>
<path d="M569.203 126.887L555.299 114.081V135.547H559.08V123.106L573.105 136.034V114.447H569.203V126.887Z" fill="#CB2026"/>
<path d="M542.127 114.447V135.425H546.152V114.447H542.127Z" fill="#CB2026"/>
<path d="M537.004 135.424L526.759 113.959L516.514 135.424H520.539L522.612 130.912H530.662L532.613 135.424H537.004ZM524.076 127.619L526.759 121.521L529.198 127.619H524.076Z" fill="#CB2026"/>
<path d="M509.44 124.326C511.161 123.546 512.26 121.825 512.245 119.936C512.245 116.277 509.318 114.447 504.318 114.447H499.317V135.425H505.294C510.66 135.425 513.587 133.23 513.587 129.327C513.51 126.908 511.803 124.849 509.44 124.326ZM505.05 126.522C507.855 126.522 509.44 127.253 509.44 129.449C509.44 131.4 507.977 132.254 505.05 132.254H503.342V126.522H505.05ZM503.342 123.351V117.618H504.074C507.001 117.618 508.465 118.35 508.465 120.545C508.465 122.741 507.001 123.351 504.196 123.351H503.342Z" fill="#CB2026"/>
<path d="M519.964 144.315C519.944 145.409 520.369 146.464 521.143 147.238C521.917 148.011 522.972 148.437 524.065 148.417C526.331 148.417 528.167 146.581 528.167 144.315C528.212 143.21 527.796 142.136 527.018 141.35C526.24 140.563 525.171 140.135 524.065 140.168C521.794 140.195 519.966 142.043 519.964 144.315ZM521.513 144.315C521.513 142.857 522.561 141.489 524.111 141.489C525.661 141.489 526.709 142.629 526.709 144.315C526.747 145.032 526.492 145.734 526.002 146.258C525.512 146.783 524.829 147.085 524.111 147.095C522.561 147.141 521.513 145.956 521.513 144.315Z" fill="#CB2026"/>
<path d="M510.984 144.315C510.942 145.415 511.36 146.484 512.139 147.262C512.918 148.041 513.986 148.459 515.086 148.417C516.326 148.453 517.504 147.872 518.231 146.867L518.277 146.821L517.137 145.864L517.092 145.956C516.697 146.716 515.897 147.178 515.041 147.141C513.491 147.141 512.443 145.91 512.443 144.315C512.405 143.593 512.658 142.887 513.147 142.355C513.636 141.824 514.319 141.511 515.041 141.489C515.871 141.504 516.64 141.931 517.092 142.628L517.137 142.674L518.277 141.763L518.231 141.717C517.448 140.761 516.276 140.208 515.041 140.213C513.956 140.21 512.916 140.643 512.154 141.414C511.391 142.185 510.97 143.23 510.984 144.315Z" fill="#CB2026"/>
<path d="M568.776 144.953V148.235H570.234V144.953L573.105 140.396H571.51L569.505 143.54L567.591 140.396H565.904L568.776 144.953Z" fill="#CB2026"/>
<path d="M542.113 140.396V148.235H543.617V145.318C543.708 145.318 543.845 145.363 543.982 145.363C545.896 145.363 547.218 144.543 547.218 142.902C547.218 141.353 546.078 140.396 543.936 140.396H542.113ZM543.617 141.58H543.982C545.212 141.58 545.714 142.036 545.714 142.857C545.714 143.677 545.167 144.133 543.982 144.133C543.858 144.147 543.734 144.131 543.617 144.087V141.58Z" fill="#CB2026"/>
<path d="M532.178 143.996L534.639 148.463L537.055 143.996L538.012 148.235H539.561L537.51 140.259L534.685 145.546L531.768 140.259L529.808 148.28H531.267L532.178 143.996Z" fill="#CB2026"/>
<path d="M504.604 148.281H506.336C506.336 148.281 505.014 146.777 504.787 146.503C504.969 146.275 506.108 144.544 506.108 144.544H504.695L504.012 145.592L502.781 144.179C503.829 143.632 504.467 142.857 504.467 142.037C504.467 140.943 503.51 140.214 502.28 140.214C500.913 140.214 500.001 141.034 500.001 142.128C500.05 142.836 500.358 143.502 500.867 143.997C500.047 144.452 499.317 145.136 499.317 146.275C499.317 147.506 500.32 148.463 501.778 148.463C502.612 148.477 503.411 148.128 503.966 147.506L504.604 148.281ZM501.368 142.174C501.361 141.93 501.454 141.693 501.627 141.521C501.799 141.348 502.036 141.254 502.28 141.262C502.507 141.244 502.73 141.323 502.896 141.479C503.061 141.636 503.152 141.855 503.146 142.082C503.146 142.629 502.599 143.04 502.052 143.313C501.682 143.039 501.436 142.629 501.368 142.174ZM503.146 146.64C502.851 147.02 502.396 147.239 501.915 147.233C501.609 147.263 501.304 147.16 501.078 146.951C500.851 146.742 500.725 146.447 500.73 146.139C500.768 145.601 501.077 145.12 501.551 144.863H501.596L503.146 146.64Z" fill="#CB2026"/>
<path d="M562.668 145.044L557.473 140.259V148.235H558.931V143.631L564.127 148.463V140.396H562.668V145.044Z" fill="#CB2026"/>
<path d="M555.558 148.234L551.73 140.213L547.901 148.234H549.405L550.18 146.548H553.188L553.917 148.234H555.558ZM550.727 145.317L551.73 143.039L552.641 145.317H550.727Z" fill="#CB2026"/>
<path d="M616.345 131.798L612.287 113.826L601.127 128.32L616.345 131.798ZM630.693 130.639C630.693 142.885 620.765 152.813 608.518 152.813C596.272 152.813 586.344 142.885 586.344 130.639C586.344 118.392 596.272 108.464 608.518 108.464C609.683 108.488 610.844 108.585 611.997 108.754L610.113 111.218H608.518C603.616 111.156 598.891 113.046 595.384 116.472C591.876 119.897 589.876 124.577 589.822 129.479C589.822 139.805 598.193 148.175 608.518 148.175C618.844 148.175 627.215 139.805 627.215 129.479C627.163 121.906 622.431 115.155 615.33 112.522L614.606 109.478C624.113 112.116 630.694 120.772 630.693 130.639Z" fill="#CB2026"/>
<path d="M70.3127 103.64C73.8358 99.9767 78.7406 97.7044 84.1652 97.7044C91.3764 97.7044 97.6677 101.718 101.018 107.675C103.93 106.377 107.152 105.655 110.543 105.655C123.549 105.655 134.093 116.27 134.093 129.364C134.093 142.459 123.549 153.075 110.543 153.075C108.985 153.076 107.431 152.921 105.904 152.613C102.954 157.866 97.3317 161.415 90.8784 161.415C88.1769 161.415 85.6218 160.792 83.3468 159.685C80.3558 166.706 73.3876 171.629 65.2661 171.629C56.8086 171.629 49.6006 166.288 46.8338 158.798C45.6247 159.054 44.372 159.188 43.0866 159.188C33.017 159.188 24.8535 150.956 24.8535 140.801C24.8535 133.995 28.5213 128.053 33.9708 124.874C32.8489 122.297 32.2249 119.454 32.2249 116.464C32.2249 104.785 41.725 95.3174 53.4427 95.3174C60.3223 95.3174 66.4363 98.5819 70.3127 103.64" fill="#00A1E0"/>
<path fill-rule="evenodd" clip-rule="evenodd" d="M73.5113 135.119C73.4786 135.088 73.4244 135.037 73.4811 134.889L73.9231 133.666C73.9884 133.465 74.1783 133.538 74.2188 133.565L74.2934 133.613C74.3807 133.67 74.4646 133.724 74.5876 133.796C75.89 134.618 77.096 134.625 77.4741 134.625C78.4483 134.625 79.0536 134.11 79.0536 133.417V133.38C79.0536 132.623 78.1261 132.339 77.05 132.009L77.0445 132.007L76.8065 131.934C75.3265 131.511 73.7471 130.906 73.7471 129.037V129C73.7471 127.228 75.1787 125.992 77.2297 125.992L77.4538 125.99C78.6582 125.99 79.8222 126.34 80.6641 126.851C80.7403 126.897 80.8151 126.984 80.773 127.102C80.7341 127.211 80.3606 128.214 80.317 128.326C80.2378 128.536 80.0215 128.396 80.0215 128.396C79.2838 127.989 78.1385 127.669 77.1737 127.669C76.3053 127.669 75.7451 128.129 75.7451 128.753V128.792C75.7451 129.522 76.7027 129.832 77.8129 130.192L77.8149 130.193L78.0063 130.255C79.48 130.719 81.0501 131.362 81.0501 133.133V133.17C81.0501 135.085 79.6589 136.275 77.4181 136.275C76.318 136.275 75.2659 136.102 74.1517 135.512C74.1079 135.487 74.0642 135.463 74.0206 135.439C73.8549 135.346 73.6903 135.254 73.5278 135.136C73.524 135.131 73.5181 135.126 73.5113 135.119ZM40.7068 135.12C40.6741 135.089 40.6199 135.038 40.6765 134.89L41.1188 133.666C41.1888 133.455 41.3491 133.525 41.4129 133.565C41.4645 133.596 41.5107 133.626 41.5589 133.657C41.6241 133.699 41.6928 133.744 41.7833 133.797C43.0857 134.618 44.2917 134.626 44.6699 134.626C45.6441 134.626 46.2478 134.111 46.2478 133.418V133.381C46.2478 132.623 45.3207 132.339 44.2437 132.009L44.2437 132.009L44.2403 132.008L44.0023 131.935C42.5223 131.512 40.9429 130.906 40.9429 129.038V129.001C40.9429 127.229 42.3745 125.992 44.4255 125.992L44.6495 125.991C45.8539 125.991 47.0179 126.34 47.8598 126.851C47.936 126.898 48.0107 126.985 47.9687 127.103C47.9298 127.212 47.5562 128.215 47.5127 128.327C47.4333 128.537 47.217 128.397 47.217 128.397C46.4795 127.99 45.3342 127.67 44.3694 127.67C43.501 127.67 42.9408 128.13 42.9408 128.754V128.793C42.9408 129.522 43.8983 129.833 45.0087 130.193L45.0105 130.194L45.2018 130.256C46.6755 130.72 48.2456 131.363 48.2456 133.134V133.171C48.2456 135.086 46.8544 136.275 44.6137 136.275C43.5135 136.275 42.4614 136.103 41.3473 135.513C41.3037 135.488 41.2602 135.464 41.2168 135.44L41.2167 135.44C41.0507 135.347 40.8859 135.255 40.7232 135.137C40.7195 135.132 40.7136 135.126 40.7068 135.12ZM95.8758 131.138C95.8758 132.22 95.6735 133.073 95.2752 133.676C94.8814 134.272 94.2854 134.562 93.4546 134.562C92.6221 134.562 92.0292 134.273 91.6417 133.676C91.2495 133.075 91.0505 132.22 91.0505 131.138C91.0505 130.057 91.2495 129.206 91.6417 128.609C92.0292 128.019 92.6221 127.732 93.4546 127.732C94.2856 127.732 94.8815 128.019 95.2768 128.609C95.6736 129.206 95.8758 130.057 95.8758 131.138ZM96.8943 127.51C97.2755 127.965 97.5618 128.512 97.7455 129.132C97.9291 129.748 98.0211 130.424 98.0211 131.138C98.0211 131.853 97.9293 132.528 97.7456 133.145C97.5619 133.764 97.2756 134.311 96.8945 134.766C96.513 135.223 96.0292 135.588 95.458 135.847C94.8855 136.106 94.2117 136.238 93.4539 136.238C92.6943 136.238 92.0205 136.106 91.448 135.847C90.8769 135.588 90.3929 135.223 90.0117 134.766C89.6288 134.31 89.344 133.763 89.1589 133.145C88.9768 132.53 88.8849 131.854 88.8849 131.138C88.8849 130.422 88.9768 129.748 89.1589 129.132C89.344 128.513 89.6304 127.967 90.01 127.51C90.3929 127.054 90.8752 126.687 91.4479 126.42C92.019 126.154 92.6943 126.019 93.4538 126.019C94.2116 126.019 94.8868 126.154 95.4579 126.42C96.0307 126.687 96.513 127.054 96.8943 127.51ZM113.106 134.274C113.044 134.093 112.868 134.161 112.868 134.161C112.596 134.265 112.306 134.361 111.998 134.409C111.685 134.457 111.342 134.482 110.973 134.482C110.067 134.482 109.348 134.214 108.833 133.683C108.316 133.151 108.027 132.293 108.03 131.131C108.033 130.073 108.288 129.278 108.748 128.672C109.204 128.07 109.898 127.761 110.823 127.761C111.595 127.761 112.184 127.849 112.8 128.043C112.8 128.043 112.947 128.107 113.017 127.914C113.07 127.768 113.118 127.635 113.166 127.506C113.265 127.233 113.358 126.975 113.476 126.638C113.526 126.496 113.405 126.436 113.361 126.419C113.119 126.324 112.546 126.17 112.113 126.105C111.709 126.043 111.236 126.01 110.71 126.01C109.924 126.01 109.224 126.144 108.625 126.411C108.027 126.677 107.52 127.043 107.118 127.5C106.717 127.956 106.412 128.503 106.208 129.121C106.006 129.738 105.903 130.415 105.903 131.131C105.903 132.679 106.322 133.931 107.148 134.847C107.976 135.767 109.219 136.234 110.841 136.234C111.799 136.234 112.783 136.04 113.489 135.762C113.489 135.762 113.625 135.697 113.565 135.54L113.106 134.274ZM116.891 128.61C116.634 129 116.468 129.5 116.379 130.101H120.895C120.85 129.522 120.736 129 120.475 128.61C120.081 128.02 119.532 127.694 118.701 127.694C117.87 127.694 117.279 128.019 116.891 128.61ZM122.677 128.78C122.518 128.182 122.124 127.578 121.866 127.302C121.458 126.864 121.06 126.558 120.665 126.387C120.148 126.166 119.529 126.02 118.85 126.02C118.06 126.02 117.342 126.152 116.76 126.426C116.177 126.699 115.687 127.072 115.302 127.536C114.918 127.999 114.628 128.55 114.445 129.176C114.26 129.799 114.166 130.478 114.166 131.194C114.166 131.922 114.263 132.601 114.454 133.211C114.647 133.826 114.955 134.368 115.372 134.817C115.788 135.269 116.323 135.623 116.964 135.87C117.601 136.115 118.374 136.243 119.263 136.241C121.091 136.235 122.054 135.828 122.451 135.609C122.521 135.57 122.588 135.502 122.504 135.306L122.09 134.149C122.028 133.977 121.852 134.04 121.852 134.04C121.812 134.055 121.771 134.071 121.728 134.087C121.28 134.258 120.624 134.509 119.253 134.506C118.271 134.505 117.543 134.216 117.087 133.764C116.619 133.301 116.39 132.621 116.349 131.661L122.681 131.667C122.681 131.667 122.848 131.664 122.865 131.503C122.865 131.498 122.867 131.488 122.869 131.474C122.897 131.269 123.056 130.109 122.677 128.78ZM66.1813 128.61C65.9246 129 65.7595 129.5 65.6693 130.101H70.1851C70.14 129.522 70.0264 129 69.7665 128.61C69.3714 128.02 68.822 127.694 67.991 127.694C67.1601 127.694 66.5687 128.019 66.1813 128.61ZM71.9657 128.78C71.807 128.182 71.4149 127.578 71.1566 127.302C70.7488 126.864 70.3505 126.558 69.9553 126.387C69.4386 126.166 68.8193 126.02 68.1408 126.02C67.3519 126.02 66.6329 126.152 66.051 126.426C65.4675 126.699 64.9773 127.072 64.5929 127.536C64.2085 127.999 63.9191 128.55 63.7355 129.176C63.5519 129.799 63.457 130.478 63.457 131.194C63.457 131.922 63.5534 132.601 63.7449 133.211C63.9379 133.826 64.246 134.368 64.663 134.817C65.0785 135.269 65.6138 135.623 66.2549 135.87C66.8914 136.115 67.6647 136.243 68.5533 136.241C70.3817 136.235 71.345 135.828 71.7418 135.609C71.8119 135.57 71.8787 135.502 71.7947 135.306L71.3824 134.149C71.3185 133.977 71.1428 134.04 71.1428 134.04C71.1031 134.055 71.0619 134.071 71.0188 134.087L71.0188 134.087C70.5705 134.259 69.9152 134.509 68.5425 134.506C67.5622 134.505 66.8339 134.216 66.3779 133.764C65.9095 133.301 65.6808 132.621 65.6402 131.661L71.9721 131.667C71.9721 131.667 72.1385 131.664 72.1557 131.503C72.1561 131.498 72.1575 131.488 72.1596 131.473C72.1878 131.265 72.3454 130.107 71.9657 128.78ZM51.6175 133.865C51.7015 133.992 51.7357 134.042 51.9832 134.239C51.9785 134.238 52.5511 134.687 53.8396 134.609C54.7452 134.554 55.5497 134.382 55.5497 134.382H55.5482V131.509C55.5482 131.509 54.7375 131.375 53.8303 131.363C52.5388 131.346 51.9895 131.821 51.9941 131.82C51.6128 132.088 51.4292 132.487 51.4292 133.043C51.4292 133.394 51.493 133.671 51.6175 133.865ZM54.5028 129.799C54.246 129.78 53.9129 129.769 53.5146 129.769C52.9716 129.769 52.4471 129.838 51.9554 129.97C51.4606 130.102 51.0155 130.308 50.6327 130.582C50.2504 130.854 49.9363 131.21 49.7146 131.624C49.4905 132.04 49.3769 132.531 49.3769 133.081C49.3769 133.64 49.4734 134.126 49.6664 134.523C49.8594 134.922 50.1379 135.255 50.4926 135.511C50.8443 135.767 51.2785 135.955 51.7826 136.069C52.279 136.182 52.8423 136.239 53.4586 136.239C54.1075 136.239 54.7548 136.187 55.3819 136.079C56.0028 135.974 56.7653 135.82 56.9769 135.772C57.1253 135.736 57.2731 135.699 57.4204 135.659C57.5777 135.62 57.5652 135.452 57.5652 135.452L57.562 129.673C57.562 128.406 57.2228 127.466 56.5553 126.884C55.8907 126.303 54.912 126.009 53.6469 126.009C53.1722 126.009 52.4082 126.075 51.9507 126.166C51.9507 126.166 50.5673 126.433 49.9977 126.877C49.9977 126.877 49.8733 126.955 49.9417 127.129L50.3899 128.331C50.4459 128.487 50.5969 128.434 50.5969 128.434C50.5969 128.434 50.6451 128.415 50.7012 128.382C51.9197 127.721 53.4602 127.741 53.4602 127.741C54.145 127.741 54.671 127.878 55.0257 128.149C55.3711 128.413 55.5469 128.813 55.5469 129.654V129.921C55.0023 129.844 54.5028 129.799 54.5028 129.799ZM105.477 126.317C105.519 126.332 105.62 126.401 105.572 126.544C105.513 126.716 105.205 127.581 105.096 127.87C105.056 127.98 104.987 128.055 104.866 128.041C104.866 128.041 104.502 127.955 104.17 127.955C103.94 127.955 103.615 127.985 103.321 128.075C103.033 128.163 102.77 128.32 102.538 128.544C102.308 128.769 102.121 129.083 101.984 129.474C101.844 129.87 101.774 130.501 101.774 131.133V135.842C101.774 135.948 101.688 136.034 101.582 136.034H99.9188C99.8131 136.034 99.7259 135.947 99.7259 135.842V126.416C99.7259 126.309 99.8021 126.224 99.9079 126.224H101.531C101.637 126.224 101.713 126.309 101.713 126.416V127.185C101.956 126.86 102.392 126.575 102.784 126.398C103.179 126.221 103.621 126.087 104.416 126.135C104.832 126.162 105.37 126.275 105.477 126.317Z" fill="white"/>
<path fill-rule="evenodd" clip-rule="evenodd" d="M89.3316 122.026C89.5713 122.071 89.7549 122.113 89.9572 122.175C90.0007 122.192 90.1236 122.253 90.0738 122.396L89.5899 123.722C89.5493 123.822 89.5214 123.882 89.3144 123.82C89.2629 123.805 89.1867 123.783 88.9906 123.741C88.849 123.711 88.6608 123.69 88.471 123.69C88.2205 123.69 87.9916 123.721 87.791 123.786C87.5948 123.85 87.4159 123.96 87.2602 124.115C87.1029 124.274 86.9163 124.505 86.8167 124.789C86.619 125.36 86.5232 125.961 86.4924 126.154C86.487 126.187 86.4837 126.208 86.482 126.215H88.5065C88.6762 126.215 88.7292 126.293 88.7135 126.418L88.4771 127.732C88.4411 127.923 88.2654 127.917 88.2654 127.917H86.1802L84.7532 135.973C84.604 136.805 84.4156 137.52 84.1962 138.094C83.9751 138.677 83.7433 139.102 83.3744 139.509C83.0321 139.885 82.6463 140.163 82.2043 140.323C81.7638 140.481 81.2316 140.564 80.6497 140.564C80.3712 140.564 80.0741 140.559 79.7223 140.477C79.4686 140.416 79.3302 140.373 79.1434 140.307C79.0641 140.278 79.0019 140.18 79.0454 140.054C79.0906 139.928 79.464 138.905 79.5154 138.77C79.5808 138.607 79.7442 138.669 79.7442 138.669C79.8578 138.717 79.9372 138.75 80.0865 138.779C80.2375 138.81 80.4413 138.835 80.5938 138.835C80.8693 138.835 81.1213 138.801 81.3391 138.728C81.6038 138.639 81.7563 138.487 81.9181 138.282C82.0862 138.068 82.2215 137.774 82.36 137.383C82.5016 136.985 82.6292 136.462 82.7398 135.825L84.159 127.917H82.76C82.5921 127.917 82.5375 127.838 82.5547 127.714L82.7895 126.398C82.8269 126.209 83.0012 126.215 83.0012 126.215H84.439L84.5168 125.788C84.7316 124.519 85.1596 123.554 85.7899 122.921C86.4231 122.284 87.3257 121.961 88.4711 121.961C88.7994 121.961 89.0887 121.983 89.3316 122.026ZM61.488 136.035C61.5939 136.035 61.6701 135.949 61.6701 135.844V122.357C61.6701 122.251 61.5939 122.166 61.488 122.166H59.809C59.7031 122.166 59.6284 122.251 59.6284 122.357V135.844C59.6284 135.949 59.7031 136.035 59.809 136.035H61.488Z" fill="white"/>
</svg>
