<svg xmlns="http://www.w3.org/2000/svg" width="54" height="54" viewBox="0 0 54 54" fill="none">
    <rect width="54" height="54" rx="15.4286" fill="#d4e0ff"></rect>
    <circle cx="36.9099" cy="22.6846" r="9.90993" fill="#2A5EE9"></circle>
    <path
        d="M22.7238 41.2252H9.77637V26.3597C9.77637 26.1053 9.87741 25.8614 10.0573 25.6815C10.2371 25.5017 10.4811 25.4006 10.7354 25.4006H21.7647C22.0191 25.4006 22.263 25.5017 22.4429 25.6815C22.6227 25.8614 22.7238 26.1053 22.7238 26.3597V41.2252Z"
        fill="white" stroke="#0B2537" stroke-width="2" stroke-linecap="round" stroke-linejoin="round"></path>
    <path
        d="M20.5486 41.2253C24.4813 41.2253 32.7939 41.2253 32.7939 41.2253V18.2076C32.7939 17.8261 32.6423 17.4602 32.3725 17.1904C32.1027 16.9206 31.7368 16.769 31.3553 16.769H18.4078C18.0263 16.769 17.6604 16.9206 17.3906 17.1904C17.1208 17.4602 16.9692 17.8261 16.9692 18.2076V25.4007"
        fill="white"></path>
    <path
        d="M20.5486 41.2253C24.4813 41.2253 32.7939 41.2253 32.7939 41.2253V18.2076C32.7939 17.8261 32.6423 17.4602 32.3725 17.1904C32.1027 16.9206 31.7368 16.769 31.3553 16.769H18.4078C18.0263 16.769 17.6604 16.9206 17.3906 17.1904C17.1208 17.4602 16.9692 17.8261 16.9692 18.2076V25.4007"
        stroke="#0B2537" stroke-width="2" stroke-linecap="round" stroke-linejoin="round"></path>
    <path d="M9.77662 41.2253H6.89941Z" fill="white"></path>
    <path d="M9.77662 41.2253H6.89941" stroke="#0B2537" stroke-width="2" stroke-linecap="round" stroke-linejoin="round">
    </path>
    <path d="M10.8242 31.155L13.6695 31.155Z" fill="white"></path>
    <path d="M10.8242 31.155L13.6695 31.155" stroke="#0B2537" stroke-width="2" stroke-linecap="round"
        stroke-linejoin="round"></path>
    <path d="M16.9692 25.2192L16.9692 40.5263Z" fill="white"></path>
    <path d="M16.9692 25.2192L16.9692 40.5263" stroke="#0B2537" stroke-width="2" stroke-linecap="round"
        stroke-linejoin="round"></path>
    <path d="M26.0728 25.4006H32.7944Z" fill="white"></path>
    <path d="M26.0728 25.4006H32.7944" stroke="#0B2537" stroke-width="2" stroke-linecap="round" stroke-linejoin="round">
    </path>
    <path d="M26.0728 31.155H32.7944Z" fill="white"></path>
    <path d="M26.0728 31.155H32.7944" stroke="#0B2537" stroke-width="2" stroke-linecap="round" stroke-linejoin="round">
    </path>
    <path
        d="M45.0056 36.167C46.3472 37.5085 47.1008 39.328 47.1008 41.2252H32.7939C32.7939 39.328 33.5476 37.5085 34.8891 36.167C36.2307 34.8254 38.0502 34.0718 39.9474 34.0718C41.8446 34.0718 43.6641 34.8254 45.0056 36.167Z"
        fill="white" stroke="#0B2537" stroke-width="2" stroke-linecap="round" stroke-linejoin="round"></path>
    <path
        d="M39.9471 34.0719C42.9112 34.0719 45.3141 31.669 45.3141 28.7049C45.3141 25.7408 42.9112 23.3379 39.9471 23.3379C36.983 23.3379 34.5801 25.7408 34.5801 28.7049C34.5801 31.669 36.983 34.0719 39.9471 34.0719Z"
        fill="white" stroke="#0B2537" stroke-width="2" stroke-linecap="round" stroke-linejoin="round"></path>
</svg>