<svg xmlns="http://www.w3.org/2000/svg" width="54" height="54" viewBox="0 0 54 54" fill="none">
    <rect width="54" height="54" rx="15.4286" fill="#d4e0ff"></rect>
    <circle cx="37.3193" cy="18" r="8" fill="#2A5EE9"></circle>
    <path
        d="M11.9995 41.019H41.8461C41.795 39.554 41.6416 36.4195 41.4372 35.6017C41.1817 34.5796 36.9909 31.8198 38.6774 31.5643C40.3639 31.3087 40.0062 26.5047 39.7507 25.8914C39.4951 25.2781 35.3043 23.9493 34.4989 24.8692C33.6935 25.7892 32.289 25.0737 31.9824 24.2049C31.7371 23.5098 29.4952 21.6325 28.4049 20.7807C28.9841 20.7807 30.2856 20.1572 30.858 17.6631C31.5735 14.5456 28.6093 13.8301 26.7694 13.1146C24.9296 12.3991 23.0897 16.5388 23.0897 17.9698C23.0897 19.4008 27.5872 21.5473 26.3606 21.3428C25.134 21.1384 23.2942 23.336 22.9875 23.5404C22.7422 23.704 21.5565 25.9936 20.9943 27.1179C20.9603 26.4706 20.3811 24.951 18.3368 24.0515C15.7814 22.9271 13.1238 27.7823 14.1971 28.8045C15.0557 29.6222 14.9978 32.0753 14.8615 33.1997C12.6128 34.8351 12.0165 39.094 11.9995 41.019Z"
        fill="white"></path>
    <path
        d="M27.0977 21.109C29.3422 21.109 31.1618 19.2895 31.1618 17.045C31.1618 14.8005 29.3422 12.981 27.0977 12.981C24.8532 12.981 23.0337 14.8005 23.0337 17.045C23.0337 19.2895 24.8532 21.109 27.0977 21.109Z"
        stroke="#0B2537" stroke-width="1.8" stroke-miterlimit="10" stroke-linecap="square"></path>
    <path
        d="M17.6148 31.9464C19.8593 31.9464 21.6788 30.1269 21.6788 27.8824C21.6788 25.6379 19.8593 23.8184 17.6148 23.8184C15.3703 23.8184 13.5508 25.6379 13.5508 27.8824C13.5508 30.1269 15.3703 31.9464 17.6148 31.9464Z"
        stroke="#0B2537" stroke-width="1.8" stroke-miterlimit="10" stroke-linecap="square"></path>
    <path
        d="M36.5806 31.9464C38.8251 31.9464 40.6447 30.1269 40.6447 27.8824C40.6447 25.6379 38.8251 23.8184 36.5806 23.8184C34.3361 23.8184 32.5166 25.6379 32.5166 27.8824C32.5166 30.1269 34.3361 31.9464 36.5806 31.9464Z"
        stroke="#0B2537" stroke-width="1.8" stroke-miterlimit="10" stroke-linecap="square"></path>
    <path
        d="M32.5156 27.8823C32.5156 23.3902 30.0917 21.1089 27.0969 21.1089C24.1022 21.1089 21.6782 23.3902 21.6782 27.8823"
        stroke="#0B2537" stroke-width="1.8" stroke-miterlimit="10"></path>
    <path
        d="M23.0337 40.0746V38.7199C23.0337 34.2278 20.6097 31.9465 17.615 31.9465C14.6203 31.9465 12.1963 34.2278 12.1963 38.7199V40.0746"
        stroke="#0B2537" stroke-width="1.8" stroke-miterlimit="10" stroke-linecap="square"></path>
    <path
        d="M41.9995 40.0746V38.7199C41.9995 34.2278 39.5756 31.9465 36.5808 31.9465C33.5861 31.9465 31.1621 34.2278 31.1621 38.7199V40.0746"
        stroke="#0B2537" stroke-width="1.8" stroke-miterlimit="10" stroke-linecap="square"></path>
</svg>