<svg xmlns="http://www.w3.org/2000/svg" width="81" height="81" viewBox="0 0 81 81" fill="none">
    <rect width="80.9556" height="80.9556" rx="21.9906" fill="#d4e0ff"></rect>
    <circle cx="51.704" cy="29.2929" r="10.4579" fill="#2A5EE9"></circle>
    <path
        d="M20.0908 52.0773L18.9834 61.8872V62.6387H34.2914V60.4631C33.9882 59.1973 33.4291 56.5787 33.619 56.2307C33.8088 55.8826 32.5641 53.1849 31.9181 51.8795L31.0083 49.427H49.7182V50.1391L45.9604 55.5582L45.4462 62.6387H60.5961V57.1404C60.5961 56.381 58.6974 52.8157 57.748 51.1279L56.6405 48.1217L58.8556 44.6408L57.748 40.6852L53.6342 38.9448H50.1533L46.6724 40.6852L44.7737 35.9385L42.0839 34.3563L44.7737 29.926V26.4451L41.2928 23.7553H37.3372L34.9639 26.4451V32.1411L37.3372 34.3563L33.3816 38.9448L31.0083 41.7928L28.7931 38.9448H24.5211L22.306 40.6852L21.3566 45.7484L23.0971 50.3369L20.0908 52.0773Z"
        fill="white"></path>
    <path
        d="M39.7335 34.5788C42.8779 34.5788 45.4269 32.0297 45.4269 28.8853C45.4269 25.7409 42.8779 23.1919 39.7335 23.1919C36.5891 23.1919 34.04 25.7409 34.04 28.8853C34.04 32.0297 36.5891 34.5788 39.7335 34.5788Z"
        stroke="#0B2537" stroke-width="3" stroke-miterlimit="10" stroke-linecap="square"></path>
    <path
        d="M26.4486 49.7613C29.593 49.7613 32.142 47.2122 32.142 44.0678C32.142 40.9234 29.593 38.3744 26.4486 38.3744C23.3042 38.3744 20.7551 40.9234 20.7551 44.0678C20.7551 47.2122 23.3042 49.7613 26.4486 49.7613Z"
        stroke="#0B2537" stroke-width="3" stroke-miterlimit="10" stroke-linecap="square"></path>
    <path
        d="M53.0182 49.7613C56.1626 49.7613 58.7116 47.2122 58.7116 44.0678C58.7116 40.9234 56.1626 38.3744 53.0182 38.3744C49.8738 38.3744 47.3247 40.9234 47.3247 44.0678C47.3247 47.2122 49.8738 49.7613 53.0182 49.7613Z"
        stroke="#0B2537" stroke-width="3" stroke-miterlimit="10" stroke-linecap="square"></path>
    <path
        d="M47.3246 44.0679C47.3246 37.7747 43.9288 34.5788 39.7333 34.5788C35.5379 34.5788 32.1421 37.7747 32.1421 44.0679"
        stroke="#0B2537" stroke-width="3" stroke-miterlimit="10"></path>
    <path
        d="M34.0399 61.1482V59.2504C34.0399 52.9572 30.6441 49.7613 26.4487 49.7613C22.2532 49.7613 18.8574 52.9572 18.8574 59.2504V61.1482"
        stroke="#0B2537" stroke-width="3" stroke-miterlimit="10" stroke-linecap="square"></path>
    <path
        d="M60.6093 61.1482V59.2504C60.6093 52.9572 57.2135 49.7613 53.018 49.7613C48.8226 49.7613 45.4268 52.9572 45.4268 59.2504V61.1482"
        stroke="#0B2537" stroke-width="3" stroke-miterlimit="10" stroke-linecap="square"></path>
</svg>