<svg xmlns="http://www.w3.org/2000/svg" width="76" height="76" viewBox="0 0 76 76">
    <g fill="none" fill-rule="evenodd">
        <rect width="76" height="76" fill="#d4e0ff" fill-rule="nonzero" rx="19" />
        <path fill="#2A5EE9" fill-rule="nonzero"
            d="M31.9130435,18 C29.5156522,18 27.5652174,19.9504348 27.5652174,22.3478261 C27.5652174,24.7452174 29.5156522,26.6956522 31.9130435,26.6956522 C32.2669296,26.6956522 32.6058904,26.6416435 32.9354617,26.5614809 L33.6606661,28.1036009 C30.5425165,29.9100461 28.4347826,33.27474 28.4347826,37.1304348 C28.4347826,38.1255661 28.5844304,39.085007 28.8457878,39.9972826 L26.0010191,40.8770383 C25.226993,39.6732122 23.8822766,38.8695652 22.3478261,38.8695652 C19.9504348,38.8695652 18,40.82 18,43.2173913 C18,45.6147826 19.9504348,47.5652174 22.3478261,47.5652174 C24.7452174,47.5652174 26.6956522,45.6147826 26.6956522,43.2173913 C26.6956522,42.9737957 26.6715096,42.7368661 26.6328122,42.5040765 L29.4690896,41.6277174 C30.7971078,44.3918896 33.3005809,46.4794261 36.3338991,47.2408287 L36.0740487,49.31284 C33.7637304,49.4118496 31.9130435,51.3179183 31.9130435,53.6521739 C31.9130435,56.0495652 33.8634783,58 36.2608696,58 C38.6582609,58 40.6086957,56.0495652 40.6086957,53.6521739 C40.6086957,51.795587 39.4339765,50.2186774 37.7927991,49.5964678 L38.0526496,47.5227583 C38.3232113,47.5438843 38.5936713,47.5652174 38.8695652,47.5652174 C41.7845104,47.5652174 44.4201365,46.3602017 46.3152174,44.4266304 L49.8155574,47.3019704 C49.4998009,47.9040765 49.3043478,48.57862 49.3043478,49.3043478 C49.3043478,51.7017391 51.2547826,53.6521739 53.6521739,53.6521739 C56.0495652,53.6521739 58,51.7017391 58,49.3043478 C58,46.9069565 56.0495652,44.9565217 53.6521739,44.9565217 C52.6098339,44.9565217 51.6658913,45.3413339 50.9161009,45.9551635 L47.424253,43.0883148 C48.60546,41.3972939 49.3043478,39.3451261 49.3043478,37.1304348 C49.3043478,34.5660426 48.3699539,32.2185322 46.8298235,30.3997965 L49.5200409,27.7095791 C50.2074313,28.1652043 51.0283861,28.4347826 51.9130435,28.4347826 C54.3104348,28.4347826 56.2608696,26.4843478 56.2608696,24.0869565 C56.2608696,21.6895652 54.3104348,19.7391304 51.9130435,19.7391304 C49.5156522,19.7391304 47.5652174,21.6895652 47.5652174,24.0869565 C47.5652174,24.9716139 47.8347957,25.7925687 48.2904209,26.4799591 L45.6002035,29.1701765 C43.7814678,27.6300461 41.4339574,26.6956522 38.8695652,26.6956522 C37.5897748,26.6956522 36.3689774,26.9396748 35.2350539,27.3631113 L34.5064539,25.8158965 C35.5647513,25.0221104 36.2608696,23.7695401 36.2608696,22.3478261 C36.2608696,19.9504348 34.3104348,18 31.9130435,18 Z M38.8695652,31.0434783 C39.6747826,31.0434783 40.3343478,31.2632748 40.5543478,31.7041443 C41.8856522,31.8711009 42.3391304,33.026087 42.3478261,34.0869565 C42.3547826,34.893913 42.2886957,35.6 42.1304348,36.0434783 C42.2765217,36.1165217 42.4208696,36.4730435 42.3478261,36.9130435 C42.2017391,37.72 41.6982609,38 41.4782609,38 C41.4052174,38.733913 40.9017391,39.8095652 40.6086957,39.9565217 L40.6086957,41.4782609 C41.0782609,42.606087 43.3346061,42.5978939 44.7102583,43.5587635 C43.1659104,44.9622417 41.1208696,45.826087 38.8695652,45.826087 C36.6182609,45.826087 34.57322,44.9622417 33.0288722,43.5587635 C34.4045243,42.5978939 36.6608696,42.606087 37.1304348,41.4782609 L37.1304348,39.9565217 C36.8373913,39.8095652 36.333913,38.733913 36.2608696,38 C36.0408696,38 35.4643478,37.72 35.3913043,36.9130435 C35.3182609,36.4730435 35.4626087,36.1165217 35.6086957,36.0434783 C35.433913,35.3947826 35.3956522,34.7704348 35.3913043,34.1956522 C35.3782609,32.366087 36.4704348,31.0434783 38.8695652,31.0434783 Z" />
    </g>
</svg>
<svg xmlns="http://www.w3.org/2000/svg" fill="#d4e0ff" class="bi bi-hdd-network" viewBox="0 0 16 16" id="hdd-network">
    <path d="M4.5 5a.5.5 0 100-1 .5.5 0 000 1zM3 4.5a.5.5 0 11-1 0 .5.5 0 011 0z" fill="#2A5EE9"></path>
    <path fill="#2A5EE9"
        d="M0 4a2 2 0 012-2h12a2 2 0 012 2v1a2 2 0 01-2 2H8.5v3a1.5 1.5 0 011.5 1.5h5.5a.5.5 0 010 1H10A1.5 1.5 0 018.5 14h-1A1.5 1.5 0 016 12.5H.5a.5.5 0 010-1H6A1.5 1.5 0 017.5 10V7H2a2 2 0 01-2-2V4zm1 0v1a1 1 0 001 1h12a1 1 0 001-1V4a1 1 0 00-1-1H2a1 1 0 00-1 1zm6 7.5v1a.5.5 0 00.5.5h1a.5.5 0 00.5-.5v-1a.5.5 0 00-.5-.5h-1a.5.5 0 00-.5.5z">
    </path>
</svg>