<svg xmlns="http://www.w3.org/2000/svg" width="96" height="96" viewBox="0 0 96 96" fill="none">
    <rect width="95.269" height="95.269" rx="25.8787" fill="#d4e0ff"></rect>
    <circle cx="66.2178" cy="35.0892" r="12.307" fill="#2A5EE9"></circle>
    <path
        d="M63.6307 31.9979V43.3343C63.3295 46.7572 62.8092 55.1308 63.1377 61.2426C63.4663 67.3545 60.9197 68.1157 59.6054 67.7323C52.8966 67.8966 38.7397 68.1266 35.7824 67.7323C32.8251 67.338 31.9216 63.9535 31.8395 62.3106C31.949 55.3827 32.1023 40.0977 31.8395 34.3802C31.5766 28.6627 34.0848 27.3428 35.3717 27.3976C40.6292 27.4797 52.4585 27.4962 57.716 26.9047C62.9735 26.3132 63.8498 30.0537 63.6307 31.9979Z"
        fill="white"></path>
    <path d="M64.0476 40.6877H31.531" stroke="#0B2537" stroke-width="3"></path>
    <path d="M64.0476 54.5669H31.531" stroke="#0B2537" stroke-width="3"></path>
    <rect x="31.7725" y="27.344" width="31.7244" height="40.5811" rx="4.5" stroke="#0B2537" stroke-width="3"></rect>
</svg>