<svg xmlns="http://www.w3.org/2000/svg" width="76" height="76" viewBox="0 0 76 76">
    <g fill="none" fill-rule="evenodd">
        <rect width="76" height="76" fill="#d4e0ff" fill-rule="nonzero" rx="19" />
        <path fill="#2A5EE9" fill-rule="nonzero"
            d="M34.1927642,57.9987202 C34.0821873,57.9987202 33.968155,57.9783402 33.8575781,57.9341819 C33.4636474,57.7745358 33.2390382,57.3601332 33.3288824,56.949128 L36.6427339,41.476981 L28.8850719,41.476981 C28.5567964,41.476981 28.2561661,41.3003506 28.1041228,41.0150245 C27.9486233,40.7296984 27.969357,40.3832315 28.1524998,40.1182854 L43.1909613,18.3791549 C43.4328488,18.0360845 43.8820671,17.907008 44.2690863,18.0700515 C44.6595608,18.2330949 44.8772594,18.6407036 44.7908714,19.0483123 L41.4735637,34.5204593 L48.3466103,34.5204593 C48.6679743,34.5204593 48.9686055,34.6936932 49.1241041,34.9722254 C49.2796036,35.2507584 49.2657815,35.5904323 49.0930046,35.8587749 L34.9391584,57.5979054 C34.7698377,57.8560575 34.4864839,57.9987202 34.1927642,57.9987202 Z" />
    </g>
</svg>