<svg xmlns="http://www.w3.org/2000/svg" width="54" height="54" viewBox="0 0 54 54" fill="none">
    <rect width="54" height="54" rx="15.4286" fill="#d4e0ff"></rect>
    <circle cx="17.0335" cy="18.211" r="7.36237" fill="#2A5EE9"></circle>
    <path
        d="M39.4706 19.1312H32.2754V17.6196C32.2754 16.4232 31.3122 15.4502 30.1282 15.4502H23.571C22.3869 15.4502 21.4237 16.4232 21.4237 17.6196V19.1312H14.2285C13.069 19.1312 12.1254 20.0797 12.1254 21.2454V37.264C12.1254 38.4297 13.069 39.3782 14.2285 39.3782H39.4719C40.6314 39.3782 41.575 38.4297 41.575 37.264V21.2454C41.5737 20.0797 40.6302 19.1312 39.4706 19.1312Z"
        fill="#0B2537"></path>
    <path d="M34.8251 20.9714H18.874V37.5361H34.8251V20.9714Z" fill="white"></path>
    <path
        d="M23.2645 17.6196C23.2645 17.438 23.4019 17.2908 23.5712 17.2908H30.1284C30.2977 17.2908 30.4351 17.438 30.4351 17.6196V19.1313H23.2645V17.6196Z"
        fill="white"></path>
    <path
        d="M13.9656 37.2625V21.2451C13.9656 21.0941 14.0834 20.9714 14.2282 20.9714H17.0331V37.5361H14.2282C14.0834 37.5361 13.9656 37.4134 13.9656 37.2625Z"
        fill="white"></path>
    <path
        d="M39.7331 37.2625C39.7331 37.4134 39.6153 37.5361 39.4705 37.5361H36.6656V20.9714H39.4705C39.6153 20.9714 39.7331 21.0941 39.7331 21.2451V37.2625Z"
        fill="white"></path>
    <path
        d="M37.8592 43.1515C41.4322 43.1515 44.3286 40.255 44.3286 36.6821C44.3286 33.1091 41.4322 30.2126 37.8592 30.2126C34.2862 30.2126 31.3898 33.1091 31.3898 36.6821C31.3898 40.255 34.2862 43.1515 37.8592 43.1515Z"
        fill="white" stroke="#0B2537" stroke-width="1.92362" stroke-miterlimit="10" stroke-linecap="square"></path>
    <path d="M37.8591 34.6211V38.7431" stroke="#0B2537" stroke-width="1.64881" stroke-linecap="round"
        stroke-linejoin="round"></path>
    <path d="M35.7981 36.6821H39.9201" stroke="#0B2537" stroke-width="1.64881" stroke-linecap="round"
        stroke-linejoin="round"></path>
</svg>