<svg xmlns="http://www.w3.org/2000/svg" width="54" height="54" viewBox="0 0 54 54" fill="none">
    <rect width="54" height="54" rx="15.4286" fill="#d4e0ff"></rect>
    <circle cx="32.1366" cy="18.0386" r="8.969" fill="#2A5EE9"></circle>
    <path
        d="M31.1087 25.8L29.0902 28.2222L28.1819 29.8707C29.5724 30.5547 32.3938 31.9699 32.5553 32.1583C32.7168 32.3467 35.1794 34.1656 36.3905 35.0515V37.6756L34.3047 39.2904L25.8269 40.2324L17.8874 39.7278L13.6149 39.2904C13.3458 38.8082 12.8411 37.8102 12.9757 37.6756C13.1439 37.5074 12.8748 35.5898 12.9757 35.3543C13.0766 35.1188 13.6822 34.2441 13.985 33.975C14.2877 33.7059 15.8016 32.3266 15.9362 32.1583C16.0707 31.9901 18.1229 31.3173 18.9976 30.9136C19.6973 30.5906 20.4106 29.9043 20.6797 29.6016C20.3321 29.0857 19.6031 27.9867 19.4686 27.7176C19.3004 27.3812 18.3248 25.5645 18.1229 25.3963C17.9614 25.2618 17.8986 23.2993 17.8874 22.3349L18.3248 19.9127L19.2331 17.625L20.9152 16.0102C21.7562 15.7299 23.5594 15.1692 24.0439 15.1692C24.6494 15.1692 27.0716 15.6738 27.4417 16.0102C27.8118 16.3467 29.5275 17.4568 29.6284 17.625C29.7092 17.7596 30.6489 19.0492 31.1087 19.6772C31.389 20.7201 31.9632 22.9136 32.017 23.3442C32.0708 23.7748 31.4339 25.1608 31.1087 25.8Z"
        fill="white"></path>
    <path
        d="M29.7368 29.3287C31.8226 27.7542 33.1817 25.2916 33.1817 22.4926C33.1817 17.7559 29.3196 13.9072 24.5829 13.9072C19.8461 13.9072 15.984 17.7559 15.984 22.4926C15.984 25.2916 17.3566 27.7542 19.4289 29.3287C14.5845 30.6474 11.2607 33.7694 11.2607 37.5104C11.2607 41.6551 23.2237 41.7762 24.5829 41.7762C25.942 41.7762 37.9051 41.6551 37.9051 37.5104C37.9051 33.7694 34.5812 30.6474 29.7368 29.3287ZM18.4062 22.4926C18.4062 19.0881 21.1783 16.3294 24.5829 16.3294C27.9874 16.3294 30.7595 19.1015 30.7595 22.4926C30.7595 25.8837 27.9874 28.6558 24.5829 28.6558C21.1783 28.6558 18.4062 25.8972 18.4062 22.4926ZM24.5829 31.0915C30.4366 31.0915 35.3752 33.9713 35.4694 37.4162C34.8638 38.1428 30.8806 39.3674 24.5829 39.3674C18.2851 39.3674 14.3019 38.1428 13.6964 37.4162C13.7906 33.9713 18.7292 31.0915 24.5829 31.0915Z"
        fill="#0B2537"></path>
    <path
        d="M36.4237 44.9305C39.9117 44.9305 42.7394 42.1028 42.7394 38.6148C42.7394 35.1267 39.9117 32.2991 36.4237 32.2991C32.9356 32.2991 30.108 35.1267 30.108 38.6148C30.108 42.1028 32.9356 44.9305 36.4237 44.9305Z"
        fill="white" stroke="#0B2537" stroke-width="1.98277" stroke-miterlimit="10" stroke-linecap="square"></path>
    <path d="M36.4234 36.5161V40.7135" stroke="#0B2537" stroke-width="1.58622" stroke-linecap="round"
        stroke-linejoin="round"></path>
    <path d="M34.3248 38.6147H38.5222" stroke="#0B2537" stroke-width="1.58622" stroke-linecap="round"
        stroke-linejoin="round"></path>
</svg>