<svg xmlns="http://www.w3.org/2000/svg" width="81" height="81" viewBox="0 0 81 81" fill="none">
    <rect width="80.9556" height="80.9556" rx="21.9906" fill="#d4e0ff"></rect>
    <circle cx="52.2985" cy="31.0837" r="10.4579" fill="#2A5EE9"></circle>
    <circle cx="36.4522" cy="33.8106" r="3.78151" fill="white"></circle>
    <circle cx="51.4285" cy="44.412" r="3.78151" fill="white"></circle>
    <circle cx="28.3164" cy="55.0133" r="3.78151" fill="white"></circle>
    <path
        d="M19.5261 35.1357H31.341C31.9344 37.424 34.0008 39.127 36.4746 39.127C38.9485 39.127 41.0148 37.4248 41.6082 35.1357H59.3199C60.0526 35.1357 60.6469 34.5421 60.6469 33.811C60.6469 33.0791 60.0526 32.4854 59.3199 32.4854H41.6082C41.0148 30.1972 38.9485 28.4941 36.4746 28.4941C34.0008 28.4941 31.9344 30.1972 31.341 32.4854H19.5261C18.7935 32.4854 18.1992 33.0791 18.1992 33.8101C18.1992 34.5421 18.7935 35.1357 19.5261 35.1357ZM36.4746 31.1445C37.9467 31.1445 39.1429 32.3403 39.1429 33.8101C39.1429 35.2799 37.9459 36.4758 36.4746 36.4758C35.0034 36.4758 33.8064 35.2799 33.8064 33.8101C33.8064 32.3403 35.0034 31.1445 36.4746 31.1445Z"
        fill="#0B2537"></path>
    <path
        d="M59.3199 43.0868H56.4793C55.8859 40.7986 53.8196 39.0956 51.3457 39.0956C48.8719 39.0956 46.8055 40.7977 46.2121 43.0868H19.5261C18.7935 43.0868 18.1992 43.6805 18.1992 44.4116C18.1992 45.1435 18.7935 45.7372 19.5261 45.7372H46.213C46.8064 48.0254 48.8727 49.7284 51.3466 49.7284C53.8204 49.7284 55.8868 48.0262 56.4802 45.7372H59.3208C60.0534 45.7372 60.6477 45.1435 60.6477 44.4116C60.6469 43.6805 60.0526 43.0868 59.3199 43.0868ZM51.3457 47.078C49.8745 47.078 48.6775 45.8822 48.6775 44.4124C48.6775 42.9426 49.8745 41.7468 51.3457 41.7468C52.8178 41.7468 54.014 42.9426 54.014 44.4124C54.014 45.8822 52.8178 47.078 51.3457 47.078Z"
        fill="#0B2537"></path>
    <path
        d="M59.3199 53.6881H33.6187C33.0253 51.3999 30.959 49.6969 28.486 49.6969C26.0121 49.6969 23.9458 51.3999 23.3524 53.6881H19.5261C18.7935 53.6881 18.1992 54.2818 18.1992 55.0129C18.1992 55.7448 18.7935 56.3385 19.5261 56.3385H23.3524C23.9458 58.6267 26.0121 60.3297 28.486 60.3297C30.959 60.3297 33.0245 58.6267 33.6179 56.3385H59.3199C60.0526 56.3385 60.6469 55.7448 60.6469 55.0129C60.6469 54.2818 60.0526 53.6881 59.3199 53.6881ZM28.486 57.6794C27.0147 57.6794 25.8177 56.4835 25.8177 55.0137C25.8177 53.544 27.0147 52.3481 28.486 52.3481C29.9555 52.3481 31.1525 53.544 31.1525 55.0137C31.1534 56.4835 29.9564 57.6794 28.486 57.6794Z"
        fill="#0B2537"></path>
</svg>