<svg xmlns="http://www.w3.org/2000/svg" width="54" height="54" viewBox="0 0 54 54" fill="none">
    <rect width="54" height="54" rx="15.4286" fill="#d4e0ff"></rect>
    <circle cx="37.0454" cy="18.0169" r="8.88724" fill="#2A5EE9"></circle>
    <circle cx="23.5788" cy="20.3342" r="3.21355" fill="white"></circle>
    <circle cx="36.3058" cy="29.3432" r="3.21355" fill="white"></circle>
    <circle cx="16.6652" cy="38.3525" r="3.21355" fill="white"></circle>
    <path
        d="M9.195 21.4602H19.2354C19.7397 23.4048 21.4957 24.852 23.598 24.852C25.7003 24.852 27.4563 23.4055 27.9606 21.4602H43.0121C43.6347 21.4602 44.1397 20.9557 44.1397 20.3345C44.1397 19.7125 43.6347 19.2079 43.0121 19.2079H27.9606C27.4563 17.2634 25.7003 15.8162 23.598 15.8162C21.4957 15.8162 19.7397 17.2634 19.2354 19.2079H9.195C8.5724 19.2079 8.06738 19.7125 8.06738 20.3337C8.06738 20.9557 8.5724 21.4602 9.195 21.4602ZM23.598 18.0685C24.849 18.0685 25.8655 19.0847 25.8655 20.3337C25.8655 21.5828 24.8482 22.599 23.598 22.599C22.3477 22.599 21.3305 21.5828 21.3305 20.3337C21.3305 19.0847 22.3477 18.0685 23.598 18.0685Z"
        fill="#0B2537"></path>
    <path
        d="M43.0121 28.2172H40.5981C40.0939 26.2727 38.3379 24.8254 36.2356 24.8254C34.1333 24.8254 32.3773 26.272 31.873 28.2172H9.195C8.5724 28.2172 8.06738 28.7217 8.06738 29.343C8.06738 29.965 8.5724 30.4695 9.195 30.4695H31.8737C32.378 32.4141 34.134 33.8613 36.2363 33.8613C38.3386 33.8613 40.0946 32.4148 40.5989 30.4695H43.0128C43.6354 30.4695 44.1405 29.965 44.1405 29.343C44.1397 28.7217 43.6347 28.2172 43.0121 28.2172ZM36.2356 31.609C34.9853 31.609 33.968 30.5928 33.968 29.3437C33.968 28.0947 34.9853 27.0785 36.2356 27.0785C37.4865 27.0785 38.5031 28.0947 38.5031 29.3437C38.5031 30.5928 37.4865 31.609 36.2356 31.609Z"
        fill="#0B2537"></path>
    <path
        d="M43.0121 37.2263H21.171C20.6667 35.2817 18.9107 33.8345 16.8092 33.8345C14.7069 33.8345 12.9509 35.2817 12.4466 37.2263H9.195C8.5724 37.2263 8.06738 37.7308 8.06738 38.352C8.06738 38.974 8.5724 39.4786 9.195 39.4786H12.4466C12.9509 41.4231 14.7069 42.8703 16.8092 42.8703C18.9107 42.8703 20.666 41.4231 21.1703 39.4786H43.0121C43.6347 39.4786 44.1397 38.974 44.1397 38.352C44.1397 37.7308 43.6347 37.2263 43.0121 37.2263ZM16.8092 40.618C15.5589 40.618 14.5416 39.6018 14.5416 38.3528C14.5416 37.1037 15.5589 36.0875 16.8092 36.0875C18.058 36.0875 19.0752 37.1037 19.0752 38.3528C19.0759 39.6018 18.0587 40.618 16.8092 40.618Z"
        fill="#0B2537"></path>
</svg>