<svg xmlns="http://www.w3.org/2000/svg" width="81" height="81" viewBox="0 0 81 81" fill="none">
    <rect width="80.9556" height="80.9556" rx="21.9906" fill="#d4e0ff"></rect>
    <circle cx="51.9638" cy="29.935" r="10.4579" fill="#2A5EE9"></circle>
    <path
        d="M25.2538 28.7531L30.3105 32.0296L33.397 30.6763L34.7503 26.0703L37.2907 25.0494L39.1664 26.9726L40.0923 30.7476L44.081 31.626L48.3784 29.513L50.8001 32.362L48.4733 36.1608L49.8741 40.7193L54.3614 41.1941L54.3139 45.2778L49.1144 46.7261L48.0934 51.2608L51.085 54.2761L48.2122 57.4338L43.4162 54.9409L39.9499 56.0805L39.3563 60.5203L36.3648 61.4463L34.2042 60.0455L33.3733 56.2467L29.8357 55.297C28.2924 56.0884 25.1632 57.6997 24.9923 57.8137C24.8213 57.9277 23.4965 55.6294 22.8555 54.466L25.2534 49.9788L23.1166 46.6549L18.9617 46.085L18.5342 42.3813C18.9853 41.8985 19.9777 40.9615 20.3386 41.0754C20.7897 41.2179 24.4698 39.8171 24.6122 39.2948C24.7262 38.8769 25.1029 37.0947 25.277 36.2558L22.7606 32.1484L25.2538 28.7531Z"
        fill="white"></path>
    <path
        d="M54.8483 45.6447V41.1309L49.476 40.2538C49.158 38.9806 48.6583 37.7855 48.0002 36.6894L51.1313 32.2269L47.9396 29.0364L43.5342 32.2036C42.4357 31.5385 41.2325 31.0318 39.9511 30.7126L39.0146 25.3672H34.5009L33.6307 30.6963C32.3482 31.0108 31.138 31.5105 30.0372 32.1733L25.6446 29.0353L22.4529 32.2258L25.5433 36.644C24.8758 37.7506 24.3668 38.9585 24.0441 40.2492L18.7383 41.1309V45.6447L24.0371 46.5835C24.3563 47.8719 24.8653 49.0798 25.5363 50.1875L22.404 54.5673L25.5945 57.7613L30.0186 54.6629C31.1228 55.3268 32.3308 55.83 33.6121 56.1469L34.4997 61.4783H39.0134L39.9616 56.1329C41.2371 55.8102 42.4416 55.3024 43.5353 54.6361L47.9897 57.7625L51.1813 54.5685L48.0013 50.1526C48.6595 49.0565 49.1592 47.8602 49.4749 46.587L54.8483 45.6447ZM36.7933 49.4397C33.47 49.4397 30.7746 46.7443 30.7746 43.421C30.7746 40.0977 33.4688 37.4023 36.7933 37.4023C40.1177 37.4023 42.812 40.0977 42.812 43.421C42.812 46.7455 40.1165 49.4397 36.7933 49.4397Z"
        stroke="#0B2537" stroke-width="2.66465" stroke-linecap="round" stroke-linejoin="round"></path>
</svg>