<svg xmlns="http://www.w3.org/2000/svg" width="314" height="273" viewBox="0 0 314 273" fill="none">
    <mask id="mask0" mask-type="alpha" maskUnits="userSpaceOnUse" x="0" y="0" width="156" height="171">
        <path fill-rule="evenodd" clip-rule="evenodd"
            d="M0 161.161L145.11 0.000197434L155.136 9.02728L10.0256 170.188L0 161.161Z" fill="white" />
    </mask>
    <g mask="url(#mask0)">
        <path fill-rule="evenodd" clip-rule="evenodd"
            d="M155.136 9.02728C150.654 14.0042 145.981 14.4125 141.858 14.7719C137.768 15.1293 134.237 15.4356 130.654 19.4143C127.073 23.3916 127.136 26.9369 127.209 31.0409C127.282 35.1794 127.365 39.8692 122.884 44.8466C118.403 49.823 113.731 50.2299 109.607 50.5893C105.518 50.9463 101.987 51.2531 98.4051 55.2309C94.8243 59.2077 94.888 62.7526 94.9604 66.8565C95.0339 70.9946 95.1177 75.6839 90.6364 80.6608C86.1556 85.6373 81.4832 86.0442 77.3597 86.404C73.2711 86.7605 69.7386 87.0682 66.1582 91.0446C62.577 95.022 62.6411 98.5664 62.7139 102.67C62.7875 106.808 62.8708 111.498 58.39 116.474C53.9099 121.45 49.2376 121.857 45.1149 122.216C41.0263 122.572 37.4942 122.879 33.9142 126.855C30.3338 130.832 30.3979 134.376 30.4711 138.479C30.5447 142.617 30.6284 147.306 26.1484 152.282C21.6676 157.258 16.9948 157.666 12.8717 158.025C8.78309 158.382 5.25142 158.689 1.67063 162.665L0 161.161C4.48041 156.185 9.15364 155.778 13.2763 155.418C17.3654 155.062 20.897 154.755 24.4778 150.778C28.0578 146.802 27.9942 143.258 27.9209 139.154C27.8474 135.017 27.7632 130.327 32.2436 125.351C36.7236 120.375 41.3968 119.968 45.5191 119.609C49.6077 119.254 53.1389 118.946 56.7193 114.97C60.3005 110.993 60.2369 107.449 60.1636 103.345C60.0905 99.207 60.0068 94.5169 64.4876 89.5404C68.968 84.5644 73.6417 84.157 77.7639 83.7976C81.853 83.4416 85.3846 83.1339 88.9658 79.1566C92.547 75.1792 92.4838 71.6348 92.4105 67.5309C92.3374 63.3932 92.2537 58.7031 96.7345 53.7266C101.216 48.7497 105.889 48.3427 110.012 47.9825C114.101 47.6268 117.632 47.3192 121.213 43.3423C124.795 39.3645 124.732 35.8196 124.659 31.7148C124.586 27.5767 124.503 22.8861 128.984 17.9101C133.465 12.9332 138.139 12.5253 142.262 12.1655C146.352 11.8085 149.883 11.5013 153.465 7.52304L155.136 9.02728Z"
            fill="#055E6C" />
    </g>
    <mask id="mask1" mask-type="alpha" maskUnits="userSpaceOnUse" x="14" y="13" width="156" height="171">
        <path fill-rule="evenodd" clip-rule="evenodd"
            d="M14.7041 174.4L159.814 13.2395L169.84 22.2665L24.7297 183.427L14.7041 174.4Z" fill="white" />
    </mask>
    <g mask="url(#mask1)">
        <path fill-rule="evenodd" clip-rule="evenodd"
            d="M169.84 22.2665C165.358 27.2434 160.685 27.6517 156.562 28.0111C152.472 28.3685 148.941 28.6749 145.359 32.6536C141.777 36.6309 141.841 40.1762 141.913 44.2801C141.986 48.4187 142.069 53.1084 137.588 58.0858C133.107 63.0623 128.435 63.4692 124.312 63.8286C120.223 64.1855 116.691 64.4923 113.109 68.4701C109.528 72.447 109.592 75.9918 109.664 80.0958C109.738 84.2338 109.822 88.9232 105.341 93.9001C100.86 98.8765 96.1873 99.2834 92.0638 99.6433C87.9752 99.9998 84.4427 100.307 80.8623 104.284C77.2811 108.261 77.3452 111.806 77.418 115.909C77.4916 120.047 77.5749 124.737 73.0941 129.713C68.614 134.689 63.9417 135.096 59.819 135.455C55.7304 135.811 52.1983 136.119 48.6183 140.094C45.0379 144.071 45.102 147.615 45.1752 151.718C45.2488 155.856 45.3325 160.546 40.8525 165.521C36.3717 170.498 31.6989 170.905 27.5758 171.264C23.4872 171.621 19.9555 171.928 16.3747 175.905L14.7041 174.4C19.1845 169.424 23.8577 169.017 27.9804 168.658C32.0695 168.302 35.6011 167.994 39.1819 164.017C42.7619 160.041 42.6983 156.497 42.625 152.393C42.5515 148.256 42.4673 143.566 46.9477 138.59C51.4277 133.615 56.1009 133.208 60.2232 132.848C64.3118 132.493 67.843 132.186 71.4234 128.209C75.0046 124.232 74.941 120.688 74.8677 116.584C74.7946 112.446 74.7109 107.756 79.1917 102.78C83.6721 97.8037 88.3458 97.3962 92.468 97.0369C96.5571 96.6808 100.089 96.3732 103.67 92.3958C107.251 88.4185 107.188 84.8741 107.115 80.7702C107.042 76.6325 106.958 71.9423 111.439 66.9659C115.92 61.989 120.593 61.582 124.716 61.2217C128.805 60.8661 132.336 60.5584 135.917 56.5816C139.499 52.6038 139.436 49.0589 139.364 44.9541C139.29 40.816 139.208 36.1253 143.688 31.1493C148.169 26.1724 152.843 25.7645 156.966 25.4047C161.056 25.0477 164.587 24.7405 168.169 20.7623L169.84 22.2665Z"
            fill="#055E6C" />
    </g>
    <mask id="mask2" mask-type="alpha" maskUnits="userSpaceOnUse" x="29" y="26" width="156" height="171">
        <path fill-rule="evenodd" clip-rule="evenodd"
            d="M29.4082 187.641L174.518 26.4797L184.544 35.5068L39.4338 196.668L29.4082 187.641Z" fill="white" />
    </mask>
    <g mask="url(#mask2)">
        <path fill-rule="evenodd" clip-rule="evenodd"
            d="M184.544 35.5068C180.063 40.4837 175.389 40.892 171.266 41.2514C167.176 41.6088 163.645 41.9151 160.063 45.8938C156.481 49.8711 156.545 53.4164 156.617 57.5204C156.69 61.6589 156.774 66.3487 152.292 71.3261C147.811 76.3025 143.139 76.7094 139.016 77.0688C134.927 77.4258 131.395 77.7326 127.813 81.7103C124.233 85.6872 124.296 89.232 124.369 93.336C124.442 97.4741 124.526 102.163 120.045 107.14C115.564 112.117 110.891 112.524 106.768 112.884C102.679 113.24 99.1468 113.548 95.5664 117.524C91.9852 121.501 92.0493 125.046 92.1221 129.149C92.1957 133.287 92.279 137.977 87.7982 142.954C83.3182 147.929 78.6458 148.336 74.5231 148.695C70.4345 149.052 66.9024 149.359 63.3224 153.335C59.742 157.311 59.8061 160.856 59.8793 164.959C59.9529 169.097 60.0366 173.786 55.5566 178.761C51.0758 183.738 46.403 184.145 42.2799 184.505C38.1913 184.861 34.6596 185.168 31.0788 189.145L29.4082 187.641C33.8886 182.665 38.5618 182.258 42.6845 181.898C46.7736 181.542 50.3052 181.234 53.886 177.257C57.466 173.281 57.4024 169.737 57.3291 165.633C57.2556 161.496 57.1714 156.806 61.6518 151.83C66.1318 146.855 70.805 146.448 74.9273 146.089C79.0159 145.733 82.5471 145.426 86.1275 141.449C89.7087 137.472 89.6451 133.928 89.5718 129.824C89.4987 125.687 89.415 120.996 93.8958 116.02C98.3762 111.044 103.05 110.636 107.172 110.277C111.261 109.921 114.793 109.613 118.374 105.636C121.955 101.659 121.892 98.1143 121.819 94.0104C121.746 89.8727 121.662 85.1826 126.143 80.2061C130.624 75.2292 135.297 74.8222 139.42 74.462C143.509 74.1063 147.041 73.7987 150.621 69.8218C154.203 65.844 154.14 62.2991 154.068 58.1943C153.994 54.0562 153.912 49.3656 158.392 44.3896C162.873 39.4127 167.547 39.0048 171.67 38.645C175.76 38.288 179.291 37.9808 182.873 34.0025L184.544 35.5068Z"
            fill="#055E6C" />
    </g>
    <mask id="mask3" mask-type="alpha" maskUnits="userSpaceOnUse" x="43" y="39" width="156" height="171">
        <path fill-rule="evenodd" clip-rule="evenodd"
            d="M43.4443 200.278L188.554 39.1174L198.58 48.1445L53.4699 209.305L43.4443 200.278Z" fill="white" />
    </mask>
    <g mask="url(#mask3)">
        <path fill-rule="evenodd" clip-rule="evenodd"
            d="M198.58 48.1445C194.099 53.1214 189.425 53.5297 185.302 53.8891C181.213 54.2465 177.681 54.5528 174.099 58.5315C170.518 62.5088 170.581 66.0541 170.653 70.1581C170.726 74.2966 170.81 78.9864 166.328 83.9637C161.847 88.9402 157.175 89.3471 153.052 89.7065C148.963 90.0635 145.431 90.3702 141.849 94.348C138.269 98.3249 138.332 101.87 138.405 105.974C138.478 110.112 138.562 114.801 134.081 119.778C129.6 124.754 124.928 125.161 120.804 125.521C116.715 125.878 113.183 126.185 109.603 130.162C106.021 134.139 106.085 137.684 106.158 141.787C106.232 145.925 106.315 150.615 101.834 155.591C97.3543 160.567 92.6819 160.974 88.5592 161.333C84.4706 161.689 80.9385 161.996 77.3586 165.972C73.7782 169.949 73.8422 173.493 73.9155 177.596C73.989 181.734 74.0728 186.424 69.5927 191.399C65.1119 196.376 60.4391 196.783 56.3161 197.142C52.2274 197.499 48.6958 197.806 45.115 201.783L43.4443 200.278C47.9248 195.302 52.598 194.895 56.7206 194.536C60.8097 194.179 64.3413 193.872 67.9221 189.895C71.5021 185.919 71.4385 182.375 71.3652 178.271C71.2917 174.134 71.2075 169.444 75.6879 164.468C80.1679 159.493 84.8412 159.086 88.9634 158.726C93.0521 158.371 96.5833 158.064 100.164 154.087C103.745 150.11 103.681 146.566 103.608 142.462C103.535 138.324 103.451 133.634 107.932 128.658C112.412 123.682 117.086 123.274 121.208 122.915C125.297 122.559 128.829 122.251 132.41 118.274C135.991 114.296 135.928 110.752 135.855 106.648C135.782 102.51 135.698 97.8203 140.179 92.8438C144.66 87.8669 149.333 87.4599 153.456 87.0997C157.545 86.744 161.077 86.4364 164.657 82.4595C168.239 78.4817 168.176 74.9368 168.104 70.832C168.03 66.6939 167.948 62.0033 172.428 57.0273C176.909 52.0503 181.583 51.6425 185.706 51.2827C189.796 50.9257 193.327 50.6185 196.909 46.6402L198.58 48.1445Z"
            fill="#055E6C" />
    </g>
    <mask id="mask4" mask-type="alpha" maskUnits="userSpaceOnUse" x="58" y="52" width="156" height="171">
        <path fill-rule="evenodd" clip-rule="evenodd"
            d="M58.1484 213.519L203.258 52.3576L213.284 61.3847L68.174 222.546L58.1484 213.519Z" fill="white" />
    </mask>
    <g mask="url(#mask4)">
        <path fill-rule="evenodd" clip-rule="evenodd"
            d="M213.284 61.3847C208.803 66.3616 204.129 66.7699 200.006 67.1293C195.917 67.4867 192.385 67.793 188.803 71.7717C185.222 75.7491 185.285 79.2944 185.357 83.3983C185.431 87.5368 185.514 92.2266 181.032 97.204C176.551 102.18 171.879 102.587 167.756 102.947C163.667 103.304 160.135 103.61 156.554 107.588C152.973 111.565 153.036 115.11 153.109 119.214C153.182 123.352 153.266 128.041 148.785 133.018C144.304 137.995 139.632 138.402 135.508 138.761C131.42 139.118 127.887 139.426 124.307 143.402C120.725 147.379 120.79 150.924 120.862 155.027C120.936 159.165 121.019 163.855 116.538 168.832C112.058 173.807 107.386 174.214 103.263 174.573C99.1747 174.929 95.6426 175.237 92.0627 179.213C88.4823 183.189 88.5463 186.733 88.6196 190.836C88.6931 194.975 88.7769 199.664 84.2969 204.639C79.816 209.616 75.1432 210.023 71.0202 210.383C66.9315 210.739 63.3999 211.046 59.8191 215.023L58.1484 213.519C62.6289 208.543 67.3021 208.136 71.4247 207.776C75.5138 207.42 79.0454 207.112 82.6262 203.135C86.2062 199.159 86.1426 195.615 86.0693 191.511C85.9958 187.374 85.9116 182.684 90.392 177.708C94.872 172.733 99.5453 172.326 103.667 171.967C107.756 171.611 111.287 171.304 114.868 167.327C118.449 163.35 118.385 159.806 118.312 155.702C118.239 151.564 118.155 146.874 122.636 141.898C127.116 136.922 131.79 136.514 135.912 136.155C140.001 135.799 143.533 135.491 147.114 131.514C150.695 127.537 150.632 123.992 150.559 119.888C150.486 115.751 150.402 111.06 154.883 106.084C159.364 101.107 164.037 100.7 168.16 100.34C172.249 99.9843 175.781 99.6766 179.362 95.6997C182.943 91.7219 182.88 88.1771 182.808 84.0722C182.734 79.9342 182.652 75.2435 187.132 70.2675C191.614 65.2906 196.288 64.8827 200.41 64.5229C204.5 64.1659 208.031 63.8587 211.613 59.8805L213.284 61.3847Z"
            fill="#055E6C" />
    </g>
    <mask id="mask5" mask-type="alpha" maskUnits="userSpaceOnUse" x="169" y="156" width="110" height="110">
        <rect x="169.929" y="156.267" width="109" height="109" fill="white" />
    </mask>
    <g mask="url(#mask5)">
        <path fill-rule="evenodd" clip-rule="evenodd"
            d="M267.704 161.145C266.788 161.145 266.045 161.891 266.045 162.812C266.045 163.733 266.788 164.479 267.704 164.479C268.621 164.479 269.364 163.733 269.364 162.812C269.364 161.891 268.621 161.145 267.704 161.145Z"
            fill="#FCD31A" />
        <path fill-rule="evenodd" clip-rule="evenodd"
            d="M267.704 182.971C266.788 182.971 266.045 183.717 266.045 184.638C266.045 185.559 266.788 186.305 267.704 186.305C268.621 186.305 269.364 185.559 269.364 184.638C269.364 183.717 268.621 182.971 267.704 182.971Z"
            fill="#FCD31A" />
        <path fill-rule="evenodd" clip-rule="evenodd"
            d="M276.604 173.725C276.604 172.804 275.861 172.058 274.944 172.058C274.028 172.058 273.285 172.804 273.285 173.725C273.285 174.646 274.028 175.392 274.944 175.392C275.861 175.392 276.604 174.646 276.604 173.725Z"
            fill="#FCD31A" />
        <path fill-rule="evenodd" clip-rule="evenodd"
            d="M267.704 204.797C266.788 204.797 266.045 205.543 266.045 206.464C266.045 207.385 266.788 208.131 267.704 208.131C268.621 208.131 269.364 207.385 269.364 206.464C269.364 205.543 268.621 204.797 267.704 204.797Z"
            fill="#FCD31A" />
        <path fill-rule="evenodd" clip-rule="evenodd"
            d="M276.604 195.551C276.604 194.63 275.861 193.884 274.944 193.884C274.028 193.884 273.285 194.63 273.285 195.551C273.285 196.472 274.028 197.218 274.944 197.218C275.861 197.218 276.604 196.472 276.604 195.551Z"
            fill="#FCD31A" />
        <path fill-rule="evenodd" clip-rule="evenodd"
            d="M276.604 217.377C276.604 216.456 275.861 215.71 274.944 215.71C274.028 215.71 273.285 216.456 273.285 217.377C273.285 218.298 274.028 219.044 274.944 219.044C275.861 219.044 276.604 218.298 276.604 217.377Z"
            fill="#FCD31A" />
        <path fill-rule="evenodd" clip-rule="evenodd"
            d="M273.285 239.203C273.285 240.124 274.028 240.871 274.944 240.871C275.861 240.871 276.604 240.124 276.604 239.203C276.604 238.283 275.861 237.536 274.944 237.536C274.028 237.536 273.285 238.283 273.285 239.203Z"
            fill="#FCD31A" />
        <path fill-rule="evenodd" clip-rule="evenodd"
            d="M273.285 261.029C273.285 261.949 274.028 262.696 274.944 262.696C275.861 262.696 276.604 261.949 276.604 261.029C276.604 260.108 275.861 259.361 274.944 259.361C274.028 259.361 273.285 260.108 273.285 261.029Z"
            fill="#FCD31A" />
        <path fill-rule="evenodd" clip-rule="evenodd"
            d="M253.223 161.145C252.306 161.145 251.563 161.891 251.563 162.812C251.563 163.733 252.306 164.479 253.223 164.479C254.139 164.479 254.882 163.733 254.882 162.812C254.882 161.891 254.139 161.145 253.223 161.145Z"
            fill="#FCD31A" />
        <path fill-rule="evenodd" clip-rule="evenodd"
            d="M253.223 182.971C252.306 182.971 251.563 183.717 251.563 184.638C251.563 185.559 252.306 186.305 253.223 186.305C254.139 186.305 254.882 185.559 254.882 184.638C254.882 183.717 254.139 182.971 253.223 182.971Z"
            fill="#FCD31A" />
        <path fill-rule="evenodd" clip-rule="evenodd"
            d="M262.122 173.725C262.122 172.804 261.379 172.058 260.463 172.058C259.547 172.058 258.804 172.804 258.804 173.725C258.804 174.646 259.547 175.392 260.463 175.392C261.379 175.392 262.122 174.646 262.122 173.725Z"
            fill="#FCD31A" />
        <path fill-rule="evenodd" clip-rule="evenodd"
            d="M253.223 204.797C252.306 204.797 251.563 205.543 251.563 206.464C251.563 207.385 252.306 208.131 253.223 208.131C254.139 208.131 254.882 207.385 254.882 206.464C254.882 205.543 254.139 204.797 253.223 204.797Z"
            fill="#FCD31A" />
        <path fill-rule="evenodd" clip-rule="evenodd"
            d="M262.122 195.551C262.122 194.63 261.379 193.884 260.463 193.884C259.547 193.884 258.804 194.63 258.804 195.551C258.804 196.472 259.547 197.218 260.463 197.218C261.379 197.218 262.122 196.472 262.122 195.551Z"
            fill="#FCD31A" />
        <path fill-rule="evenodd" clip-rule="evenodd"
            d="M262.122 217.377C262.122 216.456 261.379 215.71 260.463 215.71C259.547 215.71 258.804 216.456 258.804 217.377C258.804 218.298 259.547 219.044 260.463 219.044C261.379 219.044 262.122 218.298 262.122 217.377Z"
            fill="#FCD31A" />
        <path fill-rule="evenodd" clip-rule="evenodd"
            d="M258.804 239.203C258.804 240.124 259.547 240.871 260.463 240.871C261.379 240.871 262.122 240.124 262.122 239.203C262.122 238.283 261.379 237.536 260.463 237.536C259.547 237.536 258.804 238.283 258.804 239.203Z"
            fill="#FCD31A" />
        <path fill-rule="evenodd" clip-rule="evenodd"
            d="M267.704 229.958C268.621 229.958 269.364 229.211 269.364 228.29C269.364 227.369 268.621 226.623 267.704 226.623C266.788 226.623 266.045 227.369 266.045 228.29C266.045 229.211 266.788 229.958 267.704 229.958Z"
            fill="#FCD31A" />
        <path fill-rule="evenodd" clip-rule="evenodd"
            d="M258.804 261.029C258.804 261.949 259.547 262.696 260.463 262.696C261.379 262.696 262.122 261.949 262.122 261.029C262.122 260.108 261.379 259.361 260.463 259.361C259.547 259.361 258.804 260.108 258.804 261.029Z"
            fill="#FCD31A" />
        <path fill-rule="evenodd" clip-rule="evenodd"
            d="M267.704 251.784C268.621 251.784 269.364 251.037 269.364 250.116C269.364 249.196 268.621 248.449 267.704 248.449C266.788 248.449 266.045 249.196 266.045 250.116C266.045 251.037 266.788 251.784 267.704 251.784Z"
            fill="#FCD31A" />
        <path fill-rule="evenodd" clip-rule="evenodd"
            d="M238.741 161.145C237.825 161.145 237.082 161.891 237.082 162.812C237.082 163.733 237.825 164.479 238.741 164.479C239.658 164.479 240.401 163.733 240.401 162.812C240.401 161.891 239.658 161.145 238.741 161.145Z"
            fill="#FCD31A" />
        <path fill-rule="evenodd" clip-rule="evenodd"
            d="M238.741 182.971C237.825 182.971 237.082 183.717 237.082 184.638C237.082 185.559 237.825 186.305 238.741 186.305C239.658 186.305 240.401 185.559 240.401 184.638C240.401 183.717 239.658 182.971 238.741 182.971Z"
            fill="#FCD31A" />
        <path fill-rule="evenodd" clip-rule="evenodd"
            d="M247.641 173.725C247.641 172.804 246.898 172.058 245.982 172.058C245.065 172.058 244.322 172.804 244.322 173.725C244.322 174.646 245.065 175.392 245.982 175.392C246.898 175.392 247.641 174.646 247.641 173.725Z"
            fill="#FCD31A" />
        <path fill-rule="evenodd" clip-rule="evenodd"
            d="M238.741 204.797C237.825 204.797 237.082 205.543 237.082 206.464C237.082 207.385 237.825 208.131 238.741 208.131C239.658 208.131 240.401 207.385 240.401 206.464C240.401 205.543 239.658 204.797 238.741 204.797Z"
            fill="#FCD31A" />
        <path fill-rule="evenodd" clip-rule="evenodd"
            d="M247.641 195.551C247.641 194.63 246.898 193.884 245.982 193.884C245.065 193.884 244.322 194.63 244.322 195.551C244.322 196.472 245.065 197.218 245.982 197.218C246.898 197.218 247.641 196.472 247.641 195.551Z"
            fill="#FCD31A" />
        <path fill-rule="evenodd" clip-rule="evenodd"
            d="M247.641 217.377C247.641 216.456 246.898 215.71 245.982 215.71C245.065 215.71 244.322 216.456 244.322 217.377C244.322 218.298 245.065 219.044 245.982 219.044C246.898 219.044 247.641 218.298 247.641 217.377Z"
            fill="#FCD31A" />
        <path fill-rule="evenodd" clip-rule="evenodd"
            d="M244.322 239.203C244.322 240.124 245.065 240.871 245.982 240.871C246.898 240.871 247.641 240.124 247.641 239.203C247.641 238.283 246.898 237.536 245.982 237.536C245.065 237.536 244.322 238.283 244.322 239.203Z"
            fill="#FCD31A" />
        <path fill-rule="evenodd" clip-rule="evenodd"
            d="M253.223 229.958C254.139 229.958 254.882 229.211 254.882 228.29C254.882 227.369 254.139 226.623 253.223 226.623C252.306 226.623 251.563 227.369 251.563 228.29C251.563 229.211 252.306 229.958 253.223 229.958Z"
            fill="#FCD31A" />
        <path fill-rule="evenodd" clip-rule="evenodd"
            d="M244.322 261.029C244.322 261.949 245.065 262.696 245.982 262.696C246.898 262.696 247.641 261.949 247.641 261.029C247.641 260.108 246.898 259.361 245.982 259.361C245.065 259.361 244.322 260.108 244.322 261.029Z"
            fill="#FCD31A" />
        <path fill-rule="evenodd" clip-rule="evenodd"
            d="M253.223 251.784C254.139 251.784 254.882 251.037 254.882 250.116C254.882 249.196 254.139 248.449 253.223 248.449C252.306 248.449 251.563 249.196 251.563 250.116C251.563 251.037 252.306 251.784 253.223 251.784Z"
            fill="#FCD31A" />
        <path fill-rule="evenodd" clip-rule="evenodd"
            d="M224.26 161.145C223.343 161.145 222.601 161.891 222.601 162.812C222.601 163.733 223.343 164.479 224.26 164.479C225.176 164.479 225.919 163.733 225.919 162.812C225.919 161.891 225.176 161.145 224.26 161.145Z"
            fill="#FCD31A" />
        <path fill-rule="evenodd" clip-rule="evenodd"
            d="M224.26 182.971C223.343 182.971 222.601 183.717 222.601 184.638C222.601 185.559 223.343 186.305 224.26 186.305C225.176 186.305 225.919 185.559 225.919 184.638C225.919 183.717 225.176 182.971 224.26 182.971Z"
            fill="#FCD31A" />
        <path fill-rule="evenodd" clip-rule="evenodd"
            d="M233.16 173.725C233.16 172.804 232.418 172.058 231.501 172.058C230.585 172.058 229.842 172.804 229.842 173.725C229.842 174.646 230.585 175.392 231.501 175.392C232.418 175.392 233.16 174.646 233.16 173.725Z"
            fill="#FCD31A" />
        <path fill-rule="evenodd" clip-rule="evenodd"
            d="M224.26 204.797C223.343 204.797 222.601 205.543 222.601 206.464C222.601 207.385 223.343 208.131 224.26 208.131C225.176 208.131 225.919 207.385 225.919 206.464C225.919 205.543 225.176 204.797 224.26 204.797Z"
            fill="#FCD31A" />
        <path fill-rule="evenodd" clip-rule="evenodd"
            d="M233.16 195.551C233.16 194.63 232.418 193.884 231.501 193.884C230.585 193.884 229.842 194.63 229.842 195.551C229.842 196.472 230.585 197.218 231.501 197.218C232.418 197.218 233.16 196.472 233.16 195.551Z"
            fill="#FCD31A" />
        <path fill-rule="evenodd" clip-rule="evenodd"
            d="M233.16 217.377C233.16 216.456 232.418 215.71 231.501 215.71C230.585 215.71 229.842 216.456 229.842 217.377C229.842 218.298 230.585 219.044 231.501 219.044C232.418 219.044 233.16 218.298 233.16 217.377Z"
            fill="#FCD31A" />
        <path fill-rule="evenodd" clip-rule="evenodd"
            d="M229.842 239.203C229.842 240.124 230.585 240.871 231.501 240.871C232.418 240.871 233.16 240.124 233.16 239.203C233.16 238.283 232.418 237.536 231.501 237.536C230.585 237.536 229.842 238.283 229.842 239.203Z"
            fill="#FCD31A" />
        <path fill-rule="evenodd" clip-rule="evenodd"
            d="M238.741 229.958C239.658 229.958 240.401 229.211 240.401 228.29C240.401 227.369 239.658 226.623 238.741 226.623C237.825 226.623 237.082 227.369 237.082 228.29C237.082 229.211 237.825 229.958 238.741 229.958Z"
            fill="#FCD31A" />
        <path fill-rule="evenodd" clip-rule="evenodd"
            d="M229.842 261.029C229.842 261.949 230.585 262.696 231.501 262.696C232.418 262.696 233.16 261.949 233.16 261.029C233.16 260.108 232.418 259.361 231.501 259.361C230.585 259.361 229.842 260.108 229.842 261.029Z"
            fill="#FCD31A" />
        <path fill-rule="evenodd" clip-rule="evenodd"
            d="M238.741 251.784C239.658 251.784 240.401 251.037 240.401 250.116C240.401 249.196 239.658 248.449 238.741 248.449C237.825 248.449 237.082 249.196 237.082 250.116C237.082 251.037 237.825 251.784 238.741 251.784Z"
            fill="#FCD31A" />
        <path fill-rule="evenodd" clip-rule="evenodd"
            d="M209.778 161.145C208.862 161.145 208.119 161.891 208.119 162.812C208.119 163.733 208.862 164.479 209.778 164.479C210.695 164.479 211.438 163.733 211.438 162.812C211.438 161.891 210.695 161.145 209.778 161.145Z"
            fill="#FCD31A" />
        <path fill-rule="evenodd" clip-rule="evenodd"
            d="M209.778 182.971C208.862 182.971 208.119 183.717 208.119 184.638C208.119 185.559 208.862 186.305 209.778 186.305C210.695 186.305 211.438 185.559 211.438 184.638C211.438 183.717 210.695 182.971 209.778 182.971Z"
            fill="#FCD31A" />
        <path fill-rule="evenodd" clip-rule="evenodd"
            d="M218.679 173.725C218.679 172.804 217.936 172.058 217.02 172.058C216.103 172.058 215.36 172.804 215.36 173.725C215.36 174.646 216.103 175.392 217.02 175.392C217.936 175.392 218.679 174.646 218.679 173.725Z"
            fill="#FCD31A" />
        <path fill-rule="evenodd" clip-rule="evenodd"
            d="M209.778 204.797C208.862 204.797 208.119 205.543 208.119 206.464C208.119 207.385 208.862 208.131 209.778 208.131C210.695 208.131 211.438 207.385 211.438 206.464C211.438 205.543 210.695 204.797 209.778 204.797Z"
            fill="#FCD31A" />
        <path fill-rule="evenodd" clip-rule="evenodd"
            d="M218.679 195.551C218.679 194.63 217.936 193.884 217.02 193.884C216.103 193.884 215.36 194.63 215.36 195.551C215.36 196.472 216.103 197.218 217.02 197.218C217.936 197.218 218.679 196.472 218.679 195.551Z"
            fill="#FCD31A" />
        <path fill-rule="evenodd" clip-rule="evenodd"
            d="M218.679 217.377C218.679 216.456 217.936 215.71 217.02 215.71C216.103 215.71 215.36 216.456 215.36 217.377C215.36 218.298 216.103 219.044 217.02 219.044C217.936 219.044 218.679 218.298 218.679 217.377Z"
            fill="#FCD31A" />
        <path fill-rule="evenodd" clip-rule="evenodd"
            d="M215.36 239.203C215.36 240.124 216.103 240.871 217.02 240.871C217.936 240.871 218.679 240.124 218.679 239.203C218.679 238.283 217.936 237.536 217.02 237.536C216.103 237.536 215.36 238.283 215.36 239.203Z"
            fill="#FCD31A" />
        <path fill-rule="evenodd" clip-rule="evenodd"
            d="M224.26 229.958C225.176 229.958 225.919 229.211 225.919 228.29C225.919 227.369 225.176 226.623 224.26 226.623C223.343 226.623 222.601 227.369 222.601 228.29C222.601 229.211 223.343 229.958 224.26 229.958Z"
            fill="#FCD31A" />
        <path fill-rule="evenodd" clip-rule="evenodd"
            d="M215.36 261.029C215.36 261.949 216.103 262.696 217.02 262.696C217.936 262.696 218.679 261.949 218.679 261.029C218.679 260.108 217.936 259.361 217.02 259.361C216.103 259.361 215.36 260.108 215.36 261.029Z"
            fill="#FCD31A" />
        <path fill-rule="evenodd" clip-rule="evenodd"
            d="M224.26 251.784C225.176 251.784 225.919 251.037 225.919 250.116C225.919 249.196 225.176 248.449 224.26 248.449C223.343 248.449 222.601 249.196 222.601 250.116C222.601 251.037 223.343 251.784 224.26 251.784Z"
            fill="#FCD31A" />
        <path fill-rule="evenodd" clip-rule="evenodd"
            d="M195.298 161.145C194.382 161.145 193.639 161.891 193.639 162.812C193.639 163.733 194.382 164.479 195.298 164.479C196.214 164.479 196.957 163.733 196.957 162.812C196.957 161.891 196.214 161.145 195.298 161.145Z"
            fill="#FCD31A" />
        <path fill-rule="evenodd" clip-rule="evenodd"
            d="M195.298 182.971C194.382 182.971 193.639 183.717 193.639 184.638C193.639 185.559 194.382 186.305 195.298 186.305C196.214 186.305 196.957 185.559 196.957 184.638C196.957 183.717 196.214 182.971 195.298 182.971Z"
            fill="#FCD31A" />
        <path fill-rule="evenodd" clip-rule="evenodd"
            d="M204.198 173.725C204.198 172.804 203.455 172.058 202.538 172.058C201.622 172.058 200.879 172.804 200.879 173.725C200.879 174.646 201.622 175.392 202.538 175.392C203.455 175.392 204.198 174.646 204.198 173.725Z"
            fill="#FCD31A" />
        <path fill-rule="evenodd" clip-rule="evenodd"
            d="M195.298 204.797C194.382 204.797 193.639 205.543 193.639 206.464C193.639 207.385 194.382 208.131 195.298 208.131C196.214 208.131 196.957 207.385 196.957 206.464C196.957 205.543 196.214 204.797 195.298 204.797Z"
            fill="#FCD31A" />
        <path fill-rule="evenodd" clip-rule="evenodd"
            d="M204.198 195.551C204.198 194.63 203.455 193.884 202.538 193.884C201.622 193.884 200.879 194.63 200.879 195.551C200.879 196.472 201.622 197.218 202.538 197.218C203.455 197.218 204.198 196.472 204.198 195.551Z"
            fill="#FCD31A" />
        <path fill-rule="evenodd" clip-rule="evenodd"
            d="M204.198 217.377C204.198 216.456 203.455 215.71 202.538 215.71C201.622 215.71 200.879 216.456 200.879 217.377C200.879 218.298 201.622 219.044 202.538 219.044C203.455 219.044 204.198 218.298 204.198 217.377Z"
            fill="#FCD31A" />
        <path fill-rule="evenodd" clip-rule="evenodd"
            d="M200.879 239.203C200.879 240.124 201.622 240.871 202.538 240.871C203.455 240.871 204.198 240.124 204.198 239.203C204.198 238.283 203.455 237.536 202.538 237.536C201.622 237.536 200.879 238.283 200.879 239.203Z"
            fill="#FCD31A" />
        <path fill-rule="evenodd" clip-rule="evenodd"
            d="M209.778 229.958C210.695 229.958 211.438 229.211 211.438 228.29C211.438 227.369 210.695 226.623 209.778 226.623C208.862 226.623 208.119 227.369 208.119 228.29C208.119 229.211 208.862 229.958 209.778 229.958Z"
            fill="#FCD31A" />
        <path fill-rule="evenodd" clip-rule="evenodd"
            d="M200.879 261.029C200.879 261.949 201.622 262.696 202.538 262.696C203.455 262.696 204.198 261.949 204.198 261.029C204.198 260.108 203.455 259.361 202.538 259.361C201.622 259.361 200.879 260.108 200.879 261.029Z"
            fill="#FCD31A" />
        <path fill-rule="evenodd" clip-rule="evenodd"
            d="M209.778 251.784C210.695 251.784 211.438 251.037 211.438 250.116C211.438 249.196 210.695 248.449 209.778 248.449C208.862 248.449 208.119 249.196 208.119 250.116C208.119 251.037 208.862 251.784 209.778 251.784Z"
            fill="#FCD31A" />
        <path fill-rule="evenodd" clip-rule="evenodd"
            d="M180.817 161.145C179.9 161.145 179.157 161.891 179.157 162.812C179.157 163.733 179.9 164.479 180.817 164.479C181.733 164.479 182.476 163.733 182.476 162.812C182.476 161.891 181.733 161.145 180.817 161.145Z"
            fill="#FCD31A" />
        <path fill-rule="evenodd" clip-rule="evenodd"
            d="M180.817 182.971C179.9 182.971 179.157 183.717 179.157 184.638C179.157 185.559 179.9 186.305 180.817 186.305C181.733 186.305 182.476 185.559 182.476 184.638C182.476 183.717 181.733 182.971 180.817 182.971Z"
            fill="#FCD31A" />
        <path fill-rule="evenodd" clip-rule="evenodd"
            d="M189.716 173.725C189.716 172.804 188.973 172.058 188.057 172.058C187.14 172.058 186.397 172.804 186.397 173.725C186.397 174.646 187.14 175.392 188.057 175.392C188.973 175.392 189.716 174.646 189.716 173.725Z"
            fill="#FCD31A" />
        <path fill-rule="evenodd" clip-rule="evenodd"
            d="M180.817 204.797C179.9 204.797 179.157 205.543 179.157 206.464C179.157 207.385 179.9 208.131 180.817 208.131C181.733 208.131 182.476 207.385 182.476 206.464C182.476 205.543 181.733 204.797 180.817 204.797Z"
            fill="#FCD31A" />
        <path fill-rule="evenodd" clip-rule="evenodd"
            d="M189.716 195.551C189.716 194.63 188.973 193.884 188.057 193.884C187.14 193.884 186.397 194.63 186.397 195.551C186.397 196.472 187.14 197.218 188.057 197.218C188.973 197.218 189.716 196.472 189.716 195.551Z"
            fill="#FCD31A" />
        <path fill-rule="evenodd" clip-rule="evenodd"
            d="M189.716 217.377C189.716 216.456 188.973 215.71 188.057 215.71C187.14 215.71 186.397 216.456 186.397 217.377C186.397 218.298 187.14 219.044 188.057 219.044C188.973 219.044 189.716 218.298 189.716 217.377Z"
            fill="#FCD31A" />
        <path fill-rule="evenodd" clip-rule="evenodd"
            d="M186.397 239.203C186.397 240.124 187.14 240.871 188.057 240.871C188.973 240.871 189.716 240.124 189.716 239.203C189.716 238.283 188.973 237.536 188.057 237.536C187.14 237.536 186.397 238.283 186.397 239.203Z"
            fill="#FCD31A" />
        <path fill-rule="evenodd" clip-rule="evenodd"
            d="M195.298 229.958C196.214 229.958 196.957 229.211 196.957 228.29C196.957 227.369 196.214 226.623 195.298 226.623C194.382 226.623 193.639 227.369 193.639 228.29C193.639 229.211 194.382 229.958 195.298 229.958Z"
            fill="#FCD31A" />
        <path fill-rule="evenodd" clip-rule="evenodd"
            d="M186.397 261.029C186.397 261.949 187.14 262.696 188.057 262.696C188.973 262.696 189.716 261.949 189.716 261.029C189.716 260.108 188.973 259.361 188.057 259.361C187.14 259.361 186.397 260.108 186.397 261.029Z"
            fill="#FCD31A" />
        <path fill-rule="evenodd" clip-rule="evenodd"
            d="M195.298 251.784C196.214 251.784 196.957 251.037 196.957 250.116C196.957 249.196 196.214 248.449 195.298 248.449C194.382 248.449 193.639 249.196 193.639 250.116C193.639 251.037 194.382 251.784 195.298 251.784Z"
            fill="#FCD31A" />
        <path fill-rule="evenodd" clip-rule="evenodd"
            d="M175.235 173.725C175.235 172.804 174.492 172.058 173.575 172.058C172.659 172.058 171.916 172.804 171.916 173.725C171.916 174.646 172.659 175.392 173.575 175.392C174.492 175.392 175.235 174.646 175.235 173.725Z"
            fill="#FCD31A" />
        <path fill-rule="evenodd" clip-rule="evenodd"
            d="M175.235 195.551C175.235 194.63 174.492 193.884 173.575 193.884C172.659 193.884 171.916 194.63 171.916 195.551C171.916 196.472 172.659 197.218 173.575 197.218C174.492 197.218 175.235 196.472 175.235 195.551Z"
            fill="#FCD31A" />
        <path fill-rule="evenodd" clip-rule="evenodd"
            d="M175.235 217.377C175.235 216.456 174.492 215.71 173.575 215.71C172.659 215.71 171.916 216.456 171.916 217.377C171.916 218.298 172.659 219.044 173.575 219.044C174.492 219.044 175.235 218.298 175.235 217.377Z"
            fill="#FCD31A" />
        <path fill-rule="evenodd" clip-rule="evenodd"
            d="M171.916 239.203C171.916 240.124 172.659 240.871 173.575 240.871C174.492 240.871 175.235 240.124 175.235 239.203C175.235 238.283 174.492 237.536 173.575 237.536C172.659 237.536 171.916 238.283 171.916 239.203Z"
            fill="#FCD31A" />
        <path fill-rule="evenodd" clip-rule="evenodd"
            d="M180.817 229.958C181.733 229.958 182.476 229.211 182.476 228.29C182.476 227.369 181.733 226.623 180.817 226.623C179.9 226.623 179.157 227.369 179.157 228.29C179.157 229.211 179.9 229.958 180.817 229.958Z"
            fill="#FCD31A" />
        <path fill-rule="evenodd" clip-rule="evenodd"
            d="M171.916 261.029C171.916 261.949 172.659 262.696 173.575 262.696C174.492 262.696 175.235 261.949 175.235 261.029C175.235 260.108 174.492 259.361 173.575 259.361C172.659 259.361 171.916 260.108 171.916 261.029Z"
            fill="#FCD31A" />
        <path fill-rule="evenodd" clip-rule="evenodd"
            d="M180.817 251.784C181.733 251.784 182.476 251.037 182.476 250.116C182.476 249.196 181.733 248.449 180.817 248.449C179.9 248.449 179.157 249.196 179.157 250.116C179.157 251.037 179.9 251.784 180.817 251.784Z"
            fill="#FCD31A" />
    </g>
    <path
        d="M260.429 101.267C265.123 101.267 268.929 97.461 268.929 92.7666C268.929 88.0722 265.123 84.2666 260.429 84.2666C255.734 84.2666 251.929 88.0722 251.929 92.7666C251.929 97.461 255.734 101.267 260.429 101.267Z"
        fill="#FCD31A" />
    <path
        d="M173.929 242.267C229.157 242.267 273.929 197.495 273.929 142.267C273.929 87.0381 229.157 42.2666 173.929 42.2666C118.7 42.2666 73.9287 87.0381 73.9287 142.267C73.9287 197.495 118.7 242.267 173.929 242.267Z"
        fill="#4BD7BF" />
    <path
        d="M110.929 242.267C123.631 242.267 133.929 231.969 133.929 219.267C133.929 206.564 123.631 196.267 110.929 196.267C98.2262 196.267 87.9287 206.564 87.9287 219.267C87.9287 231.969 98.2262 242.267 110.929 242.267Z"
        fill="#0098B0" />
    <path
        d="M218.429 55.2666C227.541 55.2666 234.929 47.8793 234.929 38.7666C234.929 29.6539 227.541 22.2666 218.429 22.2666C209.316 22.2666 201.929 29.6539 201.929 38.7666C201.929 47.8793 209.316 55.2666 218.429 55.2666Z"
        fill="#21C4A8" />
    <path
        d="M236.929 209.267C241.347 209.267 244.929 205.685 244.929 201.267C244.929 196.848 241.347 193.267 236.929 193.267C232.51 193.267 228.929 196.848 228.929 201.267C228.929 205.685 232.51 209.267 236.929 209.267Z"
        fill="#2DA490" />
    <path
        d="M79.9287 61.2666C83.2424 61.2666 85.9287 58.5803 85.9287 55.2666C85.9287 51.9529 83.2424 49.2666 79.9287 49.2666C76.615 49.2666 73.9287 51.9529 73.9287 55.2666C73.9287 58.5803 76.615 61.2666 79.9287 61.2666Z"
        fill="#97E3D6" />
    <path
        d="M143.929 272.267C149.452 272.267 153.929 267.789 153.929 262.267C153.929 256.744 149.452 252.267 143.929 252.267C138.406 252.267 133.929 256.744 133.929 262.267C133.929 267.789 138.406 272.267 143.929 272.267Z"
        fill="#FCD31A" />
    <path d="M134.057 136.649L157.958 168.241L214.478 125.275L190.577 93.6825L134.057 136.649Z" fill="#85D2DE" />
    <path fill-rule="evenodd" clip-rule="evenodd"
        d="M157.958 168.241L134.057 136.649L190.576 93.6826L214.479 125.274L157.958 168.241ZM139.586 137.421L158.707 162.695L208.947 124.503L189.825 99.2295L139.586 137.421Z"
        fill="#2E7D89" />
    <path fill-rule="evenodd" clip-rule="evenodd"
        d="M160.061 91.1894L170.342 88.8153L172.747 99.2294L168.375 96.4589L160.676 108.962L151.077 103.865L144.687 114.238L140.739 111.736L149.403 97.6728L159.002 102.769L164.432 93.9599L160.061 91.1894Z"
        fill="#0098B0" />
    <path
        d="M193.937 121C195.673 119.684 196.007 117.203 194.684 115.459C193.361 113.715 190.882 113.368 189.147 114.684C187.412 116 187.077 118.481 188.4 120.225C189.723 121.97 192.202 122.317 193.937 121Z"
        fill="#2E7D89" />
    <path
        d="M181.45 140.439C186.654 136.492 187.657 129.051 183.689 123.819C179.721 118.586 172.285 117.544 167.081 121.49C161.877 125.437 160.875 132.878 164.843 138.11C168.811 143.343 176.246 144.385 181.45 140.439Z"
        fill="#2E7D89" />
    <path
        d="M143.96 141.564C146.128 139.919 146.546 136.819 144.892 134.639C143.239 132.459 140.141 132.024 137.973 133.668C135.805 135.313 135.387 138.413 137.04 140.593C138.694 142.773 141.792 143.208 143.96 141.564Z"
        fill="#2E7D89" />
    <path
        d="M192.633 104.568C194.801 102.923 195.219 99.823 193.565 97.6428C191.912 95.4626 188.814 95.0281 186.646 96.6723C184.477 98.3165 184.06 101.417 185.713 103.597C187.367 105.777 190.465 106.212 192.633 104.568Z"
        fill="#2E7D89" />
    <path
        d="M210.557 128.259C212.725 126.615 213.142 123.514 211.489 121.334C209.836 119.154 206.738 118.719 204.57 120.364C202.401 122.008 201.984 125.108 203.637 127.288C205.29 129.469 208.388 129.903 210.557 128.259Z"
        fill="#2E7D89" />
    <rect x="145.112" y="140.767" width="71.1219" height="39.6349" transform="rotate(-13 145.112 140.767)"
        fill="#B3E0D9" />
    <path fill-rule="evenodd" clip-rule="evenodd"
        d="M154.028 179.386L145.112 140.767L214.411 124.768L223.327 163.387L154.028 179.386ZM149.854 143.739L156.986 174.635L218.586 160.413L211.453 129.518L149.854 143.739Z"
        fill="#449083" />
    <path
        d="M163.937 160.827C166.063 160.336 167.388 158.209 166.895 156.076C166.403 153.944 164.28 152.612 162.154 153.103C160.027 153.594 158.703 155.721 159.195 157.854C159.688 159.987 161.811 161.318 163.937 160.827Z"
        fill="#449083" />
    <path
        d="M206.286 151.05C208.413 150.559 209.737 148.432 209.245 146.299C208.752 144.166 206.63 142.835 204.503 143.326C202.377 143.817 201.052 145.944 201.545 148.077C202.037 150.21 204.16 151.541 206.286 151.05Z"
        fill="#449083" />
    <path
        d="M186.895 163.662C193.273 162.19 197.247 155.809 195.77 149.41C194.292 143.011 187.924 139.018 181.545 140.491C175.166 141.963 171.193 148.344 172.67 154.743C174.147 161.142 180.516 165.135 186.895 163.662Z"
        fill="#449083" />
    <path
        d="M219.401 155.163C218.453 154.737 217.374 154.592 216.286 154.843C213.628 155.457 211.972 158.115 212.588 160.781C212.84 161.874 213.446 162.784 214.243 163.452L220.957 161.902L219.401 155.163Z"
        fill="#449083" />
    <path
        d="M156.611 168.618C155.523 168.869 154.617 169.475 153.951 170.271L155.507 177.01L162.222 175.46C162.645 174.51 162.79 173.427 162.538 172.334C161.922 169.667 159.269 168.004 156.611 168.618Z"
        fill="#449083" />
    <path
        d="M149.039 148.99C149.986 149.414 151.066 149.561 152.154 149.31C154.812 148.696 156.468 146.038 155.852 143.372C155.6 142.281 154.995 141.371 154.2 140.702L147.483 142.253L149.039 148.99Z"
        fill="#449083" />
    <path
        d="M211.828 135.534C212.916 135.283 213.822 134.677 214.488 133.88L212.932 127.143L206.216 128.694C205.795 129.643 205.649 130.726 205.901 131.817C206.517 134.484 209.17 136.147 211.828 135.534Z"
        fill="#449083" />
    <path
        d="M105.51 102.887C107.908 116.482 98.8266 129.451 85.2313 131.848C71.636 134.246 58.6671 125.165 56.2699 111.569C53.8727 97.9741 62.9536 85.0052 76.5489 82.608C90.1442 80.2108 103.113 89.2917 105.51 102.887Z"
        fill="#FCB61C" />
    <path
        d="M77.4169 87.5319C66.5224 89.4529 59.2727 99.8066 61.1937 110.701C63.1146 121.595 73.4683 128.845 84.3628 126.924C95.2572 125.003 102.507 114.65 100.586 103.755C98.665 92.8607 88.3113 85.6109 77.4169 87.5319Z"
        fill="#FFDF51" />
    <path
        d="M78.2853 92.456C78.6485 92.392 79.008 92.3578 79.3683 92.3209L79.177 89.7602L76.2607 90.2744L76.9604 92.7594C77.3941 92.6423 77.8335 92.5357 78.2853 92.456Z"
        fill="#FCB61C" />
    <path
        d="M70.6404 96.2794L68.9298 94.4385C68.2281 95.1093 67.5496 95.9118 66.9797 96.5594L69.0096 98.0876C69.5054 97.4442 70.0456 96.8362 70.6404 96.2794Z"
        fill="#FCB61C" />
    <path
        d="M74.7536 93.5546L73.7014 91.2727C72.8199 91.701 71.9386 92.1306 71.2135 92.6684L72.5994 94.7265C73.2769 94.2783 73.9995 93.892 74.7536 93.5546Z"
        fill="#FCB61C" />
    <path
        d="M67.6512 100.189L65.3639 99.0301C64.9736 99.9189 64.5832 100.808 64.1709 101.565L66.6714 102.428C66.9343 101.652 67.2689 100.908 67.6512 100.189Z"
        fill="#FCB61C" />
    <path
        d="M89.0062 94.6256L90.3123 92.4444C89.5332 91.8989 88.6432 91.5088 87.7544 91.1184L86.7766 93.4334C87.5551 93.767 88.2974 94.1692 89.0062 94.6256Z"
        fill="#FCB61C" />
    <path
        d="M66.0856 104.864L63.6008 104.536C63.4998 105.51 63.3975 106.485 63.4295 107.437L65.9048 107.374C65.8956 106.522 65.956 105.684 66.0856 104.864Z"
        fill="#FCB61C" />
    <path
        d="M92.6413 97.8952L94.5524 96.3448C93.9911 95.4867 93.3203 94.785 92.5645 94.3712L90.9408 96.1045C91.552 96.6555 92.1272 97.2471 92.6413 97.8952Z"
        fill="#FCB61C" />
    <path
        d="M94.9787 102.113L97.3456 101.32C97.049 100.415 96.6207 99.5336 96.0362 98.5439L93.9022 99.7871C94.3225 100.523 94.6839 101.298 94.9787 102.113Z"
        fill="#FCB61C" />
    <path
        d="M84.4037 92.6452L85.0022 90.2372C84.1368 89.9798 83.162 89.8788 82.1869 89.7766L81.9786 92.2808C82.8039 92.3396 83.6151 92.4555 84.4037 92.6452Z"
        fill="#FCB61C" />
    <path
        d="M92.7702 116.369L94.8002 117.897C95.3457 117.118 95.8688 116.205 96.2826 115.449L94.0915 114.339C93.7071 115.053 93.2626 115.728 92.7702 116.369Z"
        fill="#FCB61C" />
    <path
        d="M95.1262 111.98L97.4522 112.783C97.8426 111.895 98.0765 110.896 98.0224 109.812L95.7092 109.506C95.5803 110.352 95.3926 111.181 95.1262 111.98Z"
        fill="#FCB61C" />
    <path
        d="M89.1791 119.73L90.565 121.788C91.4231 121.227 92.1482 120.689 92.8499 120.018L91.1392 118.178C90.5326 118.747 89.8792 119.267 89.1791 119.73Z"
        fill="#FCB61C" />
    <path
        d="M95.6622 104.624C95.8072 105.446 95.8648 106.262 95.874 107.07L98.3725 107.153C98.3418 106.201 98.3113 105.251 98.1242 104.189L95.6622 104.624Z"
        fill="#FCB61C" />
    <path
        d="M84.6909 121.727L85.388 124.205C86.2927 123.909 87.1977 123.613 88.079 123.184L87.0267 120.902C86.2808 121.235 85.5027 121.516 84.6909 121.727Z"
        fill="#FCB61C" />
    <path
        d="M75.0034 121.023L74.0256 123.338C74.9144 123.728 75.7797 123.985 76.778 124.219L77.3764 121.811C76.56 121.615 75.7681 121.35 75.0034 121.023Z"
        fill="#FCB61C" />
    <path
        d="M67.7291 114.411L65.5662 115.671C66.1275 116.529 66.6888 117.387 67.2266 118.112L69.1023 116.512C68.5871 115.858 68.1327 115.153 67.7291 114.411Z"
        fill="#FCB61C" />
    <path
        d="M70.858 118.371L69.1051 120.243C69.9076 120.921 70.6881 121.468 71.4672 122.013L72.7733 119.832C72.0986 119.396 71.457 118.911 70.858 118.371Z"
        fill="#FCB61C" />
    <path
        d="M79.8351 122.179L79.6167 124.813C80.5684 124.783 81.5198 124.751 82.4714 124.72L82.292 122.155C82.2831 122.155 82.2731 122.155 82.264 122.154C81.4437 122.232 80.6343 122.234 79.8351 122.179Z"
        fill="#FCB61C" />
    <path
        d="M66.1183 109.833L63.6562 110.268C63.8199 111.196 64.1398 112.232 64.4117 113.004L66.7594 112.217C66.491 111.451 66.2641 110.661 66.1183 109.833Z"
        fill="#FCB61C" />
    <path
        d="M85.9512 110.017C86.559 113.464 83.3221 114.542 82.7066 114.651L83.0539 116.621L81.4536 116.903L81.1063 114.933C80.6139 115.02 76.7109 115.2 75.9729 111.015L78.9273 110.494C79.0141 110.987 79.3614 112.956 81.5773 112.565C83.4238 112.24 83.1633 110.763 83.1199 110.516C82.5555 107.316 76.393 109.799 75.5248 104.875C74.9822 101.797 77.5384 100.458 78.7694 100.241L78.4004 98.148L80.0008 97.8659L80.3698 99.9586C81.3763 99.908 84.2147 100.169 84.8659 103.862L82.0346 104.361C81.9043 103.623 81.376 102.066 79.7757 102.348C78.0522 102.652 78.3127 104.129 78.3561 104.375C79.0002 107.308 85.0613 104.97 85.9512 110.017Z"
        fill="#FCB61C" />
    <path
        d="M302.614 162.276C301.655 165.06 298.62 166.542 295.835 165.583L252.971 150.824C250.186 149.865 248.706 146.828 249.665 144.045L259.215 116.309C260.174 113.523 263.209 112.044 265.994 113.003L308.857 127.762C311.642 128.721 313.123 131.755 312.164 134.541L302.614 162.276Z"
        fill="#055E6C" />
    <rect x="258.78" y="117.57" width="56" height="8" transform="rotate(19 258.78 117.57)" fill="#90D4DF" />
</svg>