<svg xmlns="http://www.w3.org/2000/svg" width="81" height="81" viewBox="0 0 81 81" fill="none">
    <rect width="80.9556" height="80.9556" rx="21.9906" fill="#D4E0FF"></rect>
    <circle cx="52.8486" cy="29.1679" r="10.4579" fill="#2A5EE9"></circle>
    <path
        d="M31.0564 36.1343H26.14L24.0081 36.5693L22.877 39.3103L23.2685 46.228L25.1829 47.9683L25.6614 49.1865V50.4482V53.9288V57.714L26.7491 59.6718L29.2726 60.7595L32.0135 60.4985L32.3181 58.6276C32.4776 57.4239 32.7967 54.9643 32.7967 54.7555C32.7967 54.4944 32.4486 51.0573 32.3181 50.7528C32.2137 50.5091 32.5936 49.172 32.7967 48.5339L36.7123 48.7949L40.4975 50.4482L42.8469 52.3626L46.7626 54.2334C47.3427 54.6104 48.5638 55.4516 48.8074 55.7997C49.0511 56.1477 51.2874 57.2209 52.375 57.714V54.2334V49.5781C52.375 49.3692 52.8391 46.6196 53.0712 45.2708L55.9427 44.6617L57.3349 43.0519L57.9005 41.0506C57.5524 40.3835 56.8128 39.0145 56.6388 38.8752C56.4212 38.7012 55.203 38.3531 54.9855 38.3531C54.8115 38.3531 53.1727 38.4982 52.375 38.5707L51.94 36.5693C52.085 35.2786 52.375 32.645 52.375 32.4361V26.4756L49.46 27.9113L43.8911 31.5225L38.0611 34.655L31.0564 36.1343Z"
        fill="white" stroke="black" stroke-width="0.17403"></path>
    <path d="M26.1396 48.1421V57.5397C26.1396 59.2626 27.5493 60.6723 29.2722 60.6723H32.4047V48.1421" stroke="#0B2537"
        stroke-width="3" stroke-miterlimit="10" stroke-linecap="round" stroke-linejoin="round"></path>
    <path
        d="M52.7666 38.7441H54.3329C56.0558 38.7441 57.4654 40.1538 57.4654 41.8767C57.4654 43.5996 56.0558 45.0092 54.3329 45.0092H52.7666"
        stroke="#0B2537" stroke-width="3" stroke-miterlimit="10" stroke-linecap="round" stroke-linejoin="round"></path>
    <path
        d="M32.0226 48.1421C38.2877 48.1421 45.7361 53.3282 52.3841 57.5398H52.767V26.2144C46.119 30.4259 38.6705 35.612 32.4054 35.612H26.1404C24.4175 35.612 23.0078 37.0042 23.0078 38.7445V45.0096C23.0078 46.7499 24.4175 48.1421 26.1404 48.1421H32.4054"
        stroke="#0B2537" stroke-width="3" stroke-miterlimit="10" stroke-linecap="round" stroke-linejoin="round"></path>
</svg>