<svg xmlns="http://www.w3.org/2000/svg" width="76" height="76" viewBox="0 0 76 76">
    <g fill="none" fill-rule="evenodd">
        <rect width="76" height="76" fill="#d4e0ff" fill-rule="nonzero" rx="19" />
        <path fill="#2A5EE9" fill-rule="nonzero"
            d="M37.2209247,19.0037644 C37.1854286,19.0102752 37.1499333,19.0200402 37.1176639,19.0298061 C36.7336623,19.1176969 36.4626025,19.4660044 36.4722834,19.8631394 L36.4722834,23.1964727 C36.4690567,23.4959519 36.623948,23.7759002 36.8821002,23.9288944 C37.1402524,24.0786344 37.4564884,24.0786344 37.7146405,23.9288944 C37.9727927,23.7759002 38.127684,23.4959519 38.1244573,23.1964727 L38.1244573,19.8631394 C38.1341382,19.6222544 38.0373308,19.3911344 37.8663052,19.2283736 C37.6920529,19.0623586 37.4564884,18.9809777 37.2209247,19.0037644 Z M24.907066,24.1860561 C24.5972834,24.2413944 24.3488122,24.4692594 24.2616856,24.7719936 C24.174559,25.0779836 24.2649123,25.4035044 24.4940225,25.6183477 L26.7915769,27.9620977 C27.1207213,28.2941294 27.6499333,28.2941294 27.9790769,27.9620977 C28.3082213,27.6300669 28.3082213,27.0962127 27.9790769,26.7641811 L25.6557073,24.4464727 C25.4846817,24.2609261 25.2362105,24.1665252 24.9845117,24.1860561 C24.9586965,24.1860561 24.9328812,24.1860561 24.907066,24.1860561 Z M49.4315225,24.1860561 C49.2443626,24.2120977 49.0701095,24.3064986 48.9410334,24.4464727 L46.6176639,26.7641811 C46.2885202,27.0962127 46.2885202,27.6300669 46.6176639,27.9620977 C46.9468083,28.2941294 47.4760202,28.2941294 47.8051639,27.9620977 L50.1027182,25.6183477 C50.3608704,25.3709519 50.4350893,24.9835819 50.2834247,24.6580611 C50.1285334,24.3292852 49.7864822,24.1404836 49.4315225,24.1860561 Z M37.2983704,25.6964727 C30.9058774,25.6964727 25.733153,30.9145719 25.733153,37.3631394 C25.733153,41.4386602 27.5434449,44.1762902 29.2440225,46.1912644 C30.0959247,47.2003794 30.918785,48.0499886 31.4899465,48.7954311 C32.0611079,49.5408736 32.3418486,50.1398319 32.3418486,50.6964727 L32.3418486,54.8631394 C32.3418486,56.2791552 33.4164069,57.3631394 34.8201095,57.3631394 L35.4654899,57.3631394 C35.9140295,57.8676969 36.5497291,58.1964727 37.2983704,58.1964727 C38.0470117,58.1964727 38.6827112,57.8676969 39.1312508,57.3631394 L39.7766312,57.3631394 C41.1803339,57.3631394 42.2548921,56.2791552 42.2548921,54.8631394 L42.2548921,50.6964727 C42.2548921,50.1398319 42.5356328,49.5604052 43.1067943,48.8214727 C43.6779558,48.0825402 44.500816,47.2199102 45.3527182,46.2173061 C47.0565225,44.2088427 48.8635878,41.4777227 48.8635878,37.3631394 C48.8635878,30.9145719 43.6908634,25.6964727 37.2983704,25.6964727 Z M37.2983704,27.3631394 C42.8034659,27.3631394 47.2114139,31.8097544 47.2114139,37.3631394 C47.2114139,40.9992069 45.7141312,43.2615769 44.1135878,45.1495977 C43.313316,46.0936086 42.4840024,46.9171761 41.8160334,47.7798061 C41.3255443,48.4113169 40.9738122,49.1111861 40.7834247,49.8631394 L33.813316,49.8631394 C33.6229286,49.1079311 33.2711965,48.4178269 32.7807073,47.7798061 C32.1127384,46.9106652 31.2834247,46.0740769 30.483153,45.1235561 C28.8793828,43.2225144 27.3853269,40.9536344 27.3853269,37.3631394 C27.3853269,31.8097544 31.7932757,27.3631394 37.2983704,27.3631394 Z M19.7182073,36.5298061 C19.2632143,36.5949102 18.9437508,37.0213427 19.0082889,37.4803269 C19.0728269,37.9393111 19.4955513,38.2615769 19.9505443,38.1964727 L23.2548921,38.1964727 C23.5517671,38.1997277 23.8292811,38.0434777 23.9809449,37.7830611 C24.1293828,37.5226444 24.1293828,37.2036344 23.9809449,36.9432177 C23.8292811,36.6828011 23.5517671,36.5265511 23.2548921,36.5298061 L19.9505443,36.5298061 C19.9247291,36.5298061 19.8989139,36.5298061 19.8730986,36.5298061 C19.8472834,36.5298061 19.8214682,36.5298061 19.795653,36.5298061 C19.7698378,36.5298061 19.7440225,36.5298061 19.7182073,36.5298061 Z M51.1095117,36.5298061 C50.6545187,36.5949102 50.3350552,37.0213427 50.3995932,37.4803269 C50.4641312,37.9393111 50.8868556,38.2615769 51.3418486,38.1964727 L54.6461965,38.1964727 C54.9430715,38.1997277 55.2205855,38.0434777 55.3722492,37.7830611 C55.5206872,37.5226444 55.5206872,37.2036344 55.3722492,36.9432177 C55.2205855,36.6828011 54.9430715,36.5265511 54.6461965,36.5298061 L51.3418486,36.5298061 C51.3160334,36.5298061 51.2902182,36.5298061 51.264403,36.5298061 C51.2385878,36.5298061 51.2127725,36.5298061 51.1869573,36.5298061 C51.1611421,36.5298061 51.1353269,36.5298061 51.1095117,36.5298061 Z M47.1339682,46.5037644 C47.0984721,46.5102752 47.0629768,46.5200402 47.0307073,46.5298061 C46.7209247,46.5851444 46.4724535,46.8130094 46.3853269,47.1157436 C46.2982003,47.4217336 46.3885536,47.7472544 46.6176639,47.9620977 L48.9410334,50.2798061 C49.1411018,50.5272019 49.4605645,50.6411344 49.7703471,50.5695194 C50.076903,50.4979052 50.3189209,50.2537644 50.3899123,49.9445194 C50.4609045,49.6320194 50.3479628,49.3097544 50.1027182,49.1079311 L47.8051639,46.7641811 C47.6341382,46.5786344 47.385667,46.4842336 47.1339682,46.5037644 Z M27.282066,46.5298061 C27.0981328,46.5493377 26.9238797,46.6339727 26.7915769,46.7641811 L24.4940225,49.1079311 C24.248778,49.3097544 24.1358362,49.6320194 24.2068285,49.9445194 C24.2778199,50.2537644 24.5198378,50.4979052 24.8263937,50.5695194 C25.1361763,50.6411344 25.4556398,50.5272019 25.6557073,50.2798061 L27.9790769,47.9620977 C28.24691,47.7114469 28.3179014,47.3143111 28.1565567,46.9855352 C27.9984387,46.6535044 27.6402524,46.4712127 27.282066,46.5298061 Z M33.9940225,53.1964727 L34.8201095,53.1964727 C35.3170529,53.1964727 35.6461965,53.5285044 35.6461965,54.0298061 C35.6461965,54.5311086 35.3170529,54.8631394 34.8201095,54.8631394 L33.9940225,54.8631394 L33.9940225,53.1964727 Z M37.2983704,53.1964727 L40.6027182,53.1964727 L40.6027182,54.8631394 L37.2983704,54.8631394 C36.8014279,54.8631394 36.4722834,54.5311086 36.4722834,54.0298061 C36.4722834,53.5285044 36.8014279,53.1964727 37.2983704,53.1964727 Z" />
    </g>
</svg>