<svg width="649" height="106" viewBox="0 0 649 106" fill="none" xmlns="http://www.w3.org/2000/svg">
<g filter="url(#filter0_d)">
<path d="M123.312 38.446C126.42 38.446 129.158 39.112 131.526 40.444C133.943 41.7267 135.818 43.5767 137.15 45.994C138.482 48.4113 139.148 51.2233 139.148 54.43V59.684H112.73C112.829 63.68 113.766 66.7633 115.542 68.934C117.318 71.1047 119.957 72.19 123.46 72.19C126.568 72.19 128.862 71.2773 130.342 69.452C131.822 67.6267 132.562 65.456 132.562 62.94H139.148C139.148 65.9 138.457 68.49 137.076 70.71C135.744 72.93 133.869 74.6567 131.452 75.89C129.084 77.1233 126.371 77.74 123.312 77.74H123.016C117.688 77.74 113.47 76.038 110.362 72.634C107.303 69.1807 105.774 64.5927 105.774 58.87V57.39C105.774 53.6407 106.465 50.3353 107.846 47.474C109.227 44.6127 111.201 42.3927 113.766 40.814C116.331 39.2353 119.341 38.446 122.794 38.446H123.312ZM122.942 43.996C120.13 43.996 117.836 44.8593 116.06 46.586C114.333 48.3127 113.273 50.878 112.878 54.282H132.266V53.394C132.266 50.582 131.403 48.3127 129.676 46.586C127.999 44.8593 125.754 43.996 122.942 43.996ZM164.135 38.446C169.118 38.446 172.818 39.4327 175.235 41.406C177.702 43.3793 178.935 46.2407 178.935 49.99V69.6C178.935 70.488 179.132 71.154 179.527 71.598C179.922 71.9927 180.415 72.19 181.007 72.19C182.142 72.19 183.276 71.8447 184.411 71.154V76.26C182.734 77.2467 180.834 77.74 178.713 77.74C176.592 77.74 175.013 77.148 173.977 75.964C172.941 74.7307 172.374 73.0533 172.275 70.932C169.216 75.4707 164.801 77.74 159.029 77.74C154.885 77.74 151.777 76.852 149.705 75.076C147.682 73.2507 146.671 70.3893 146.671 66.492C146.671 63.4333 147.46 61.0407 149.039 59.314C150.618 57.538 153.232 56.2553 156.883 55.466C160.534 54.6767 165.566 54.282 171.979 54.282V50.804C171.979 48.288 171.239 46.5367 169.759 45.55C168.279 44.514 166.133 43.996 163.321 43.996C160.657 43.996 158.585 44.514 157.105 45.55C155.625 46.586 154.885 48.0413 154.885 49.916V50.804H148.077C147.978 50.1133 147.929 49.2993 147.929 48.362C147.929 46.6353 148.62 45.0073 150.001 43.478C151.382 41.9487 153.257 40.74 155.625 39.852C157.993 38.9147 160.608 38.446 163.469 38.446H164.135ZM171.979 59.684C166.799 59.684 162.877 59.9553 160.213 60.498C157.598 60.9913 155.847 61.756 154.959 62.792C154.071 63.828 153.627 65.2587 153.627 67.084C153.627 70.488 156.217 72.19 161.397 72.19C163.222 72.19 164.949 71.746 166.577 70.858C168.205 69.9207 169.512 68.6133 170.499 66.936C171.486 65.2587 171.979 63.3347 171.979 61.164V59.684ZM223.406 77H218.226C217.881 75.4213 217.56 73.6947 217.264 71.82C214.452 75.7667 210.555 77.74 205.572 77.74C200.836 77.74 197.087 75.9887 194.324 72.486C191.611 68.9833 190.254 64.1733 190.254 58.056V57.242C190.254 51.47 191.586 46.9067 194.25 43.552C196.964 40.148 200.738 38.446 205.572 38.446C210.259 38.446 213.885 40.296 216.45 43.996V23.72H223.406V77ZM206.83 43.996C203.525 43.996 201.083 45.1553 199.504 47.474C197.975 49.7433 197.21 53.2953 197.21 58.13C197.21 62.9647 198 66.5167 199.578 68.786C201.157 71.0553 203.574 72.19 206.83 72.19C213.293 72.19 216.524 67.5033 216.524 58.13C216.524 53.2953 215.71 49.7433 214.082 47.474C212.454 45.1553 210.037 43.996 206.83 43.996ZM250.121 38.446C252.933 38.446 255.424 38.89 257.595 39.778C259.815 40.666 261.517 41.8993 262.701 43.478C263.934 45.0567 264.551 46.808 264.551 48.732L264.477 50.064H257.595V49.398C257.595 45.7967 254.807 43.996 249.233 43.996C243.707 43.996 240.945 45.6487 240.945 48.954C240.945 50.4833 241.734 51.618 243.313 52.358C244.891 53.0487 247.309 53.7147 250.565 54.356C253.673 54.9973 256.213 55.6633 258.187 56.354C260.209 57.0447 261.911 58.13 263.293 59.61C264.723 61.09 265.439 63.088 265.439 65.604C265.439 69.6493 264.057 72.6833 261.295 74.706C258.532 76.7287 254.561 77.74 249.381 77.74H248.271C245.163 77.74 242.449 77.2713 240.131 76.334C237.812 75.3473 236.011 74.04 234.729 72.412C233.495 70.7347 232.903 68.86 232.953 66.788V65.16H239.835V65.9C239.835 70.0933 243.362 72.19 250.417 72.19C252.489 72.19 254.339 71.7213 255.967 70.784C257.644 69.8467 258.483 68.564 258.483 66.936C258.483 65.5547 258.014 64.4693 257.077 63.68C256.189 62.8907 255.079 62.2987 253.747 61.904C252.415 61.5093 250.565 61.1147 248.197 60.72C245.138 60.128 242.671 59.536 240.797 58.944C238.922 58.3027 237.319 57.242 235.987 55.762C234.655 54.282 233.989 52.2593 233.989 49.694C233.989 46.1913 235.37 43.4533 238.133 41.48C240.895 39.4573 244.669 38.446 249.455 38.446H250.121ZM290.316 38.446C295.595 38.446 299.813 40.074 302.97 43.33C306.127 46.586 307.706 51.0507 307.706 56.724V59.462C307.706 65.1353 306.152 69.6 303.044 72.856C299.936 76.112 295.693 77.74 290.316 77.74C284.939 77.74 280.696 76.112 277.588 72.856C274.48 69.6 272.926 65.1353 272.926 59.462V56.724C272.926 51.0507 274.505 46.586 277.662 43.33C280.819 40.074 285.037 38.446 290.316 38.446ZM290.316 43.996C287.011 43.996 284.445 45.1307 282.62 47.4C280.795 49.6693 279.882 52.9993 279.882 57.39V58.796C279.882 63.088 280.77 66.3933 282.546 68.712C284.371 71.0307 286.961 72.19 290.316 72.19C293.572 72.19 296.113 71.0553 297.938 68.786C299.813 66.4673 300.75 63.1373 300.75 58.796V57.39C300.75 53.098 299.837 49.7927 298.012 47.474C296.236 45.1553 293.671 43.996 290.316 43.996ZM335.546 38.446C340.332 38.446 344.081 40.1973 346.794 43.7C349.508 47.2027 350.864 52.0127 350.864 58.13V58.944C350.864 64.7653 349.508 69.3533 346.794 72.708C344.13 76.0627 340.381 77.74 335.546 77.74C330.909 77.74 327.283 75.89 324.668 72.19V90.394H317.712V39.186H322.892C323.238 40.7647 323.558 42.4913 323.854 44.366C326.666 40.4193 330.564 38.446 335.546 38.446ZM334.288 43.996C330.934 43.996 328.467 45.1553 326.888 47.474C325.359 49.7927 324.594 53.32 324.594 58.056C324.594 62.8907 325.384 66.4673 326.962 68.786C328.59 71.0553 331.032 72.19 334.288 72.19C337.544 72.19 339.962 71.0307 341.54 68.712C343.119 66.3933 343.908 62.8413 343.908 58.056C343.908 53.2213 343.094 49.6693 341.466 47.4C339.888 45.1307 337.495 43.996 334.288 43.996ZM376.025 38.446C379.133 38.446 381.871 39.112 384.239 40.444C386.656 41.7267 388.531 43.5767 389.863 45.994C391.195 48.4113 391.861 51.2233 391.861 54.43V59.684H365.443C365.542 63.68 366.479 66.7633 368.255 68.934C370.031 71.1047 372.67 72.19 376.173 72.19C379.281 72.19 381.575 71.2773 383.055 69.452C384.535 67.6267 385.275 65.456 385.275 62.94H391.861C391.861 65.9 391.17 68.49 389.789 70.71C388.457 72.93 386.582 74.6567 384.165 75.89C381.797 77.1233 379.084 77.74 376.025 77.74H375.729C370.401 77.74 366.183 76.038 363.075 72.634C360.016 69.1807 358.487 64.5927 358.487 58.87V57.39C358.487 53.6407 359.178 50.3353 360.559 47.474C361.94 44.6127 363.914 42.3927 366.479 40.814C369.044 39.2353 372.054 38.446 375.507 38.446H376.025ZM375.655 43.996C372.843 43.996 370.549 44.8593 368.773 46.586C367.046 48.3127 365.986 50.878 365.591 54.282H384.979V53.394C384.979 50.582 384.116 48.3127 382.389 46.586C380.712 44.8593 378.467 43.996 375.655 43.996ZM432.832 77H427.652C427.307 75.4213 426.986 73.6947 426.69 71.82C423.878 75.7667 419.981 77.74 414.998 77.74C410.262 77.74 406.513 75.9887 403.75 72.486C401.037 68.9833 399.68 64.1733 399.68 58.056V57.242C399.68 51.47 401.012 46.9067 403.676 43.552C406.389 40.148 410.163 38.446 414.998 38.446C419.685 38.446 423.311 40.296 425.876 43.996V23.72H432.832V77ZM416.256 43.996C412.951 43.996 410.509 45.1553 408.93 47.474C407.401 49.7433 406.636 53.2953 406.636 58.13C406.636 62.9647 407.425 66.5167 409.004 68.786C410.583 71.0553 413 72.19 416.256 72.19C422.719 72.19 425.95 67.5033 425.95 58.13C425.95 53.2953 425.136 49.7433 423.508 47.474C421.88 45.1553 419.463 43.996 416.256 43.996ZM452.221 23.72V30.158H444.969V23.72H452.221ZM452.073 39.186V77H445.117V39.186H452.073ZM479.213 38.446C484.196 38.446 487.896 39.4327 490.313 41.406C492.78 43.3793 494.013 46.2407 494.013 49.99V69.6C494.013 70.488 494.211 71.154 494.605 71.598C495 71.9927 495.493 72.19 496.085 72.19C497.22 72.19 498.355 71.8447 499.489 71.154V76.26C497.812 77.2467 495.913 77.74 493.791 77.74C491.67 77.74 490.091 77.148 489.055 75.964C488.019 74.7307 487.452 73.0533 487.353 70.932C484.295 75.4707 479.879 77.74 474.107 77.74C469.963 77.74 466.855 76.852 464.783 75.076C462.761 73.2507 461.749 70.3893 461.749 66.492C461.749 63.4333 462.539 61.0407 464.117 59.314C465.696 57.538 468.311 56.2553 471.961 55.466C475.612 54.6767 480.644 54.282 487.057 54.282V50.804C487.057 48.288 486.317 46.5367 484.837 45.55C483.357 44.514 481.211 43.996 478.399 43.996C475.735 43.996 473.663 44.514 472.183 45.55C470.703 46.586 469.963 48.0413 469.963 49.916V50.804H463.155C463.057 50.1133 463.007 49.2993 463.007 48.362C463.007 46.6353 463.698 45.0073 465.079 43.478C466.461 41.9487 468.335 40.74 470.703 39.852C473.071 38.9147 475.686 38.446 478.547 38.446H479.213ZM487.057 59.684C481.877 59.684 477.955 59.9553 475.291 60.498C472.677 60.9913 470.925 61.756 470.037 62.792C469.149 63.828 468.705 65.2587 468.705 67.084C468.705 70.488 471.295 72.19 476.475 72.19C478.301 72.19 480.027 71.746 481.655 70.858C483.283 69.9207 484.591 68.6133 485.577 66.936C486.564 65.2587 487.057 63.3347 487.057 61.164V59.684ZM522.426 38.446C525.436 38.446 528.124 39.112 530.492 40.444C532.91 41.7267 534.784 43.552 536.116 45.92C537.448 48.288 538.114 51.0013 538.114 54.06H531.232C531.232 51.0013 530.443 48.5593 528.864 46.734C527.335 44.9087 525.115 43.996 522.204 43.996C519.146 43.996 516.704 45.032 514.878 47.104C513.102 49.1267 512.214 51.914 512.214 55.466V59.462C512.214 63.754 513.102 66.9607 514.878 69.082C516.654 71.154 519.17 72.19 522.426 72.19C525.436 72.19 527.68 71.302 529.16 69.526C530.69 67.7007 531.454 65.2587 531.454 62.2H538.114C538.114 66.936 536.684 70.71 533.822 73.522C531.01 76.334 527.236 77.74 522.5 77.74H521.908C518.554 77.74 515.618 76.9753 513.102 75.446C510.586 73.8673 508.638 71.672 507.256 68.86C505.924 66.048 505.258 62.7673 505.258 59.018V57.242C505.258 53.4927 505.949 50.212 507.33 47.4C508.712 44.5387 510.66 42.3433 513.176 40.814C515.692 39.2353 518.578 38.446 521.834 38.446H522.426ZM562.974 38.446C568.253 38.446 572.471 40.074 575.628 43.33C578.786 46.586 580.364 51.0507 580.364 56.724V59.462C580.364 65.1353 578.81 69.6 575.702 72.856C572.594 76.112 568.352 77.74 562.974 77.74C557.597 77.74 553.354 76.112 550.246 72.856C547.138 69.6 545.584 65.1353 545.584 59.462V56.724C545.584 51.0507 547.163 46.586 550.32 43.33C553.478 40.074 557.696 38.446 562.974 38.446ZM562.974 43.996C559.669 43.996 557.104 45.1307 555.278 47.4C553.453 49.6693 552.54 52.9993 552.54 57.39V58.796C552.54 63.088 553.428 66.3933 555.204 68.712C557.03 71.0307 559.62 72.19 562.974 72.19C566.23 72.19 568.771 71.0553 570.596 68.786C572.471 66.4673 573.408 63.1373 573.408 58.796V57.39C573.408 53.098 572.496 49.7927 570.67 47.474C568.894 45.1553 566.329 43.996 562.974 43.996ZM630.257 38.446C634.154 38.446 637.188 39.5807 639.359 41.85C641.529 44.1193 642.615 47.3507 642.615 51.544V77H635.659V52.802C635.659 46.9313 633.389 43.996 628.851 43.996C627.272 43.996 625.792 44.4647 624.411 45.402C623.079 46.3393 621.993 47.622 621.155 49.25C620.365 50.8287 619.971 52.58 619.971 54.504V77H613.015V52.802C613.015 46.9313 610.745 43.996 606.207 43.996C604.628 43.996 603.148 44.4647 601.767 45.402C600.435 46.3393 599.349 47.622 598.511 49.25C597.721 50.8287 597.327 52.58 597.327 54.504V77H590.371V39.186H595.403L596.365 44.736C599.226 40.5427 603.197 38.446 608.279 38.446C613.261 38.446 616.715 40.5427 618.639 44.736C620.316 42.368 622.117 40.74 624.041 39.852C625.965 38.9147 628.037 38.446 630.257 38.446Z" fill="#0C49E8"/>
</g>
<g filter="url(#filter1_d)">
<g clip-path="url(#clip0)">
<rect width="100" height="100" rx="10" fill="white"/>
<rect width="100" height="100" fill="#0C49E8"/>
<g filter="url(#filter2_d)">
<rect x="-120" y="-110" width="208" height="204" rx="102" fill="#4D6DFE"/>
</g>
<g filter="url(#filter3_d)">
<path d="M44.06 25.236V69.414H67.37L68.406 76H36.808V25.236H44.06Z" fill="white"/>
</g>
<g filter="url(#filter4_d)">
<circle cx="54" cy="54" r="4" fill="#D72932"/>
</g>
</g>
</g>
<g filter="url(#filter5_d)">
<g filter="url(#filter6_d)">
<circle cx="502" cy="58" r="8" fill="white"/>
</g>
<circle cx="502" cy="58" r="5" fill="#0C49E8"/>
</g>
<defs>
<filter id="filter0_d" x="105.774" y="23.72" width="542.841" height="72.674" filterUnits="userSpaceOnUse" color-interpolation-filters="sRGB">
<feFlood flood-opacity="0" result="BackgroundImageFix"/>
<feColorMatrix in="SourceAlpha" type="matrix" values="0 0 0 0 0 0 0 0 0 0 0 0 0 0 0 0 0 0 127 0"/>
<feOffset dx="4" dy="4"/>
<feGaussianBlur stdDeviation="1"/>
<feColorMatrix type="matrix" values="0 0 0 0 0 0 0 0 0 0 0 0 0 0 0 0 0 0 0.15 0"/>
<feBlend mode="normal" in2="BackgroundImageFix" result="effect1_dropShadow"/>
<feBlend mode="normal" in="SourceGraphic" in2="effect1_dropShadow" result="shape"/>
</filter>
<filter id="filter1_d" x="0" y="0" width="106" height="106" filterUnits="userSpaceOnUse" color-interpolation-filters="sRGB">
<feFlood flood-opacity="0" result="BackgroundImageFix"/>
<feColorMatrix in="SourceAlpha" type="matrix" values="0 0 0 0 0 0 0 0 0 0 0 0 0 0 0 0 0 0 127 0"/>
<feOffset dx="4" dy="4"/>
<feGaussianBlur stdDeviation="1"/>
<feColorMatrix type="matrix" values="0 0 0 0 0 0 0 0 0 0 0 0 0 0 0 0 0 0 0.25 0"/>
<feBlend mode="normal" in2="BackgroundImageFix" result="effect1_dropShadow"/>
<feBlend mode="normal" in="SourceGraphic" in2="effect1_dropShadow" result="shape"/>
</filter>
<filter id="filter2_d" x="-124" y="-114" width="224" height="220" filterUnits="userSpaceOnUse" color-interpolation-filters="sRGB">
<feFlood flood-opacity="0" result="BackgroundImageFix"/>
<feColorMatrix in="SourceAlpha" type="matrix" values="0 0 0 0 0 0 0 0 0 0 0 0 0 0 0 0 0 0 127 0"/>
<feOffset dx="4" dy="4"/>
<feGaussianBlur stdDeviation="4"/>
<feColorMatrix type="matrix" values="0 0 0 0 0 0 0 0 0 0 0 0 0 0 0 0 0 0 0.1 0"/>
<feBlend mode="normal" in2="BackgroundImageFix" result="effect1_dropShadow"/>
<feBlend mode="normal" in="SourceGraphic" in2="effect1_dropShadow" result="shape"/>
</filter>
<filter id="filter3_d" x="36.808" y="25.236" width="34.598" height="53.764" filterUnits="userSpaceOnUse" color-interpolation-filters="sRGB">
<feFlood flood-opacity="0" result="BackgroundImageFix"/>
<feColorMatrix in="SourceAlpha" type="matrix" values="0 0 0 0 0 0 0 0 0 0 0 0 0 0 0 0 0 0 127 0"/>
<feOffset dx="2" dy="2"/>
<feGaussianBlur stdDeviation="0.5"/>
<feColorMatrix type="matrix" values="0 0 0 0 0 0 0 0 0 0 0 0 0 0 0 0 0 0 0.25 0"/>
<feBlend mode="normal" in2="BackgroundImageFix" result="effect1_dropShadow"/>
<feBlend mode="normal" in="SourceGraphic" in2="effect1_dropShadow" result="shape"/>
</filter>
<filter id="filter4_d" x="50" y="50" width="10" height="10" filterUnits="userSpaceOnUse" color-interpolation-filters="sRGB">
<feFlood flood-opacity="0" result="BackgroundImageFix"/>
<feColorMatrix in="SourceAlpha" type="matrix" values="0 0 0 0 0 0 0 0 0 0 0 0 0 0 0 0 0 0 127 0"/>
<feOffset dx="1" dy="1"/>
<feGaussianBlur stdDeviation="0.5"/>
<feColorMatrix type="matrix" values="0 0 0 0 0 0 0 0 0 0 0 0 0 0 0 0 0 0 0.25 0"/>
<feBlend mode="normal" in2="BackgroundImageFix" result="effect1_dropShadow"/>
<feBlend mode="normal" in="SourceGraphic" in2="effect1_dropShadow" result="shape"/>
</filter>
<filter id="filter5_d" x="494" y="50" width="22" height="22" filterUnits="userSpaceOnUse" color-interpolation-filters="sRGB">
<feFlood flood-opacity="0" result="BackgroundImageFix"/>
<feColorMatrix in="SourceAlpha" type="matrix" values="0 0 0 0 0 0 0 0 0 0 0 0 0 0 0 0 0 0 127 0"/>
<feOffset dx="4" dy="4"/>
<feGaussianBlur stdDeviation="1"/>
<feColorMatrix type="matrix" values="0 0 0 0 0 0 0 0 0 0 0 0 0 0 0 0 0 0 0.25 0"/>
<feBlend mode="normal" in2="BackgroundImageFix" result="effect1_dropShadow"/>
<feBlend mode="normal" in="SourceGraphic" in2="effect1_dropShadow" result="shape"/>
</filter>
<filter id="filter6_d" x="494" y="50" width="18" height="18" filterUnits="userSpaceOnUse" color-interpolation-filters="sRGB">
<feFlood flood-opacity="0" result="BackgroundImageFix"/>
<feColorMatrix in="SourceAlpha" type="matrix" values="0 0 0 0 0 0 0 0 0 0 0 0 0 0 0 0 0 0 127 0"/>
<feOffset dx="1" dy="1"/>
<feGaussianBlur stdDeviation="0.5"/>
<feColorMatrix type="matrix" values="0 0 0 0 0 0 0 0 0 0 0 0 0 0 0 0 0 0 0.25 0"/>
<feBlend mode="normal" in2="BackgroundImageFix" result="effect1_dropShadow"/>
<feBlend mode="normal" in="SourceGraphic" in2="effect1_dropShadow" result="shape"/>
</filter>
<clipPath id="clip0">
<rect width="100" height="100" rx="10" fill="white"/>
</clipPath>
</defs>
</svg>
