<svg width="587" height="90" viewBox="0 0 587 90" fill="none" xmlns="http://www.w3.org/2000/svg">
<g filter="url(#filter0_d)">
<path d="M14.06 19.236V63.414H37.37L38.406 70H6.808V19.236H14.06ZM60.9858 31.446C64.0938 31.446 66.8318 32.112 69.1998 33.444C71.6172 34.7267 73.4918 36.5767 74.8238 38.994C76.1558 41.4113 76.8218 44.2233 76.8218 47.43V52.684H50.4038C50.5025 56.68 51.4398 59.7633 53.2158 61.934C54.9918 64.1047 57.6312 65.19 61.1338 65.19C64.2418 65.19 66.5358 64.2773 68.0158 62.452C69.4958 60.6267 70.2358 58.456 70.2358 55.94H76.8218C76.8218 58.9 76.1312 61.49 74.7498 63.71C73.4178 65.93 71.5432 67.6567 69.1258 68.89C66.7578 70.1233 64.0445 70.74 60.9858 70.74H60.6898C55.3618 70.74 51.1438 69.038 48.0358 65.634C44.9772 62.1807 43.4478 57.5927 43.4478 51.87V50.39C43.4478 46.6407 44.1385 43.3353 45.5198 40.474C46.9012 37.6127 48.8745 35.3927 51.4398 33.814C54.0052 32.2353 57.0145 31.446 60.4678 31.446H60.9858ZM60.6158 36.996C57.8038 36.996 55.5098 37.8593 53.7338 39.586C52.0072 41.3127 50.9465 43.878 50.5518 47.282H69.9398V46.394C69.9398 43.582 69.0765 41.3127 67.3498 39.586C65.6725 37.8593 63.4278 36.996 60.6158 36.996ZM101.809 31.446C106.792 31.446 110.492 32.4327 112.909 34.406C115.376 36.3793 116.609 39.2407 116.609 42.99V62.6C116.609 63.488 116.806 64.154 117.201 64.598C117.596 64.9927 118.089 65.19 118.681 65.19C119.816 65.19 120.95 64.8447 122.085 64.154V69.26C120.408 70.2467 118.508 70.74 116.387 70.74C114.266 70.74 112.687 70.148 111.651 68.964C110.615 67.7307 110.048 66.0533 109.949 63.932C106.89 68.4707 102.475 70.74 96.703 70.74C92.559 70.74 89.451 69.852 87.379 68.076C85.3563 66.2507 84.345 63.3893 84.345 59.492C84.345 56.4333 85.1343 54.0407 86.713 52.314C88.2916 50.538 90.9063 49.2553 94.557 48.466C98.2076 47.6767 103.24 47.282 109.653 47.282V43.804C109.653 41.288 108.913 39.5367 107.433 38.55C105.953 37.514 103.807 36.996 100.995 36.996C98.331 36.996 96.259 37.514 94.779 38.55C93.299 39.586 92.559 41.0413 92.559 42.916V43.804H85.751C85.6523 43.1133 85.603 42.2993 85.603 41.362C85.603 39.6353 86.2936 38.0073 87.675 36.478C89.0563 34.9487 90.931 33.74 93.299 32.852C95.667 31.9147 98.2816 31.446 101.143 31.446H101.809ZM109.653 52.684C104.473 52.684 100.551 52.9553 97.887 53.498C95.2723 53.9913 93.521 54.756 92.633 55.792C91.745 56.828 91.301 58.2587 91.301 60.084C91.301 63.488 93.891 65.19 99.071 65.19C100.896 65.19 102.623 64.746 104.251 63.858C105.879 62.9207 107.186 61.6133 108.173 59.936C109.16 58.2587 109.653 56.3347 109.653 54.164V52.684ZM161.08 70H155.9C155.555 68.4213 155.234 66.6947 154.938 64.82C152.126 68.7667 148.229 70.74 143.246 70.74C138.51 70.74 134.761 68.9887 131.998 65.486C129.285 61.9833 127.928 57.1733 127.928 51.056V50.242C127.928 44.47 129.26 39.9067 131.924 36.552C134.637 33.148 138.411 31.446 143.246 31.446C147.933 31.446 151.559 33.296 154.124 36.996V16.72H161.08V70ZM144.504 36.996C141.199 36.996 138.757 38.1553 137.178 40.474C135.649 42.7433 134.884 46.2953 134.884 51.13C134.884 55.9647 135.673 59.5167 137.252 61.786C138.831 64.0553 141.248 65.19 144.504 65.19C150.967 65.19 154.198 60.5033 154.198 51.13C154.198 46.2953 153.384 42.7433 151.756 40.474C150.128 38.1553 147.711 36.996 144.504 36.996ZM187.795 31.446C190.607 31.446 193.098 31.89 195.269 32.778C197.489 33.666 199.191 34.8993 200.375 36.478C201.608 38.0567 202.225 39.808 202.225 41.732L202.151 43.064H195.269V42.398C195.269 38.7967 192.481 36.996 186.907 36.996C181.381 36.996 178.619 38.6487 178.619 41.954C178.619 43.4833 179.408 44.618 180.987 45.358C182.565 46.0487 184.983 46.7147 188.239 47.356C191.347 47.9973 193.887 48.6633 195.861 49.354C197.883 50.0447 199.585 51.13 200.967 52.61C202.397 54.09 203.113 56.088 203.113 58.604C203.113 62.6493 201.731 65.6833 198.969 67.706C196.206 69.7287 192.235 70.74 187.055 70.74H185.945C182.837 70.74 180.123 70.2713 177.805 69.334C175.486 68.3473 173.685 67.04 172.403 65.412C171.169 63.7347 170.577 61.86 170.627 59.788V58.16H177.509V58.9C177.509 63.0933 181.036 65.19 188.091 65.19C190.163 65.19 192.013 64.7213 193.641 63.784C195.318 62.8467 196.157 61.564 196.157 59.936C196.157 58.5547 195.688 57.4693 194.751 56.68C193.863 55.8907 192.753 55.2987 191.421 54.904C190.089 54.5093 188.239 54.1147 185.871 53.72C182.812 53.128 180.345 52.536 178.471 51.944C176.596 51.3027 174.993 50.242 173.661 48.762C172.329 47.282 171.663 45.2593 171.663 42.694C171.663 39.1913 173.044 36.4533 175.807 34.48C178.569 32.4573 182.343 31.446 187.129 31.446H187.795ZM227.99 31.446C233.269 31.446 237.487 33.074 240.644 36.33C243.801 39.586 245.38 44.0507 245.38 49.724V52.462C245.38 58.1353 243.826 62.6 240.718 65.856C237.61 69.112 233.367 70.74 227.99 70.74C222.613 70.74 218.37 69.112 215.262 65.856C212.154 62.6 210.6 58.1353 210.6 52.462V49.724C210.6 44.0507 212.179 39.586 215.336 36.33C218.493 33.074 222.711 31.446 227.99 31.446ZM227.99 36.996C224.685 36.996 222.119 38.1307 220.294 40.4C218.469 42.6693 217.556 45.9993 217.556 50.39V51.796C217.556 56.088 218.444 59.3933 220.22 61.712C222.045 64.0307 224.635 65.19 227.99 65.19C231.246 65.19 233.787 64.0553 235.612 61.786C237.487 59.4673 238.424 56.1373 238.424 51.796V50.39C238.424 46.098 237.511 42.7927 235.686 40.474C233.91 38.1553 231.345 36.996 227.99 36.996ZM273.22 31.446C278.005 31.446 281.755 33.1973 284.468 36.7C287.181 40.2027 288.538 45.0127 288.538 51.13V51.944C288.538 57.7653 287.181 62.3533 284.468 65.708C281.804 69.0627 278.055 70.74 273.22 70.74C268.583 70.74 264.957 68.89 262.342 65.19V83.394H255.386V32.186H260.566C260.911 33.7647 261.232 35.4913 261.528 37.366C264.34 33.4193 268.237 31.446 273.22 31.446ZM271.962 36.996C268.607 36.996 266.141 38.1553 264.562 40.474C263.033 42.7927 262.268 46.32 262.268 51.056C262.268 55.8907 263.057 59.4673 264.636 61.786C266.264 64.0553 268.706 65.19 271.962 65.19C275.218 65.19 277.635 64.0307 279.214 61.712C280.793 59.3933 281.582 55.8413 281.582 51.056C281.582 46.2213 280.768 42.6693 279.14 40.4C277.561 38.1307 275.169 36.996 271.962 36.996ZM313.699 31.446C316.807 31.446 319.545 32.112 321.913 33.444C324.33 34.7267 326.205 36.5767 327.537 38.994C328.869 41.4113 329.535 44.2233 329.535 47.43V52.684H303.117C303.215 56.68 304.153 59.7633 305.929 61.934C307.705 64.1047 310.344 65.19 313.847 65.19C316.955 65.19 319.249 64.2773 320.729 62.452C322.209 60.6267 322.949 58.456 322.949 55.94H329.535C329.535 58.9 328.844 61.49 327.463 63.71C326.131 65.93 324.256 67.6567 321.839 68.89C319.471 70.1233 316.757 70.74 313.699 70.74H313.403C308.075 70.74 303.857 69.038 300.749 65.634C297.69 62.1807 296.161 57.5927 296.161 51.87V50.39C296.161 46.6407 296.851 43.3353 298.233 40.474C299.614 37.6127 301.587 35.3927 304.153 33.814C306.718 32.2353 309.727 31.446 313.181 31.446H313.699ZM313.329 36.996C310.517 36.996 308.223 37.8593 306.447 39.586C304.72 41.3127 303.659 43.878 303.265 47.282H322.653V46.394C322.653 43.582 321.789 41.3127 320.063 39.586C318.385 37.8593 316.141 36.996 313.329 36.996ZM370.506 70H365.326C364.981 68.4213 364.66 66.6947 364.364 64.82C361.552 68.7667 357.655 70.74 352.672 70.74C347.936 70.74 344.187 68.9887 341.424 65.486C338.711 61.9833 337.354 57.1733 337.354 51.056V50.242C337.354 44.47 338.686 39.9067 341.35 36.552C344.063 33.148 347.837 31.446 352.672 31.446C357.359 31.446 360.985 33.296 363.55 36.996V16.72H370.506V70ZM353.93 36.996C350.625 36.996 348.183 38.1553 346.604 40.474C345.075 42.7433 344.31 46.2953 344.31 51.13C344.31 55.9647 345.099 59.5167 346.678 61.786C348.257 64.0553 350.674 65.19 353.93 65.19C360.393 65.19 363.624 60.5033 363.624 51.13C363.624 46.2953 362.81 42.7433 361.182 40.474C359.554 38.1553 357.137 36.996 353.93 36.996ZM389.894 16.72V23.158H382.642V16.72H389.894ZM389.746 32.186V70H382.79V32.186H389.746ZM416.887 31.446C421.87 31.446 425.57 32.4327 427.987 34.406C430.454 36.3793 431.687 39.2407 431.687 42.99V62.6C431.687 63.488 431.884 64.154 432.279 64.598C432.674 64.9927 433.167 65.19 433.759 65.19C434.894 65.19 436.028 64.8447 437.163 64.154V69.26C435.486 70.2467 433.586 70.74 431.465 70.74C429.344 70.74 427.765 70.148 426.729 68.964C425.693 67.7307 425.126 66.0533 425.027 63.932C421.968 68.4707 417.553 70.74 411.781 70.74C407.637 70.74 404.529 69.852 402.457 68.076C400.434 66.2507 399.423 63.3893 399.423 59.492C399.423 56.4333 400.212 54.0407 401.791 52.314C403.37 50.538 405.984 49.2553 409.635 48.466C413.286 47.6767 418.318 47.282 424.731 47.282V43.804C424.731 41.288 423.991 39.5367 422.511 38.55C421.031 37.514 418.885 36.996 416.073 36.996C413.409 36.996 411.337 37.514 409.857 38.55C408.377 39.586 407.637 41.0413 407.637 42.916V43.804H400.829C400.73 43.1133 400.681 42.2993 400.681 41.362C400.681 39.6353 401.372 38.0073 402.753 36.478C404.134 34.9487 406.009 33.74 408.377 32.852C410.745 31.9147 413.36 31.446 416.221 31.446H416.887ZM424.731 52.684C419.551 52.684 415.629 52.9553 412.965 53.498C410.35 53.9913 408.599 54.756 407.711 55.792C406.823 56.828 406.379 58.2587 406.379 60.084C406.379 63.488 408.969 65.19 414.149 65.19C415.974 65.19 417.701 64.746 419.329 63.858C420.957 62.9207 422.264 61.6133 423.251 59.936C424.238 58.2587 424.731 56.3347 424.731 54.164V52.684ZM460.1 31.446C463.11 31.446 465.798 32.112 468.166 33.444C470.584 34.7267 472.458 36.552 473.79 38.92C475.122 41.288 475.788 44.0013 475.788 47.06H468.906C468.906 44.0013 468.117 41.5593 466.538 39.734C465.009 37.9087 462.789 36.996 459.878 36.996C456.82 36.996 454.378 38.032 452.552 40.104C450.776 42.1267 449.888 44.914 449.888 48.466V52.462C449.888 56.754 450.776 59.9607 452.552 62.082C454.328 64.154 456.844 65.19 460.1 65.19C463.11 65.19 465.354 64.302 466.834 62.526C468.364 60.7007 469.128 58.2587 469.128 55.2H475.788C475.788 59.936 474.358 63.71 471.496 66.522C468.684 69.334 464.91 70.74 460.174 70.74H459.582C456.228 70.74 453.292 69.9753 450.776 68.446C448.26 66.8673 446.312 64.672 444.93 61.86C443.598 59.048 442.932 55.7673 442.932 52.018V50.242C442.932 46.4927 443.623 43.212 445.004 40.4C446.386 37.5387 448.334 35.3433 450.85 33.814C453.366 32.2353 456.252 31.446 459.508 31.446H460.1ZM500.648 31.446C505.927 31.446 510.145 33.074 513.302 36.33C516.459 39.586 518.038 44.0507 518.038 49.724V52.462C518.038 58.1353 516.484 62.6 513.376 65.856C510.268 69.112 506.025 70.74 500.648 70.74C495.271 70.74 491.028 69.112 487.92 65.856C484.812 62.6 483.258 58.1353 483.258 52.462V49.724C483.258 44.0507 484.837 39.586 487.994 36.33C491.151 33.074 495.369 31.446 500.648 31.446ZM500.648 36.996C497.343 36.996 494.777 38.1307 492.952 40.4C491.127 42.6693 490.214 45.9993 490.214 50.39V51.796C490.214 56.088 491.102 59.3933 492.878 61.712C494.703 64.0307 497.293 65.19 500.648 65.19C503.904 65.19 506.445 64.0553 508.27 61.786C510.145 59.4673 511.082 56.1373 511.082 51.796V50.39C511.082 46.098 510.169 42.7927 508.344 40.474C506.568 38.1553 504.003 36.996 500.648 36.996ZM567.93 31.446C571.828 31.446 574.862 32.5807 577.032 34.85C579.203 37.1193 580.288 40.3507 580.288 44.544V70H573.332V45.802C573.332 39.9313 571.063 36.996 566.524 36.996C564.946 36.996 563.466 37.4647 562.084 38.402C560.752 39.3393 559.667 40.622 558.828 42.25C558.039 43.8287 557.644 45.58 557.644 47.504V70H550.688V45.802C550.688 39.9313 548.419 36.996 543.88 36.996C542.302 36.996 540.822 37.4647 539.44 38.402C538.108 39.3393 537.023 40.622 536.184 42.25C535.395 43.8287 535 45.58 535 47.504V70H528.044V32.186H533.076L534.038 37.736C536.9 33.5427 540.871 31.446 545.952 31.446C550.935 31.446 554.388 33.5427 556.312 37.736C557.99 35.368 559.79 33.74 561.714 32.852C563.638 31.9147 565.71 31.446 567.93 31.446Z" fill="#0C49E8"/>
</g>
<g filter="url(#filter1_d)">
<g filter="url(#filter2_d)">
<circle cx="437" cy="52" r="8" fill="white"/>
</g>
<circle cx="437" cy="52" r="5" fill="#D72932"/>
</g>
<defs>
<filter id="filter0_d" x="6.808" y="16.72" width="579.48" height="72.674" filterUnits="userSpaceOnUse" color-interpolation-filters="sRGB">
<feFlood flood-opacity="0" result="BackgroundImageFix"/>
<feColorMatrix in="SourceAlpha" type="matrix" values="0 0 0 0 0 0 0 0 0 0 0 0 0 0 0 0 0 0 127 0"/>
<feOffset dx="4" dy="4"/>
<feGaussianBlur stdDeviation="1"/>
<feColorMatrix type="matrix" values="0 0 0 0 0 0 0 0 0 0 0 0 0 0 0 0 0 0 0.15 0"/>
<feBlend mode="normal" in2="BackgroundImageFix" result="effect1_dropShadow"/>
<feBlend mode="normal" in="SourceGraphic" in2="effect1_dropShadow" result="shape"/>
</filter>
<filter id="filter1_d" x="429" y="44" width="22" height="22" filterUnits="userSpaceOnUse" color-interpolation-filters="sRGB">
<feFlood flood-opacity="0" result="BackgroundImageFix"/>
<feColorMatrix in="SourceAlpha" type="matrix" values="0 0 0 0 0 0 0 0 0 0 0 0 0 0 0 0 0 0 127 0"/>
<feOffset dx="4" dy="4"/>
<feGaussianBlur stdDeviation="1"/>
<feColorMatrix type="matrix" values="0 0 0 0 0 0 0 0 0 0 0 0 0 0 0 0 0 0 0.25 0"/>
<feBlend mode="normal" in2="BackgroundImageFix" result="effect1_dropShadow"/>
<feBlend mode="normal" in="SourceGraphic" in2="effect1_dropShadow" result="shape"/>
</filter>
<filter id="filter2_d" x="429" y="44" width="18" height="18" filterUnits="userSpaceOnUse" color-interpolation-filters="sRGB">
<feFlood flood-opacity="0" result="BackgroundImageFix"/>
<feColorMatrix in="SourceAlpha" type="matrix" values="0 0 0 0 0 0 0 0 0 0 0 0 0 0 0 0 0 0 127 0"/>
<feOffset dx="1" dy="1"/>
<feGaussianBlur stdDeviation="0.5"/>
<feColorMatrix type="matrix" values="0 0 0 0 0 0 0 0 0 0 0 0 0 0 0 0 0 0 0.25 0"/>
<feBlend mode="normal" in2="BackgroundImageFix" result="effect1_dropShadow"/>
<feBlend mode="normal" in="SourceGraphic" in2="effect1_dropShadow" result="shape"/>
</filter>
</defs>
</svg>
