<?xml version="1.0" standalone="no"?>
<!DOCTYPE svg PUBLIC "-//W3C//DTD SVG 20010904//EN"
 "http://www.w3.org/TR/2001/REC-SVG-20010904/DTD/svg10.dtd">
<svg version="1.0" xmlns="http://www.w3.org/2000/svg"
 width="587.000000pt" height="90.000000pt" viewBox="0 0 587.000000 90.000000"
 preserveAspectRatio="xMidYMid meet">

<g transform="translate(0.000000,90.000000) scale(0.100000,-0.100000)"
fill="#000000" stroke="none">
<path d="M300 520 l0 -280 165 0 165 0 0 50 0 49 -102 3 -103 3 -3 228 -2 227
-60 0 -60 0 0 -280z"/>
<path d="M3563 730 c-12 -5 -24 -18 -28 -29 -22 -71 70 -106 105 -41 13 24 0
54 -30 70 -21 11 -18 11 -47 0z"/>
<path d="M1580 650 c0 -77 -1 -80 -19 -70 -30 15 -89 12 -123 -7 -60 -36 -88
-146 -59 -235 25 -77 101 -108 167 -69 33 20 38 21 46 7 6 -10 23 -16 48 -16
l40 0 0 235 0 235 -50 0 -50 0 0 -80z m-12 -142 c16 -16 16 -152 0 -166 -27
-21 -55 -22 -78 -4 -20 16 -23 28 -23 80 0 46 4 67 18 82 20 22 64 27 83 8z"/>
<path d="M3350 650 c0 -77 -1 -80 -19 -70 -30 15 -89 12 -123 -7 -60 -36 -88
-146 -59 -235 25 -77 101 -108 167 -69 33 20 38 21 46 7 6 -10 23 -16 48 -16
l40 0 0 235 0 235 -50 0 -50 0 0 -80z m-12 -142 c16 -16 16 -152 0 -166 -27
-21 -55 -22 -78 -4 -20 16 -23 28 -23 80 0 46 4 67 18 82 20 22 64 27 83 8z"/>
<path d="M740 568 c-78 -54 -101 -144 -58 -228 47 -92 182 -118 265 -52 22 17
22 17 2 41 -19 23 -20 23 -59 7 -55 -22 -77 -20 -105 9 -47 46 -36 54 78 57
l102 3 3 35 c9 113 -133 192 -228 128z m118 -54 c12 -8 22 -24 22 -35 0 -17
-7 -19 -60 -19 -68 0 -78 14 -34 49 32 25 43 26 72 5z"/>
<path d="M1105 580 c-16 -6 -39 -17 -49 -25 -18 -14 -18 -15 -2 -40 10 -15 23
-25 29 -22 98 36 119 34 125 -16 3 -23 -1 -27 -35 -32 -53 -9 -119 -33 -133
-50 -6 -7 -13 -29 -17 -47 -12 -76 80 -121 162 -79 34 18 40 19 48 6 5 -9 22
-15 42 -15 l35 0 0 110 c0 118 -11 160 -49 194 -25 22 -109 31 -156 16z m105
-219 c0 -22 -6 -31 -29 -41 -33 -13 -71 0 -71 25 0 20 40 45 72 45 24 0 28 -4
28 -29z"/>
<path d="M1794 571 c-38 -23 -59 -76 -45 -112 13 -34 39 -55 96 -76 37 -14 50
-24 50 -38 0 -26 -36 -31 -88 -14 -36 12 -41 11 -53 -6 -20 -27 -17 -40 11
-53 83 -38 186 -17 211 44 29 68 9 104 -77 138 -39 16 -55 28 -57 44 -3 19 1
22 35 22 21 0 45 -5 53 -10 10 -6 20 -4 32 7 27 24 22 42 -17 59 -48 20 -114
18 -151 -5z"/>
<path d="M2125 576 c-68 -30 -103 -103 -92 -188 7 -54 33 -88 87 -115 56 -29
105 -29 160 0 56 29 81 77 81 152 0 62 -20 106 -63 138 -35 26 -130 33 -173
13z m117 -73 c22 -26 30 -80 18 -124 -17 -61 -63 -77 -105 -34 -38 37 -32 140
9 167 20 14 63 8 78 -9z"/>
<path d="M2430 370 l0 -220 45 0 45 0 0 61 c0 54 2 60 18 54 68 -27 137 -7
173 51 46 75 31 207 -28 254 -34 27 -102 27 -136 0 -30 -24 -37 -25 -37 -6 0
16 -21 26 -56 26 l-24 0 0 -220z m194 128 c10 -14 16 -44 16 -76 0 -43 -5 -57
-26 -78 -19 -20 -31 -24 -52 -19 -37 9 -42 20 -42 97 0 58 3 69 22 82 32 22
64 20 82 -6z"/>
<path d="M2874 576 c-67 -30 -105 -114 -85 -192 16 -64 43 -99 91 -118 63 -25
144 -16 189 22 20 17 20 17 2 41 -18 24 -19 24 -60 8 -56 -23 -78 -21 -106 8
-47 46 -36 54 78 57 l102 3 3 40 c7 107 -108 177 -214 131z m103 -61 c11 -8
23 -24 26 -35 5 -19 1 -20 -59 -20 -71 0 -77 8 -39 45 28 29 42 31 72 10z"/>
<path d="M3540 425 l0 -165 45 0 45 0 0 165 0 165 -45 0 -45 0 0 -165z"/>
<path d="M3774 571 c-53 -24 -58 -33 -33 -59 23 -26 26 -26 59 -7 48 28 100 9
100 -35 0 -15 -10 -20 -47 -26 -97 -14 -143 -46 -143 -100 0 -46 9 -63 41 -79
39 -20 77 -19 122 5 32 18 38 18 43 5 4 -9 19 -15 40 -15 l34 0 0 120 c0 135
-10 169 -60 195 -39 20 -106 19 -156 -4z m124 -208 c-6 -54 -98 -70 -98 -17 0
27 26 42 73 43 25 1 28 -2 25 -26z"/>
<path d="M4470 568 c-59 -30 -85 -76 -85 -148 0 -66 25 -114 76 -148 45 -31
129 -28 178 7 l33 24 -25 25 c-24 23 -26 24 -48 8 -55 -38 -108 -8 -116 66
-10 89 33 132 108 108 38 -13 43 -12 55 5 19 26 18 32 -10 50 -42 28 -115 29
-166 3z"/>
<path d="M4805 578 c-72 -25 -111 -93 -103 -180 5 -52 27 -89 72 -122 42 -32
149 -30 195 3 61 44 82 153 43 229 -33 66 -128 98 -207 70z m95 -68 c40 -21
47 -132 12 -172 -15 -18 -58 -24 -78 -10 -21 14 -34 51 -34 97 0 71 49 112
100 85z"/>
<path d="M5213 570 c-27 -16 -33 -17 -33 -5 0 11 -11 15 -40 15 l-40 0 0 -165
0 -165 45 0 45 0 0 118 c0 103 3 121 18 135 23 21 46 22 66 1 13 -12 16 -40
16 -135 l0 -119 45 0 45 0 0 113 c0 120 12 157 50 157 42 0 50 -25 50 -151 l0
-119 45 0 45 0 0 135 c0 133 0 135 -28 166 -40 44 -103 51 -154 15 l-38 -25
-24 24 c-30 30 -69 32 -113 5z"/>
<path d="M4143 530 c-34 -21 -63 -66 -63 -100 0 -54 65 -120 118 -120 57 0
122 64 122 120 0 56 -65 120 -122 120 -13 0 -37 -9 -55 -20z"/>
</g>
</svg>
