<svg xmlns="http://www.w3.org/2000/svg" width="76" height="76" viewBox="0 0 76 76">
    <g fill="none" fill-rule="evenodd">
        <rect width="76" height="76" fill="#d4e0ff" fill-rule="nonzero" rx="19" />
        <path fill="#2A5EE9" fill-rule="nonzero"
            d="M26.625,18 C26.3330078,18 26.0568846,18.15 25.9140625,18.4 C25.7680668,18.65 25.7871094,18.9531248 25.9394531,19.2 L32.0332031,29.25 L37.0605469,21.025 L35.4355469,18.4 C35.2895512,18.1593752 35.0356449,18 34.75,18 L26.625,18 Z M41.25,18 C40.9643559,18 40.7104496,18.1593752 40.5644531,18.4 L38,22.6 L34.4707031,28.4 L34.4453125,28.4 L32.3125,31.6 L32.3125,33.7 C27.9897465,35.7812504 25,40.15 25,45.2 C25,52.2562504 30.8334965,58 38,58 C45.1665043,58 51,52.2562504 51,45.2 C51,40.15 48.0102543,35.7812504 43.6875,33.7 L43.6875,30.55 C43.6938481,30.3468752 43.6208498,30.15 43.484375,30 L50.0605469,19.2 C50.2128906,18.9531248 50.231934,18.65 50.0859375,18.4 C49.9399418,18.15 49.6669922,18 49.375,18 L41.25,18 Z M33.9375,31.6 L42.0625,31.6 L42.0625,33.05 C40.7834471,32.6343752 39.421875,32.4 38,32.4 C36.578125,32.4 35.2165529,32.6343752 33.9375,33.05 L33.9375,31.6 Z M38,35.6 C43.3764652,35.6 47.75,39.9062504 47.75,45.2 C47.75,50.4937504 43.3764652,54.8 38,54.8 C32.6235356,54.8 28.25,50.4937504 28.25,45.2 C28.25,39.9062504 32.6235356,35.6 38,35.6 Z M38,37.2 C33.5185547,37.2 29.875,40.7875 29.875,45.2 C29.875,49.6125 33.5185547,53.2 38,53.2 C42.4814453,53.2 46.125,49.6125 46.125,45.2 C46.125,40.7875 42.4814453,37.2 38,37.2 Z M35.5625,41.2 L40.4375,41.2 L40.4375,42.8 L38.8125,42.8 L38.8125,48.4 L40.4375,48.4 L40.4375,50 L35.5625,50 L35.5625,48.4 L37.1875,48.4 L37.1875,42.8 L35.5625,42.8 L35.5625,41.2 Z" />
    </g>
</svg>