<svg xmlns="http://www.w3.org/2000/svg" width="81" height="81" viewBox="0 0 81 81" fill="none">
    <rect width="80.9556" height="80.9556" rx="21.9906" fill="#d4e0ff"></rect>
    <circle cx="53.5033" cy="26.6012" r="10.4579" fill="#2A5EE9"></circle>
    <circle cx="43.6764" cy="28.0803" r="4.5844" fill="white"></circle>
    <circle cx="53.5033" cy="47.3628" r="4.5844" fill="white"></circle>
    <circle cx="21.579" cy="28.0803" r="4.5844" fill="white"></circle>
    <circle cx="21.579" cy="57.2822" r="4.5844" fill="white"></circle>
    <circle cx="46.0036" cy="60.2278" r="4.5844" fill="white"></circle>
    <circle cx="37.7596" cy="44.154" r="7.79327" fill="white"></circle>
    <path
        d="M31.5646 49.0447L25.0579 54.1818M45.3827 44.1541C45.3827 48.3663 41.9718 51.7772 37.7596 51.7772C33.5491 51.7772 30.1365 48.3663 30.1365 44.1541C30.1365 39.9462 33.5491 36.531 37.7596 36.531C41.9718 36.531 45.3827 39.9462 45.3827 44.1541ZM53.8527 43.3071C52.7295 43.3071 51.6523 43.7533 50.8581 44.5475C50.0639 45.3417 49.6177 46.4189 49.6177 47.5421C49.6177 48.6653 50.0639 49.7425 50.8581 50.5368C51.6523 51.331 52.7295 51.7772 53.8527 51.7772C54.9759 51.7772 56.0531 51.331 56.8474 50.5368C57.6416 49.7425 58.0878 48.6653 58.0878 47.5421C58.0878 46.4189 57.6416 45.3417 56.8474 44.5475C56.0531 43.7533 54.9759 43.3071 53.8527 43.3071V43.3071ZM43.6886 23.8259C42.5654 23.8259 41.4882 24.2721 40.694 25.0663C39.8998 25.8606 39.4536 26.9378 39.4536 28.061C39.4536 29.1842 39.8998 30.2614 40.694 31.0556C41.4882 31.8498 42.5654 32.296 43.6886 32.296C44.8118 32.296 45.889 31.8498 46.6833 31.0556C47.4775 30.2614 47.9237 29.1842 47.9237 28.061C47.9237 26.9378 47.4775 25.8606 46.6833 25.0663C45.889 24.2721 44.8118 23.8259 43.6886 23.8259V23.8259ZM21.6664 23.8259C20.5432 23.8259 19.466 24.2721 18.6718 25.0663C17.8776 25.8606 17.4314 26.9378 17.4314 28.061C17.4314 29.1842 17.8776 30.2614 18.6718 31.0556C19.466 31.8498 20.5432 32.296 21.6664 32.296C22.7896 32.296 23.8668 31.8498 24.6611 31.0556C25.4553 30.2614 25.9015 29.1842 25.9015 28.061C25.9015 26.9378 25.4553 25.8606 24.6611 25.0663C23.8668 24.2721 22.7896 23.8259 21.6664 23.8259V23.8259ZM21.6664 52.6242C20.5432 52.6242 19.466 53.0704 18.6718 53.8646C17.8776 54.6588 17.4314 55.736 17.4314 56.8592C17.4314 57.9824 17.8776 59.0596 18.6718 59.8539C19.466 60.6481 20.5432 61.0943 21.6664 61.0943C22.7896 61.0943 23.8668 60.6481 24.6611 59.8539C25.4553 59.0596 25.9015 57.9824 25.9015 56.8592C25.9015 55.736 25.4553 54.6588 24.6611 53.8646C23.8668 53.0704 22.7896 52.6242 21.6664 52.6242V52.6242ZM46.2297 56.0122C45.1065 56.0122 44.0293 56.4584 43.235 57.2526C42.4408 58.0469 41.9946 59.1241 41.9946 60.2473C41.9946 61.3705 42.4408 62.4477 43.235 63.2419C44.0293 64.0361 45.1065 64.4823 46.2297 64.4823C47.3529 64.4823 48.4301 64.0361 49.2243 63.2419C50.0185 62.4477 50.4647 61.3705 50.4647 60.2473C50.4647 59.1241 50.0185 58.0469 49.2243 57.2526C48.4301 56.4584 47.3529 56.0122 46.2297 56.0122ZM40.4302 36.9054L42.2064 32.0843L40.4302 36.9054ZM45.453 45.7736L49.2653 46.5766L45.453 45.7736ZM41.378 51.0293L44.2146 56.4179L41.378 51.0293ZM32.3616 38.7561L24.7707 31.1652L32.3616 38.7561Z"
        stroke="#0B2537" stroke-width="2.35259" stroke-linecap="round"></path>
</svg>