<svg xmlns="http://www.w3.org/2000/svg" width="81" height="81" viewBox="0 0 81 81" fill="none">
    <rect width="80.9556" height="80.9556" rx="21.9906" fill="#d4e0ff"></rect>
    <circle cx="51.8422" cy="29.256" r="10.4579" fill="#2A5EE9"></circle>
    <circle cx="38.2538" cy="42.559" r="19.5985" fill="white"></circle>
    <path
        d="M38.2537 62.1575C48.9426 62.1575 57.6077 53.4924 57.6077 42.8035C57.6077 32.1146 48.9426 23.4495 38.2537 23.4495C27.5648 23.4495 18.8997 32.1146 18.8997 42.8035C18.8997 53.4924 27.5648 62.1575 38.2537 62.1575Z"
        stroke="#0B2537" stroke-width="3" stroke-miterlimit="10" stroke-linecap="square"></path>
    <path
        d="M38.2539 44.563C42.1408 44.563 45.2917 41.4121 45.2917 37.5252C45.2917 33.6383 42.1408 30.4874 38.2539 30.4874C34.367 30.4874 31.2161 33.6383 31.2161 37.5252C31.2161 41.4121 34.367 44.563 38.2539 44.563Z"
        stroke="#0B2537" stroke-width="3" stroke-miterlimit="10" stroke-linecap="square"></path>
    <path
        d="M50.5534 57.745C50.225 48.6451 44.8481 44.5608 38.2536 44.5608C31.6568 44.5608 26.2823 48.6451 25.9539 57.745"
        stroke="#0B2537" stroke-width="3" stroke-miterlimit="10"></path>
</svg>