<svg xmlns="http://www.w3.org/2000/svg" width="81" height="81" viewBox="0 0 81 81" fill="none">
    <rect width="80.9556" height="80.9556" rx="21.9906" fill="#d4e0ff"></rect>
    <circle cx="50.8969" cy="30.3053" r="10.4579" fill="#2A5EE9"></circle>
    <circle r="12.5769" transform="matrix(-1 0 0 1 34.7774 40.0736)" fill="white" stroke="#0B2537"
        stroke-width="0.967135"></circle>
    <path
        d="M20.5621 34.1507L20.5621 34.1507C21.3353 32.3215 22.4433 30.6787 23.8534 29.2686C25.2636 27.8584 26.9079 26.7505 28.7369 25.9758L28.7371 25.9757C30.632 25.1749 32.6448 24.7685 34.7164 24.7685C36.7879 24.7685 38.8022 25.1749 40.6957 25.9757C42.5249 26.749 44.1677 27.857 45.5778 29.2671C46.9879 30.6772 48.0975 32.3215 48.8707 34.1507L48.8707 34.1507C49.6715 36.0457 50.0779 38.0585 50.0779 40.13C50.0779 42.2015 49.6715 44.2159 48.8707 46.1094L48.6749 46.0266L48.8707 46.1094C48.2751 47.5176 47.4822 48.815 46.5055 49.9815L55.5328 59.0103C56.0679 59.5454 56.0679 60.4129 55.5328 60.948C55.2664 61.2144 54.9155 61.3497 54.5648 61.3497C54.2148 61.3497 53.8634 61.2164 53.5963 60.9476C53.5962 60.9475 53.5961 60.9475 53.5961 60.9474L44.5693 51.9207C43.4029 52.8974 42.1056 53.6902 40.6988 54.2858L40.6987 54.2859C38.8037 55.0866 36.7909 55.4931 34.7194 55.4931C32.6479 55.4931 30.6336 55.0866 28.74 54.2858C26.9109 53.5126 25.268 52.4046 23.858 50.9945C22.4478 49.5844 21.3398 47.9415 20.5666 46.1124L20.5666 46.1123C19.7658 44.2174 19.3593 42.2046 19.3593 40.133C19.3593 38.0619 19.7611 36.0461 20.5621 34.1507ZM34.7164 52.7535C41.6757 52.7535 47.3384 47.0909 47.3384 40.1315C47.3384 33.1721 41.6772 27.508 34.7164 27.508C27.757 27.508 22.0944 33.1707 22.0944 40.13C22.0944 47.0894 27.7571 52.7535 34.7164 52.7535Z"
        fill="#0B2537" stroke="#0B2537" stroke-width="0.483567"></path>
</svg>