<svg xmlns="http://www.w3.org/2000/svg" width="54" height="54" viewBox="0 0 54 54" fill="none">
    <rect width="54" height="54" rx="15.4286" fill="#d4e0ff"></rect>
    <circle cx="40.2461" cy="19" r="8" fill="#2A5EE9"></circle>
    <circle cx="29.1065" cy="24.8086" r="9.58644" fill="white"></circle>
    <path
        d="M39.3772 20.5304C38.8186 19.209 38.0182 18.0223 36.9993 17.0033C35.9803 15.9844 34.7925 15.184 33.471 14.6243C32.1022 14.0458 30.6483 13.7522 29.1513 13.7522C27.6544 13.7522 26.1994 14.0458 24.8316 14.6243C23.5102 15.1829 22.3234 15.9833 21.3045 17.0022C20.2855 18.0211 19.4841 19.209 18.9255 20.5304C18.347 21.8993 18.0534 23.3532 18.0534 24.8501C18.0534 26.3471 18.347 27.8021 18.9255 29.1699C19.377 30.2374 19.9853 31.2166 20.7393 32.0909L13.9975 38.8338C13.674 39.1573 13.674 39.6816 13.9975 40.0051C14.1587 40.1663 14.3706 40.248 14.5826 40.248C14.7945 40.248 15.0065 40.1674 15.1677 40.0051L21.9094 33.2633C22.7838 34.0173 23.763 34.6256 24.8294 35.0771C26.1983 35.6556 27.6522 35.9492 29.1491 35.9492C30.6461 35.9492 32.1011 35.6556 33.4688 35.0771C34.7903 34.5185 35.977 33.7181 36.9959 32.6992C38.0149 31.6803 38.8152 30.4935 39.3738 29.1721C39.9523 27.8032 40.246 26.3493 40.246 24.8524C40.246 23.3554 39.9556 21.8993 39.3772 20.5304ZM29.1513 34.2933C23.9451 34.2933 19.7093 30.0575 19.7093 24.8513C19.7093 19.6451 23.944 15.4081 29.1513 15.4081C34.3575 15.4081 38.5934 19.6439 38.5934 24.8501C38.5934 30.0563 34.3575 34.2933 29.1513 34.2933Z"
        fill="#0B2537"></path>
</svg>