<svg xmlns="http://www.w3.org/2000/svg" width="65" height="51" viewBox="0 0 65 51" fill="none">
    <circle cx="38.958" cy="25.1064" r="25.1064" fill="#d4e0ff"></circle>
    <path
        d="M33.0514 15.7271C27.6009 15.7271 23.2972 20.1462 23.2972 25.5968C23.2972 31.0473 27.7737 35.4665 33.2242 35.4665C33.2787 35.4665 33.361 35.4591 33.4155 35.4582C31.2604 37.1743 28.5537 38.2084 25.5909 38.2084C24.2278 38.2084 23.1309 39.3137 23.1309 40.6758C23.1309 42.038 24.0079 43.1433 25.371 43.1433C35.0457 43.1423 42.6901 35.2715 42.6901 25.5968C42.6901 25.5949 42.6901 25.5931 42.6901 25.5903C42.6901 20.1426 38.5001 15.7271 33.0514 15.7271Z"
        fill="#2A5EE9"></path>
    <path
        d="M9.93442 15.7271C4.48389 15.7271 0.172813 20.1462 0.172813 25.5968C0.172813 31.0473 4.64561 35.4665 10.0971 35.4665C10.1516 35.4665 10.232 35.4591 10.2865 35.4582C8.13144 37.1743 5.42373 38.2084 2.46096 38.2084C1.09787 38.2084 0 39.3137 0 40.6758C0 42.038 0.890863 43.1433 2.25396 43.1433C11.9287 43.1423 19.587 35.2715 19.587 25.5968C19.587 25.5949 19.587 25.5931 19.587 25.5903C19.587 20.1426 15.3831 15.7271 9.93442 15.7271Z"
        fill="#2A5EE9"></path>
</svg>