<svg xmlns="http://www.w3.org/2000/svg" width="81" height="81" viewBox="0 0 81 81" fill="none">
    <rect width="80.9556" height="80.9556" rx="21.9906" fill="#d4e0ff"></rect>
    <circle cx="52.3908" cy="28.997" r="10.4579" fill="#2A5EE9"></circle>
    <circle cx="37.5767" cy="42.9464" r="18.7788" fill="white"></circle>
    <path
        d="M37.577 35.0779C33.2396 35.0779 29.7085 38.6089 29.7085 42.9464C29.7085 47.2839 33.2396 50.815 37.577 50.815C41.9145 50.815 45.4456 47.2839 45.4456 42.9464C45.4456 42.1932 45.3363 41.4664 45.1357 40.7776C44.9005 39.97 43.9202 39.8417 43.3764 40.387C43.0622 40.702 42.9741 41.157 43.0778 41.5632C43.191 42.0061 43.2527 42.4682 43.2527 42.9464C43.2527 46.0755 40.7061 48.6221 37.577 48.6221C34.448 48.6221 31.9014 46.0755 31.9014 42.9464C31.9014 39.8174 34.448 37.2708 37.577 37.2708C39.0207 37.2708 40.3395 37.8117 41.3407 38.7019C41.7983 39.1087 42.5421 39.1613 42.995 38.6774C43.3686 38.2783 43.3984 37.6361 42.9787 37.2381C41.5711 35.9033 39.6699 35.0779 37.577 35.0779Z"
        fill="#091D30" stroke="#091D30" stroke-width="0.5"></path>
    <path
        d="M52.8134 34.3322C54.2629 36.8793 55.1034 39.813 55.1034 42.9464C55.1034 52.6094 47.2398 60.473 37.5768 60.473C27.9138 60.473 20.0502 52.6094 20.0502 42.9464C20.0502 33.2834 27.9138 25.4198 37.5768 25.4198C42.1665 25.4198 46.3476 27.199 49.4737 30.0986C49.9224 30.5149 50.6361 30.5167 51.0659 30.0588C51.4675 29.6309 51.4669 28.9516 51.0282 28.5418C47.5019 25.2474 42.7701 23.2266 37.5768 23.2266C26.702 23.2266 17.8569 32.0716 17.8569 42.9464C17.8569 53.8212 26.702 62.6663 37.5768 62.6663C48.4516 62.6663 57.2966 53.8212 57.2966 42.9464C57.2966 39.3898 56.3476 36.0535 54.6912 33.1699C54.3308 32.5425 53.4853 32.4645 52.9878 32.9618L53.1645 33.1387L52.9877 32.9619C52.6215 33.3284 52.5626 33.8916 52.8134 34.3322Z"
        fill="#091D30" stroke="#091D30" stroke-width="0.5"></path>
    <path
        d="M37.5767 29.1522C29.972 29.1522 23.7825 35.3418 23.7825 42.9464C23.7825 50.5511 29.972 56.7406 37.5767 56.7406C45.1813 56.7406 51.3709 50.5511 51.3709 42.9464C51.3709 40.4558 50.7059 38.1168 49.5455 36.0978C49.1873 35.4746 48.3522 35.4118 47.864 35.9C47.4921 36.2719 47.4404 36.842 47.6903 37.2852C48.6342 38.9598 49.178 40.8881 49.178 42.9464C49.178 49.3423 43.9726 54.5477 37.5767 54.5477C31.1808 54.5477 25.9757 49.3423 25.9757 42.9464C25.9757 36.5505 31.1808 31.3455 37.5767 31.3455C40.6003 31.3455 43.3486 32.515 45.416 34.4163C45.8664 34.8304 46.5863 34.8435 47.0207 34.3793C47.4133 33.9597 47.4211 33.2919 46.988 32.8863C44.522 30.5767 41.2169 29.1522 37.5767 29.1522Z"
        fill="#091D30" stroke="#091D30" stroke-width="0.5"></path>
    <path
        d="M39.2696 42.9464C39.2696 43.8823 38.5126 44.6393 37.5767 44.6393C36.6411 44.6393 35.8838 43.8823 35.8838 42.9464C35.8838 42.0108 36.6411 41.2535 37.5767 41.2535C38.5126 41.2535 39.2696 42.0108 39.2696 42.9464Z"
        fill="#091D30"></path>
    <path d="M37.5769 42.9465L51.3558 29.1676Z" fill="#091D30"></path>
    <path d="M37.5769 42.9465L51.3558 29.1676" stroke="#091D30" stroke-width="2"></path>
    <path
        d="M52.814 25.0474C52.814 24.7802 52.4908 24.6463 52.3018 24.8353L48.5815 28.5556V31.9417H51.9677L55.688 28.2214C55.877 28.0325 55.7431 27.7093 55.4758 27.7093H52.814V25.0474Z"
        fill="#091D30"></path>
</svg>