<svg xmlns="http://www.w3.org/2000/svg" width="54" height="54" viewBox="0 0 54 54" fill="none">
    <rect width="54" height="54" rx="15.4286" fill="#d4e0ff"></rect>
    <circle cx="38.5498" cy="18.6958" r="8" fill="#2A5EE9"></circle>
    <circle cx="26.4498" cy="28.0001" r="14.4676" fill="white"></circle>
    <path
        d="M26.4506 22.0306C23.16 22.0306 20.4811 24.7096 20.4811 28.0001C20.4811 31.2907 23.16 33.9696 26.4506 33.9696C29.7411 33.9696 32.4201 31.2907 32.4201 28.0001C32.4201 27.4288 32.3372 26.8776 32.185 26.3551C32.0271 25.813 31.3627 25.714 30.984 26.0937C30.7683 26.3099 30.7051 26.6255 30.7782 26.9115C30.8672 27.2599 30.9158 27.6237 30.9158 28.0001C30.9158 30.462 28.9124 32.4654 26.4506 32.4654C23.9887 32.4654 21.9853 30.462 21.9853 28.0001C21.9853 25.5383 23.9887 23.5349 26.4506 23.5349C27.5863 23.5349 28.6241 23.9606 29.4117 24.6608C29.7339 24.9472 30.2487 24.9774 30.5571 24.6479C30.8142 24.3732 30.8306 23.9371 30.5484 23.6695C29.4803 22.6566 28.0381 22.0306 26.4506 22.0306Z"
        fill="#091D30" stroke="#091D30" stroke-width="0.2"></path>
    <path
        d="M38.2693 21.3176C39.3936 23.2932 40.0457 25.5691 40.0457 28C40.0457 35.4957 33.9459 41.5955 26.4502 41.5955C18.9545 41.5955 12.8547 35.4957 12.8547 28C12.8547 20.5043 18.9545 14.4045 26.4502 14.4045C30.0106 14.4045 33.2541 15.7848 35.6788 18.0339C35.9894 18.322 36.4807 18.3212 36.775 18.0077C37.0511 17.7136 37.049 17.2491 36.7502 16.97C34.0499 14.4472 30.4268 12.9 26.4502 12.9C18.1232 12.9 11.3502 19.673 11.3502 28C11.3502 36.327 18.1232 43.1 26.4502 43.1C34.7772 43.1 41.5502 36.327 41.5502 28C41.5502 25.2766 40.8235 22.7221 39.5552 20.5141C39.3097 20.0868 38.7315 20.0305 38.3886 20.3732L38.4593 20.4439L38.3886 20.3732C38.1374 20.6246 38.0957 21.0126 38.2693 21.3176Z"
        fill="#091D30" stroke="#091D30" stroke-width="0.2"></path>
    <path
        d="M26.4499 17.4652C20.6423 17.4652 15.9151 22.1923 15.9151 27.9999C15.9151 33.8076 20.6423 38.5347 26.4499 38.5347C32.2575 38.5347 36.9846 33.8076 36.9846 27.9999C36.9846 26.0978 36.4768 24.3117 35.5906 22.7698C35.3476 22.347 34.7777 22.2999 34.4409 22.6367C34.186 22.8916 34.1486 23.2849 34.3223 23.593C35.057 24.8964 35.4804 26.3976 35.4804 27.9999C35.4804 32.9786 31.4286 37.0304 26.4499 37.0304C21.4712 37.0304 17.4196 32.9786 17.4196 27.9999C17.4196 23.0213 21.4712 18.9697 26.4499 18.9697C28.8038 18.9697 30.9432 19.8803 32.5522 21.36C32.865 21.6477 33.3612 21.6537 33.6582 21.3363C33.9281 21.0479 33.9311 20.5922 33.6373 20.317C31.7537 18.5529 29.2297 17.4652 26.4499 17.4652Z"
        fill="#091D30" stroke="#091D30" stroke-width="0.2"></path>
    <path
        d="M27.7545 28C27.7545 28.7211 27.1713 29.3043 26.4502 29.3043C25.7294 29.3043 25.146 28.7211 25.146 28C25.146 27.2792 25.7294 26.6958 26.4502 26.6958C27.1713 26.6958 27.7545 27.2792 27.7545 28Z"
        fill="#091D30"></path>
    <path d="M26.4507 28.0001L37.0662 17.3845Z" fill="#091D30"></path>
    <path d="M26.4507 28.0001L37.0662 17.3845" stroke="#091D30" stroke-width="1.4"></path>
    <path
        d="M38.1895 14.317C38.1895 14.0718 37.8929 13.9489 37.7194 14.1224L34.9287 16.9131V19.5218H37.5375L40.3282 16.7311C40.5016 16.5577 40.3788 16.2611 40.1335 16.2611H38.1895V14.317Z"
        fill="#091D30"></path>
</svg>