<svg width="517" height="38" viewBox="0 0 517 38" fill="none" xmlns="http://www.w3.org/2000/svg">
<path d="M485.072 4.12487C486.815 2.30915 489.241 1.183 491.924 1.183C495.491 1.183 498.603 3.1719 500.26 6.12448C501.7 5.48105 503.294 5.1231 504.972 5.1231C511.405 5.1231 516.62 10.3841 516.62 16.8734C516.62 23.3635 511.405 28.6245 504.972 28.6245C504.201 28.6249 503.432 28.5484 502.677 28.3959C501.218 30.999 498.437 32.7578 495.245 32.7578C493.909 32.7578 492.645 32.4492 491.519 31.9004C490.04 35.3802 486.593 37.8201 482.576 37.8201C478.393 37.8201 474.828 35.1731 473.459 31.4608C472.861 31.5878 472.241 31.654 471.606 31.654C466.625 31.6541 462.587 27.5747 462.587 22.5416C462.587 19.1687 464.401 16.2238 467.097 14.6482C466.542 13.3713 466.233 11.962 466.233 10.4802C466.233 4.69208 470.932 0 476.728 0C480.131 0 483.155 1.61792 485.072 4.12487Z" fill="#00A1E0"/>
<path d="M470.414 19.6126C470.38 19.7011 470.426 19.7196 470.437 19.735C470.538 19.8089 470.641 19.862 470.745 19.9213C471.296 20.2137 471.817 20.2991 472.361 20.2991C473.469 20.2991 474.157 19.7096 474.157 18.7605V18.7421C474.157 17.8645 473.381 17.5459 472.652 17.3158L472.557 17.285C472.008 17.1064 471.534 16.9525 471.534 16.5907V16.5715C471.534 16.2621 471.811 16.0342 472.24 16.0342C472.717 16.0342 473.284 16.1928 473.649 16.3945C473.649 16.3945 473.756 16.4637 473.795 16.3598C473.816 16.3044 474.001 15.8072 474.02 15.7533C474.041 15.6948 474.004 15.6517 473.967 15.6286C473.55 15.3753 472.974 15.2021 472.379 15.2021L472.268 15.2029C471.253 15.2029 470.545 15.8156 470.545 16.6938V16.7123C470.545 17.6382 471.327 17.9384 472.059 18.1478L472.176 18.184C472.71 18.3479 473.169 18.4888 473.169 18.8644V18.8829C473.169 19.2262 472.871 19.4817 472.389 19.4817C472.202 19.4817 471.605 19.4779 470.961 19.0706C470.883 19.0252 470.838 18.9922 470.778 18.956C470.746 18.936 470.667 18.9013 470.632 19.006L470.414 19.6126ZM486.64 19.6126C486.606 19.7011 486.652 19.7196 486.663 19.735C486.764 19.8089 486.868 19.862 486.971 19.9213C487.522 20.2137 488.043 20.2991 488.587 20.2991C489.695 20.2991 490.384 19.7096 490.384 18.7605V18.7421C490.384 17.8645 489.607 17.5459 488.878 17.3158L488.783 17.285C488.234 17.1064 487.76 16.9525 487.76 16.5907V16.5715C487.76 16.2621 488.037 16.0342 488.466 16.0342C488.943 16.0342 489.51 16.1928 489.875 16.3945C489.875 16.3945 489.982 16.4637 490.021 16.3598C490.042 16.3044 490.227 15.8072 490.246 15.7533C490.267 15.6948 490.23 15.6517 490.193 15.6286C489.776 15.3753 489.2 15.2021 488.605 15.2021L488.494 15.2029C487.479 15.2029 486.771 15.8156 486.771 16.6938V16.7123C486.771 17.6382 487.553 17.9384 488.285 18.1478L488.402 18.184C488.936 18.3479 489.396 18.4888 489.396 18.8644V18.8829C489.396 19.2262 489.097 19.4817 488.615 19.4817C488.428 19.4817 487.831 19.4779 487.187 19.0706C487.109 19.0252 487.063 18.9937 487.005 18.956C486.985 18.9429 486.891 18.9067 486.858 19.006L486.64 19.6126ZM497.717 17.7536C497.717 18.2901 497.617 18.7126 497.42 19.0113C497.225 19.3069 496.93 19.4508 496.519 19.4508C496.107 19.4508 495.814 19.3077 495.623 19.0113C495.428 18.7134 495.33 18.2901 495.33 17.7536C495.33 17.2179 495.428 16.7961 495.623 16.5005C495.814 16.2081 496.107 16.0657 496.519 16.0657C496.93 16.0657 497.225 16.2081 497.421 16.5005C497.617 16.796 497.717 17.2179 497.717 17.7536ZM498.642 16.7592C498.551 16.452 498.41 16.1811 498.221 15.9556C498.032 15.7293 497.794 15.5477 497.511 15.4153C497.228 15.2837 496.894 15.2167 496.519 15.2167C496.144 15.2167 495.81 15.2837 495.527 15.4153C495.244 15.5477 495.005 15.7293 494.816 15.9556C494.628 16.1819 494.486 16.4528 494.395 16.7592C494.305 17.0647 494.259 17.3987 494.259 17.7536C494.259 18.1085 494.305 18.4433 494.395 18.7481C494.486 19.0544 494.627 19.3254 494.817 19.5516C495.005 19.7779 495.245 19.9588 495.527 20.0873C495.81 20.2159 496.144 20.2813 496.519 20.2813C496.894 20.2813 497.227 20.2159 497.511 20.0873C497.793 19.9588 498.032 19.7779 498.221 19.5516C498.41 19.3261 498.551 19.0552 498.642 18.7481C498.733 18.4425 498.778 18.1077 498.778 17.7536C498.778 17.3996 498.733 17.0647 498.642 16.7592ZM506.24 19.3075C506.209 19.2175 506.122 19.2513 506.122 19.2513C505.987 19.3029 505.844 19.3507 505.692 19.3745C505.537 19.3983 505.367 19.4107 505.184 19.4107C504.736 19.4107 504.381 19.2775 504.126 19.0143C503.87 18.751 503.727 18.3254 503.729 17.7497C503.73 17.2255 503.856 16.8314 504.084 16.5312C504.309 16.2326 504.652 16.0794 505.11 16.0794C505.492 16.0794 505.783 16.1233 506.088 16.2195C506.088 16.2195 506.161 16.251 506.196 16.1556C506.276 15.9308 506.336 15.77 506.423 15.5229C506.447 15.4528 506.387 15.4228 506.366 15.4143C506.246 15.3674 505.962 15.2912 505.748 15.2589C505.548 15.2281 505.314 15.2119 505.054 15.2119C504.665 15.2119 504.319 15.2781 504.023 15.4105C503.727 15.5421 503.476 15.7238 503.278 15.9501C503.079 16.1764 502.928 16.4473 502.827 16.7536C502.727 17.0592 502.677 17.3948 502.677 17.7497C502.677 18.5171 502.884 19.1374 503.292 19.5916C503.702 20.0472 504.317 20.2789 505.119 20.2789C505.593 20.2789 506.079 20.1827 506.429 20.0449C506.429 20.0449 506.496 20.0126 506.467 19.9349L506.24 19.3075ZM507.858 17.2397C507.902 16.9418 507.985 16.6939 508.112 16.5008C508.303 16.2075 508.596 16.0467 509.007 16.0467C509.418 16.0467 509.689 16.2083 509.884 16.5008C510.014 16.6939 510.07 16.9526 510.092 17.2397H507.858ZM510.973 16.5846C510.895 16.2883 510.7 15.9889 510.572 15.8518C510.371 15.6348 510.174 15.4832 509.978 15.3985C509.723 15.2892 509.416 15.2169 509.081 15.2169C508.69 15.2169 508.335 15.2823 508.047 15.4177C507.758 15.5532 507.516 15.738 507.326 15.9681C507.136 16.1975 506.992 16.4707 506.902 16.7809C506.81 17.0896 506.764 17.426 506.764 17.7807C506.764 18.1417 506.812 18.4781 506.906 18.7806C507.002 19.0854 507.154 19.354 507.36 19.5764C507.566 19.8004 507.831 19.976 508.148 20.0982C508.463 20.2199 508.845 20.283 509.285 20.2822C510.189 20.2791 510.665 20.0775 510.862 19.9689C510.896 19.9497 510.929 19.9159 510.888 19.8189L510.683 19.2454C510.652 19.16 510.565 19.1915 510.565 19.1915C510.341 19.2747 510.023 19.424 509.28 19.4225C508.794 19.4217 508.434 19.2786 508.208 19.0545C507.977 18.8252 507.864 18.488 507.844 18.0124L510.976 18.0154C510.976 18.0154 511.058 18.0139 511.066 17.9338C511.07 17.9001 511.174 17.2905 510.973 16.5846ZM482.776 17.2397C482.821 16.9418 482.902 16.6939 483.029 16.5008C483.221 16.2075 483.513 16.0467 483.924 16.0467C484.335 16.0467 484.607 16.2083 484.803 16.5008C484.931 16.6939 484.987 16.9526 485.01 17.2397H482.776ZM485.89 16.5846C485.812 16.2883 485.618 15.9889 485.49 15.8518C485.288 15.6348 485.091 15.4832 484.896 15.3985C484.64 15.2892 484.334 15.2169 483.998 15.2169C483.608 15.2169 483.253 15.2823 482.965 15.4177C482.676 15.5532 482.434 15.738 482.244 15.9681C482.053 16.1975 481.91 16.4707 481.819 16.7809C481.729 17.0896 481.682 17.426 481.682 17.7807C481.682 18.1417 481.729 18.4781 481.824 18.7806C481.92 19.0854 482.072 19.354 482.278 19.5764C482.484 19.8004 482.748 19.976 483.066 20.0982C483.38 20.2199 483.763 20.283 484.202 20.2822C485.107 20.2791 485.583 20.0775 485.78 19.9689C485.814 19.9497 485.847 19.9159 485.806 19.8189L485.602 19.2454C485.57 19.16 485.483 19.1915 485.483 19.1915C485.259 19.2747 484.941 19.424 484.197 19.4225C483.712 19.4217 483.352 19.2786 483.126 19.0545C482.895 18.8252 482.782 18.488 482.762 18.0124L485.893 18.0154C485.893 18.0154 485.976 18.0139 485.984 17.9338C485.987 17.9001 486.092 17.2905 485.89 16.5846ZM476.006 19.2904C475.884 19.1926 475.867 19.168 475.826 19.1049C475.764 19.0087 475.732 18.8717 475.732 18.6977C475.732 18.4221 475.823 18.2243 476.012 18.0912C476.01 18.092 476.281 17.8564 476.92 17.8649C477.369 17.871 477.77 17.9372 477.77 17.9372V19.3612H477.771C477.771 19.3612 477.373 19.4466 476.925 19.4735C476.287 19.512 476.004 19.2896 476.006 19.2904ZM477.253 17.0898C477.126 17.0806 476.961 17.0751 476.764 17.0751C476.495 17.0751 476.236 17.109 475.993 17.1744C475.748 17.2398 475.528 17.3423 475.338 17.4777C475.149 17.6126 474.994 17.7894 474.884 17.9941C474.773 18.2004 474.717 18.4437 474.717 18.7162C474.717 18.9932 474.765 19.2341 474.86 19.4312C474.956 19.629 475.094 19.7937 475.269 19.9208C475.443 20.0478 475.658 20.1409 475.907 20.1971C476.153 20.2533 476.431 20.2817 476.736 20.2817C477.057 20.2817 477.377 20.2556 477.687 20.2024C477.995 20.1501 478.372 20.0739 478.476 20.0501C478.55 20.0324 478.623 20.0136 478.696 19.9939C478.774 19.9747 478.767 19.8915 478.767 19.8915L478.766 17.0274C478.766 16.3993 478.598 15.9336 478.268 15.645C477.939 15.3572 477.455 15.2116 476.829 15.2116C476.594 15.2116 476.217 15.244 475.99 15.2894C475.99 15.2894 475.306 15.4218 475.024 15.6419C475.024 15.6419 474.963 15.6804 474.997 15.7667L475.218 16.3624C475.246 16.4394 475.321 16.4132 475.321 16.4132C475.321 16.4132 475.345 16.404 475.372 16.3878C475.975 16.0599 476.737 16.0699 476.737 16.0699C477.076 16.0699 477.336 16.1376 477.511 16.2723C477.682 16.4032 477.769 16.601 477.769 17.0181V17.1505C477.5 17.1121 477.253 17.0898 477.253 17.0898ZM502.513 15.476C502.537 15.4052 502.487 15.3713 502.466 15.3637C502.413 15.3429 502.147 15.2867 501.941 15.2736C501.548 15.2497 501.329 15.3159 501.134 15.4037C500.94 15.4914 500.724 15.633 500.604 15.7939V15.4129C500.604 15.3598 500.566 15.3175 500.514 15.3175H499.711C499.659 15.3175 499.621 15.3598 499.621 15.4129V20.0842C499.621 20.1366 499.664 20.1797 499.717 20.1797H500.539C500.565 20.1796 500.589 20.1694 500.606 20.1515C500.624 20.1336 500.634 20.1094 500.634 20.0842V17.7505C500.634 17.4373 500.669 17.1248 500.738 16.9285C500.806 16.7345 500.898 16.5791 501.012 16.4674C501.127 16.3566 501.257 16.2789 501.399 16.235C501.545 16.1903 501.705 16.1757 501.819 16.1757C501.983 16.1757 502.164 16.218 502.164 16.218C502.223 16.2249 502.257 16.188 502.277 16.1334C502.331 15.9902 502.484 15.5615 502.513 15.476Z" fill="white"/>
<path d="M494.789 13.3111C494.689 13.2803 494.598 13.2595 494.48 13.2372C494.36 13.2157 494.217 13.2048 494.054 13.2048C493.488 13.2048 493.041 13.3649 492.728 13.6805C492.416 13.9946 492.205 14.4725 492.098 15.1014L492.06 15.3131H491.349C491.349 15.3131 491.262 15.31 491.244 15.4039L491.128 16.0558C491.119 16.1174 491.146 16.1567 491.229 16.1567H491.921L491.219 20.076C491.165 20.3916 491.102 20.651 491.031 20.848C490.963 21.042 490.896 21.1874 490.813 21.2937C490.733 21.3953 490.657 21.4707 490.527 21.5145C490.419 21.5507 490.294 21.5677 490.158 21.5677C490.082 21.5677 489.982 21.5553 489.907 21.5399C489.833 21.5253 489.794 21.5091 489.738 21.4852C489.738 21.4852 489.657 21.4545 489.624 21.5353C489.599 21.6023 489.414 22.1095 489.392 22.1719C489.37 22.2342 489.401 22.2827 489.44 22.2973C489.533 22.3296 489.601 22.3512 489.727 22.3812C489.901 22.422 490.048 22.4243 490.186 22.4243C490.473 22.4243 490.737 22.3835 490.954 22.305C491.173 22.2257 491.364 22.0879 491.533 21.9017C491.716 21.7 491.83 21.4891 491.94 21.2005C492.048 20.9157 492.141 20.5616 492.215 20.1491L492.921 16.1567H493.952C493.952 16.1567 494.039 16.1597 494.057 16.0651L494.174 15.4139C494.182 15.3516 494.156 15.3131 494.072 15.3131H493.07C493.076 15.2908 493.121 14.9382 493.236 14.6066C493.285 14.4657 493.377 14.351 493.455 14.2725C493.532 14.1955 493.621 14.1409 493.718 14.1093C493.817 14.0769 493.93 14.0616 494.054 14.0616C494.148 14.0616 494.241 14.0723 494.311 14.0869C494.408 14.1078 494.446 14.1185 494.471 14.1263C494.574 14.157 494.588 14.127 494.608 14.0778L494.847 13.4205C494.872 13.3495 494.811 13.3195 494.789 13.3111ZM480.798 20.0845C480.798 20.1368 480.76 20.1792 480.708 20.1792H479.877C479.825 20.1792 479.788 20.1368 479.788 20.0845V13.4004C479.788 13.3481 479.825 13.3057 479.877 13.3057H480.708C480.76 13.3057 480.798 13.3481 480.798 13.4004V20.0845Z" fill="white"/>
<path d="M9.75776 5.58252H10.4623C12.9083 5.63569 15.3144 6.61941 17.0426 8.36084C16.4045 9.01222 15.7531 9.63701 15.1283 10.2884C14.1579 9.41102 12.9881 8.73306 11.7119 8.49378C9.82422 8.09498 7.79033 8.4539 6.20841 9.53066C4.48027 10.6606 3.31045 12.5749 3.05787 14.622C2.77871 16.6426 3.35033 18.7696 4.66638 20.3382C5.92925 21.867 7.8568 22.8241 9.85081 22.8905C11.7119 22.9969 13.6527 22.4253 15.0087 21.1225C16.0721 20.2053 16.564 18.8095 16.7235 17.4535C14.5168 17.4535 12.3101 17.4668 10.1034 17.4535V14.7151H19.3955C19.874 17.6529 19.1828 20.963 16.9495 23.0634C15.4606 24.5522 13.4002 25.4296 11.2998 25.6024C9.2659 25.8018 7.16554 25.4163 5.35764 24.4326C3.19081 23.2761 1.46266 21.3219 0.611884 19.0222C-0.185721 16.9085 -0.199014 14.5157 0.545417 12.3887C1.22338 10.4479 2.52614 8.73306 4.20111 7.53665C5.80961 6.35354 7.76374 5.70216 9.75776 5.58252Z" fill="#3780FF"/>
<path d="M63.0645 6.27368H65.9092V25.2567C64.9654 25.2567 64.0083 25.27 63.0645 25.2434C63.0777 18.929 63.0645 12.6013 63.0645 6.27368Z" fill="#38B137"/>
<path d="M25.723 12.854C27.4777 12.5217 29.3787 12.8939 30.8277 13.9441C32.1437 14.8746 33.061 16.3369 33.3401 17.9321C33.699 19.7799 33.2471 21.8005 32.0507 23.2628C30.7612 24.8978 28.6475 25.7752 26.5871 25.6423C24.6994 25.5359 22.8649 24.5921 21.7483 23.0501C20.4854 21.3485 20.1796 19.0089 20.8709 17.0148C21.5622 14.8746 23.5163 13.2395 25.723 12.854ZM26.1218 15.3798C25.404 15.5659 24.7393 15.978 24.2607 16.5629C22.9713 18.1049 23.051 20.6174 24.4734 22.0531C25.2843 22.8772 26.5073 23.2628 27.6372 23.0368C28.6874 22.8507 29.6047 22.1461 30.1098 21.2156C30.9872 19.6336 30.7346 17.4535 29.392 16.2172C28.5279 15.4196 27.265 15.0873 26.1218 15.3798Z" fill="#FA3913"/>
<path d="M39.814 12.854C41.8213 12.4685 44.0148 13.0268 45.5169 14.4359C47.9629 16.6293 48.2288 20.737 46.1417 23.2628C44.8788 24.858 42.8316 25.7353 40.811 25.6423C38.8835 25.5891 36.9825 24.632 35.8393 23.0501C34.5498 21.3086 34.2707 18.9158 35.0018 16.8819C35.733 14.8081 37.6472 13.2262 39.814 12.854ZM40.2128 15.3798C39.495 15.5659 38.8303 15.978 38.3518 16.5496C37.0756 18.065 37.1288 20.5376 38.498 21.9866C39.3089 22.8507 40.5718 23.276 41.7416 23.0368C42.7785 22.8374 43.709 22.1461 44.2142 21.2156C45.0782 19.6204 44.8257 17.4402 43.4697 16.204C42.6057 15.4063 41.3428 15.0873 40.2128 15.3798Z" fill="#FCBD06"/>
<path d="M51.7652 13.625C53.294 12.6678 55.3279 12.402 56.9762 13.2261C57.4947 13.4521 57.9201 13.8376 58.3322 14.2232C58.3455 13.8642 58.3322 13.492 58.3455 13.1198C59.2361 13.1331 60.1268 13.1198 61.0307 13.1331V24.8579C61.0174 26.6259 60.5655 28.5003 59.2893 29.7897C57.8935 31.2121 55.7533 31.6508 53.8257 31.3584C51.7652 31.0526 49.9706 29.5505 49.173 27.6495C49.9706 27.264 50.8081 26.9583 51.6323 26.5993C52.0976 27.6894 53.0414 28.6199 54.2245 28.8326C55.4076 29.0453 56.7768 28.7529 57.5479 27.7691C58.3721 26.7588 58.3721 25.3763 58.3322 24.14C57.7207 24.7382 57.0161 25.27 56.1653 25.4694C54.3176 25.9878 52.2837 25.3497 50.8613 24.1002C49.4256 22.8506 48.5748 20.923 48.6546 19.0088C48.6944 16.842 49.9174 14.7549 51.7652 13.625ZM54.517 15.3265C53.7061 15.4594 52.9483 15.9114 52.4299 16.5362C51.1803 18.0251 51.1803 20.4046 52.4432 21.8669C53.161 22.7309 54.3176 23.2095 55.4342 23.0899C56.4844 22.9835 57.4548 22.3188 57.9733 21.4016C58.8506 19.8463 58.7044 17.7326 57.5213 16.3767C56.7901 15.5392 55.6203 15.1271 54.517 15.3265Z" fill="#3780FF"/>
<path d="M69.3261 14.3029C70.9213 12.8141 73.3806 12.3089 75.4278 13.0932C77.3686 13.8244 78.6049 15.6721 79.2297 17.5731C76.345 18.7695 73.4736 19.9526 70.589 21.149C70.9878 21.9067 71.5993 22.598 72.4235 22.8772C73.58 23.2893 74.9625 23.143 75.9329 22.372C76.3184 22.0796 76.6242 21.6941 76.9166 21.3218C77.6478 21.8137 78.3789 22.2923 79.1101 22.7841C78.0732 24.3394 76.3317 25.4295 74.4574 25.6023C72.3836 25.8549 70.1769 25.0573 68.8342 23.4355C66.6275 20.8832 66.8402 16.6027 69.3261 14.3029ZM70.7485 16.7622C70.2965 17.4136 70.1104 18.2112 70.1237 18.9955C72.0513 18.1979 73.9788 17.4003 75.9063 16.5894C75.5873 15.8449 74.8163 15.393 74.032 15.2733C72.7691 15.0473 71.453 15.7253 70.7485 16.7622Z" fill="#FA3913"/>
<path fill-rule="evenodd" clip-rule="evenodd" d="M123.964 16.4238L130.434 20.5459L123.918 24.697L117.407 20.549L110.897 24.697L104.381 20.5459L110.851 16.4239L104.381 12.3019L110.897 8.15088L117.407 12.2987L123.918 8.15088L130.434 12.3019L123.964 16.4238ZM123.873 16.4239L117.407 12.305L110.942 16.4238L117.407 20.5427L123.873 16.4239ZM110.939 26.0726L117.454 21.9219L123.97 26.0726L117.454 30.2237L110.939 26.0726Z" fill="#0061FF"/>
<path fill-rule="evenodd" clip-rule="evenodd" d="M199.974 24.3015L203.872 19.0413L200.276 14.071H203.356L205.439 17.1722L207.539 14.071H210.601L206.952 19.0235L210.797 24.3015H207.77L205.403 20.9638L203.107 24.3015H199.974Z" fill="black"/>
<path fill-rule="evenodd" clip-rule="evenodd" d="M195.184 24.5684C191.873 24.5684 190.004 22.7705 190.004 19.3883V19.1035C190.004 15.6501 192.193 13.7988 195.184 13.7988C198.246 13.7988 200.382 15.6857 200.382 19.1035V19.3883C200.382 22.7705 198.281 24.5684 195.184 24.5684ZM195.184 22.2365C196.733 22.2365 197.676 21.2218 197.676 19.3527V19.1035C197.676 17.181 196.715 16.0596 195.202 16.0596C193.707 16.0596 192.71 17.1098 192.71 19.1035V19.3527C192.71 21.204 193.653 22.2365 195.184 22.2365Z" fill="black"/>
<path fill-rule="evenodd" clip-rule="evenodd" d="M184.506 24.5685C182.815 24.5685 181.711 23.7497 181.16 22.4324L180.946 24.3015H178.632V10.5947H181.249V15.8638C181.818 14.5287 182.957 13.7989 184.577 13.7989C187.016 13.8167 188.832 15.5078 188.832 18.9256V19.2282C188.832 22.646 187.123 24.5685 184.506 24.5685ZM183.652 22.2544C185.2 22.2544 186.144 21.2575 186.144 19.2282V18.979C186.144 17.0921 185.111 16.0596 183.687 16.0596C182.21 16.0596 181.195 17.2523 181.195 19.0146V19.2282C181.195 21.1507 182.174 22.2544 183.652 22.2544Z" fill="black"/>
<path fill-rule="evenodd" clip-rule="evenodd" d="M166.975 27.7798V14.071H169.218L169.485 15.9883C170.036 14.6711 171.176 13.7988 172.867 13.7988C175.483 13.7988 177.192 15.6857 177.192 19.1391V19.4239C177.192 22.8061 175.288 24.5684 172.867 24.5684C171.229 24.5684 170.143 23.8386 169.591 22.6459V27.7798H166.975ZM171.977 22.2721C173.508 22.2721 174.487 21.2574 174.487 19.3705V19.1391C174.487 17.092 173.436 16.0774 172.03 16.0774C170.535 16.0774 169.538 17.2166 169.538 19.1213V19.3171C169.538 21.1328 170.499 22.2721 171.977 22.2721Z" fill="black"/>
<path fill-rule="evenodd" clip-rule="evenodd" d="M160.401 24.5684C157.09 24.5684 155.203 22.7705 155.203 19.3883V19.1035C155.203 15.6501 157.41 13.7988 160.401 13.7988C163.463 13.7988 165.581 15.6857 165.581 19.1035V19.3883C165.581 22.7705 163.498 24.5684 160.401 24.5684ZM160.383 22.2365C161.914 22.2365 162.875 21.2218 162.875 19.3527V19.1035C162.875 17.181 161.914 16.0596 160.401 16.0596C158.906 16.0596 157.909 17.1098 157.909 19.1035V19.3527C157.909 21.204 158.852 22.2365 160.383 22.2365Z" fill="black"/>
<path fill-rule="evenodd" clip-rule="evenodd" d="M148.119 24.3016H150.789V19.6021C150.789 17.4304 151.323 16.665 153.531 16.665H154.634V13.9414H153.976C152.071 13.9414 151.021 14.7781 150.611 16.4157L150.273 14.0711H148.119V24.3016Z" fill="black"/>
<path fill-rule="evenodd" clip-rule="evenodd" d="M136.259 24.3015V11.6094H141.052C144.149 11.6094 146.677 13.4073 146.677 17.4837V18.356C146.677 22.4502 144.292 24.3015 141.123 24.3015H136.259ZM140.909 13.9057H138.919V21.9696H140.998C142.743 21.9696 143.936 20.8125 143.936 18.2669V17.6083C143.936 15.0628 142.707 13.9057 140.909 13.9057Z" fill="black"/>
<path fill-rule="evenodd" clip-rule="evenodd" d="M286.872 30.9357C282.12 34.4496 275.207 36.3218 269.245 36.3218C260.893 36.3218 253.404 33.2399 247.701 28.113C247.269 27.7098 247.643 27.1626 248.191 27.4794C254.326 31.0509 261.901 33.1823 269.735 33.1823C275.006 33.1823 280.824 32.0878 286.181 29.8124C286.988 29.4956 287.65 30.3596 286.872 30.9357Z" fill="#FF9900"/>
<path fill-rule="evenodd" clip-rule="evenodd" d="M288.86 28.6603C288.255 27.8826 284.828 28.2859 283.301 28.4875C282.84 28.5451 282.754 28.1418 283.186 27.8538C285.922 25.924 290.386 26.5001 290.905 27.1338C291.423 27.7674 290.761 32.2606 288.197 34.392C287.794 34.7088 287.42 34.536 287.593 34.104C288.169 32.6639 289.465 29.4668 288.86 28.6603Z" fill="#FF9900"/>
<path fill-rule="evenodd" clip-rule="evenodd" d="M283.387 14.3166V12.4444C283.387 12.1564 283.589 11.9836 283.848 11.9836H292.201C292.46 11.9836 292.69 12.1852 292.69 12.4444V14.0285C292.69 14.2878 292.46 14.6334 292.057 15.2095L287.736 21.3732C289.349 21.3444 291.049 21.5748 292.489 22.3813C292.806 22.5541 292.892 22.8421 292.921 23.1014V25.0887C292.921 25.3768 292.633 25.6936 292.316 25.5208C289.752 24.1671 286.325 24.023 283.502 25.5496C283.214 25.6936 282.897 25.4056 282.897 25.1175V23.2166C282.897 22.9285 282.897 22.4101 283.214 21.9493L288.226 14.7774H283.877C283.617 14.7774 283.387 14.5758 283.387 14.3166ZM252.943 25.924H250.408C250.178 25.8952 249.976 25.7224 249.947 25.492V12.4732C249.947 12.214 250.178 12.0124 250.437 12.0124H252.799C253.058 12.0124 253.231 12.214 253.26 12.4444V14.1438H253.317C253.922 12.502 255.103 11.7243 256.658 11.7243C258.242 11.7243 259.251 12.502 259.942 14.1438C260.547 12.502 261.958 11.7243 263.456 11.7243C264.521 11.7243 265.673 12.1564 266.394 13.1645C267.2 14.259 267.027 15.8431 267.027 17.2544V25.492C267.027 25.7512 266.797 25.9528 266.538 25.9528H264.032C263.773 25.924 263.571 25.7224 263.571 25.492V18.5793C263.571 18.0321 263.628 16.6496 263.513 16.1311C263.312 15.2671 262.764 15.0078 262.016 15.0078C261.411 15.0078 260.748 15.4111 260.489 16.0735C260.23 16.736 260.259 17.8305 260.259 18.5793V25.492C260.259 25.7512 260.028 25.9528 259.769 25.9528H257.234C256.975 25.924 256.773 25.7224 256.773 25.492V18.5793C256.773 17.1392 257.004 14.979 255.218 14.979C253.404 14.979 253.461 17.0528 253.461 18.5793V25.492C253.432 25.7224 253.231 25.924 252.943 25.924ZM299.891 11.7243C303.664 11.7243 305.709 14.9502 305.709 19.069C305.709 23.0438 303.462 26.212 299.891 26.212C296.204 26.212 294.188 22.9861 294.188 18.9538C294.159 14.8926 296.204 11.7243 299.891 11.7243ZM299.891 14.403C298.019 14.403 297.904 16.9664 297.904 18.5506C297.904 20.1347 297.875 23.5334 299.862 23.5334C301.821 23.5334 301.936 20.7972 301.936 19.1266C301.936 18.0321 301.878 16.7072 301.561 15.6703C301.273 14.7486 300.697 14.403 299.891 14.403ZM310.577 25.924H308.042C307.783 25.8952 307.581 25.6936 307.581 25.4632V12.4156C307.61 12.1852 307.812 11.9836 308.071 11.9836H310.433C310.663 11.9836 310.836 12.1564 310.894 12.358V14.3454H310.951C311.671 12.5596 312.65 11.7243 314.407 11.7243C315.531 11.7243 316.654 12.1276 317.374 13.2509C318.037 14.2878 318.037 16.0447 318.037 17.312V25.5208C318.008 25.7512 317.806 25.924 317.547 25.924H315.012C314.782 25.8952 314.58 25.7224 314.551 25.5208V18.4353C314.551 16.9952 314.724 14.9214 312.967 14.9214C312.362 14.9214 311.786 15.3247 311.498 15.9583C311.153 16.7648 311.095 17.5425 311.095 18.4353V25.4632C311.066 25.7224 310.836 25.924 310.577 25.924ZM276.734 19.7027C276.734 20.6819 276.762 21.5172 276.273 22.4101C275.87 23.1302 275.236 23.5622 274.516 23.5622C273.537 23.5622 272.961 22.8133 272.961 21.7188C272.961 19.5586 274.89 19.1554 276.734 19.1554V19.7027ZM279.297 25.8952C279.124 26.0392 278.894 26.068 278.692 25.9528C277.857 25.2615 277.684 24.9159 277.223 24.2535C275.841 25.6648 274.833 26.0968 273.047 26.0968C270.916 26.0968 269.245 24.7719 269.245 22.1509C269.245 20.0771 270.368 18.6946 271.952 18.0033C273.335 17.3984 275.265 17.2832 276.734 17.1104V16.7936C276.734 16.1887 276.791 15.4687 276.417 14.9502C276.1 14.4894 275.524 14.2878 275.006 14.2878C274.026 14.2878 273.162 14.7774 272.961 15.8143C272.903 16.0447 272.759 16.2751 272.528 16.2751L270.08 16.0159C269.879 15.9583 269.648 15.8143 269.706 15.4975C270.282 12.502 272.961 11.6091 275.38 11.6091C276.618 11.6091 278.231 11.926 279.211 12.8764C280.449 14.0285 280.334 15.5839 280.334 17.2544V21.2004C280.334 22.3813 280.824 22.8997 281.284 23.5622C281.457 23.7926 281.486 24.0806 281.284 24.2247C280.737 24.6567 279.816 25.4632 279.297 25.8952ZM243.467 19.7027C243.467 20.6819 243.495 21.5172 243.006 22.4101C242.603 23.1302 241.969 23.5622 241.249 23.5622C240.27 23.5622 239.694 22.8133 239.694 21.7188C239.694 19.5586 241.623 19.1554 243.467 19.1554V19.7027ZM246.001 25.8952C245.829 26.0392 245.598 26.068 245.396 25.9528C244.561 25.2615 244.388 24.9159 243.928 24.2535C242.545 25.6648 241.537 26.0968 239.751 26.0968C237.62 26.0968 235.949 24.7719 235.949 22.1509C235.949 20.0771 237.073 18.6946 238.657 18.0033C240.039 17.3984 241.969 17.2832 243.438 17.1104V16.7936C243.438 16.1887 243.495 15.4687 243.121 14.9502C242.804 14.4894 242.228 14.2878 241.71 14.2878C240.73 14.2878 239.866 14.7774 239.665 15.8143C239.607 16.0447 239.463 16.2751 239.233 16.2751L236.784 16.0159C236.583 15.9583 236.352 15.8143 236.41 15.4975C236.986 12.502 239.665 11.6091 242.084 11.6091C243.323 11.6091 244.936 11.926 245.915 12.8764C247.153 14.0285 247.038 15.5839 247.038 17.2544V21.2004C247.038 22.3813 247.528 22.8997 247.989 23.5622C248.162 23.7926 248.19 24.0806 247.989 24.2247C247.441 24.6567 246.52 25.4632 246.001 25.8952Z" fill="black"/>
<path d="M356.422 9.08398V16.0399H350.032V9.08398H347V25.6887H350.033V18.9585H356.421V25.6887H359.455V9.08398H356.422ZM369.162 20.3218C369.162 20.9873 368.898 21.6256 368.427 22.0962C367.956 22.5668 367.318 22.8312 366.653 22.8312C365.987 22.8312 365.349 22.5668 364.878 22.0962C364.407 21.6256 364.143 20.9873 364.143 20.3218V13.2091H361.266V20.3218C361.266 21.7489 361.833 23.1175 362.842 24.1266C363.851 25.1357 365.22 25.7026 366.647 25.7026C368.074 25.7026 369.443 25.1357 370.452 24.1266C371.461 23.1175 372.028 21.7489 372.028 20.3218V13.2091H369.162V20.3218V20.3218ZM390.478 13.942C390.478 12.4836 391.442 12.0215 392.499 12.0215C393.35 12.0215 394.475 12.6699 395.211 13.4561L397.095 11.2352C396.154 9.96301 394.247 9.08398 392.685 9.08398C389.564 9.08398 387.306 10.9118 387.306 13.942C387.306 19.5642 394.178 17.7799 394.178 20.9267C394.178 21.8968 393.236 22.7537 392.157 22.7537C390.456 22.7537 389.904 21.9222 389.123 21.0424L387.031 23.2166C388.369 24.8581 390.019 25.692 391.995 25.692C394.96 25.692 397.345 23.842 397.345 20.9496C397.345 14.7086 390.473 16.6481 390.473 13.942H390.478ZM432.988 23.036C431.288 23.036 430.805 22.3006 430.805 21.1745V16.1884H433.448V13.6622H430.805V10.3291L427.888 11.6382V21.7942C427.888 24.3919 429.68 25.701 432.138 25.701C432.523 25.7075 432.909 25.6764 433.288 25.6091L434 22.9892C433.679 23.0114 433.311 23.0335 432.988 23.0335V23.036ZM380.113 13.292C378.688 13.292 377.693 13.7057 376.731 14.6487V9.1833H373.85V19.3139C373.85 23.1058 376.591 25.7043 379.673 25.7043C383.09 25.7043 386.097 23.0598 386.097 19.4994C386.097 15.9832 383.33 13.2945 380.113 13.2945V13.292ZM380.094 22.8045C379.665 22.8045 379.24 22.72 378.843 22.5557C378.447 22.3914 378.086 22.1505 377.783 21.8469C377.479 21.5433 377.238 21.1829 377.074 20.7862C376.91 20.3896 376.825 19.9644 376.825 19.5351C376.825 19.1057 376.91 18.6806 377.074 18.2839C377.238 17.8872 377.479 17.5268 377.783 17.2232C378.086 16.9196 378.447 16.6788 378.843 16.5145C379.24 16.3502 379.665 16.2656 380.094 16.2656C380.962 16.2656 381.793 16.61 382.406 17.2232C383.019 17.8363 383.364 18.6679 383.364 19.5351C383.364 20.4022 383.019 21.2338 382.406 21.8469C381.793 22.4601 380.962 22.8045 380.094 22.8045V22.8045ZM411.4 19.3483C411.4 15.7813 408.4 13.1434 404.976 13.1434C401.895 13.1434 399.153 15.7411 399.153 19.5338V29.6702H402.034V24.1974C402.994 25.1388 403.991 25.5541 405.414 25.5541C408.631 25.5541 411.399 22.8653 411.399 19.3483H411.4ZM408.672 19.3122C408.672 20.1793 408.327 21.011 407.714 21.6241C407.101 22.2372 406.269 22.5817 405.402 22.5817C404.535 22.5817 403.703 22.2372 403.09 21.6241C402.477 21.011 402.133 20.1793 402.133 19.3122C402.133 18.4451 402.477 17.6135 403.09 17.0004C403.703 16.3872 404.535 16.0428 405.402 16.0428C406.269 16.0428 407.101 16.3872 407.714 17.0004C408.327 17.6135 408.672 18.4451 408.672 19.3122" fill="#33475B"/>
<path d="M420.709 13.004V10.1092C421.092 9.93041 421.416 9.64665 421.643 9.29095C421.871 8.93525 421.993 8.52224 421.995 8.09999V8.03351C421.995 6.80238 420.997 5.80434 419.765 5.80434H419.699C419.108 5.80434 418.541 6.0392 418.123 6.45725C417.705 6.8753 417.47 7.4423 417.47 8.03351V8.09999C417.472 8.52224 417.594 8.93525 417.821 9.29095C418.049 9.64665 418.373 9.93041 418.755 10.1092V13.004C417.656 13.1723 416.62 13.6282 415.754 14.3254L407.814 8.14185C407.871 7.93748 407.901 7.72737 407.904 7.51643C407.905 7.01963 407.758 6.53371 407.483 6.12012C407.208 5.70652 406.816 5.38385 406.358 5.19291C405.899 5.00197 405.394 4.95134 404.907 5.04742C404.419 5.14351 403.971 5.38199 403.619 5.7327C403.268 6.08342 403.028 6.53061 402.93 7.01771C402.832 7.50482 402.881 8.00995 403.071 8.46921C403.26 8.92847 403.581 9.32123 403.994 9.59781C404.407 9.87439 404.892 10.0224 405.389 10.023C405.824 10.021 406.25 9.90494 406.626 9.68651L414.444 15.7699C413.741 16.8309 413.375 18.0788 413.392 19.3511C413.41 20.6233 413.81 21.8608 414.54 22.9023L412.163 25.2808C411.971 25.2194 411.77 25.1867 411.569 25.184C411.161 25.1843 410.762 25.3055 410.423 25.5323C410.084 25.759 409.82 26.0812 409.664 26.458C409.508 26.8348 409.468 27.2494 409.547 27.6493C409.627 28.0493 409.823 28.4166 410.112 28.705C410.4 28.9934 410.767 29.1898 411.167 29.2694C411.567 29.349 411.982 29.3083 412.359 29.1524C412.736 28.9965 413.058 28.7324 413.284 28.3935C413.511 28.0545 413.632 27.656 413.633 27.2482C413.63 27.0464 413.597 26.8462 413.536 26.654L415.888 24.3009C416.655 24.8914 417.547 25.2985 418.496 25.4911C419.445 25.6836 420.425 25.6564 421.361 25.4116C422.298 25.1668 423.166 24.7108 423.899 24.0787C424.633 23.4465 425.211 22.655 425.591 21.7646C425.971 20.8743 426.142 19.9087 426.092 18.942C426.041 17.9753 425.769 17.033 425.298 16.1874C424.827 15.3418 424.168 14.6153 423.373 14.0635C422.578 13.5117 421.666 13.1493 420.709 13.004V13.004ZM419.734 22.5248C419.3 22.5367 418.867 22.4614 418.462 22.3033C418.057 22.1452 417.687 21.9075 417.375 21.6043C417.064 21.301 416.816 20.9383 416.647 20.5377C416.478 20.1371 416.39 19.7066 416.39 19.2717C416.39 18.8368 416.478 18.4063 416.647 18.0057C416.816 17.605 417.064 17.2424 417.375 16.9391C417.687 16.6359 418.057 16.3982 418.462 16.2401C418.867 16.082 419.3 16.0067 419.734 16.0186C420.577 16.0481 421.375 16.4035 421.961 17.0098C422.547 17.6162 422.874 18.4262 422.875 19.2693C422.875 20.1124 422.548 20.9227 421.963 21.5297C421.378 22.1366 420.58 22.4928 419.738 22.5231" fill="#FF7A59"/>
</svg>
