<svg xmlns="http://www.w3.org/2000/svg" width="54" height="54" viewBox="0 0 54 54" fill="none">
    <rect width="54" height="54" rx="15.4286" fill="#d4e0ff"></rect>
    <circle cx="38.7631" cy="15.8405" r="10.0218" fill="#2A5EE9"></circle>
    <path
        d="M26.9996 44.1003C36.4438 44.1003 44.0998 36.4443 44.0998 27.0001C44.0998 17.5559 36.4438 9.8999 26.9996 9.8999C17.5554 9.8999 9.89941 17.5559 9.89941 27.0001C9.89941 36.4443 17.5554 44.1003 26.9996 44.1003Z"
        fill="white" stroke="#0B2537" stroke-width="2" stroke-linecap="round" stroke-linejoin="round"></path>
    <path
        d="M19.5196 32.7004C19.8661 32.7004 20.2081 32.6214 20.5194 32.4694C20.8308 32.3174 21.1035 32.0965 21.3167 31.8233C21.5299 31.5502 21.678 31.2321 21.7499 30.8931C21.8217 30.5541 21.8153 30.2033 21.7313 29.8671L20.5912 25.3071C20.4679 24.8139 20.1832 24.3761 19.7825 24.0632C19.3818 23.7503 18.888 23.5804 18.3796 23.5803H10.243C9.61425 26.6688 9.85165 29.871 10.9289 32.8329C12.0062 35.7949 13.8814 38.4014 16.3474 40.3644L17.8795 32.7004H19.5196Z"
        fill="white" stroke="#0B2537" stroke-width="2" stroke-linecap="round" stroke-linejoin="round"></path>
    <path
        d="M40.6572 16.74H34.4798C33.9715 16.74 33.4777 16.91 33.077 17.2229C32.6762 17.5357 32.3916 17.9735 32.2682 18.4667L31.1282 23.0268C31.0441 23.3629 31.0378 23.7138 31.1096 24.0528C31.1814 24.3917 31.3296 24.7099 31.5428 24.983C31.756 25.2561 32.0286 25.4771 32.34 25.6291C32.6514 25.781 32.9933 25.8601 33.3398 25.8601H35.7399L36.9423 33.0802C37.0312 33.6125 37.306 34.0961 37.7179 34.4449C38.1299 34.7936 38.6522 34.9849 39.1919 34.9848H42.1179C43.6363 32.1208 44.3054 28.8829 44.0466 25.6517C43.7878 22.4205 42.612 19.3304 40.6572 16.7445V16.74Z"
        fill="white" stroke="#0B2537" stroke-width="2" stroke-linecap="round" stroke-linejoin="round"></path>
</svg>