<svg width="137" height="27" xmlns="http://www.w3.org/2000/svg">
    <g fill="none" fill-rule="evenodd">
        <path
            d="M22.527 20.035c-1.384 0-2.655-.236-3.814-.708A9.076 9.076 0 0115.7 17.35a9.005 9.005 0 01-1.988-3.002C13.238 13.193 13 11.92 13 10.528c0-1.417.266-2.74.797-3.97a9.82 9.82 0 012.206-3.207 10.46 10.46 0 013.299-2.144C20.562.685 21.92.425 23.38.425c1.087 0 2.106.155 3.058.465.95.311 1.78.74 2.483 1.287.705.546 1.26 1.199 1.668 1.957.408.759.612 1.56.612 2.405 0 .945-.296 1.733-.89 2.367a2.878 2.878 0 01-2.186.95c-.89 0-1.632-.31-2.225-.931-.593-.621-.89-1.404-.89-2.35 0-.272.031-.533.093-.782.062-.248.154-.609.278-1.081.124-.422.204-.74.241-.95a4.02 4.02 0 00.056-.69c0-.647-.21-1.175-.626-1.585-.418-.41-.944-.615-1.578-.615-.56 0-1.08.181-1.554.542-.476.361-.89.854-1.244 1.476-.353.624-.634 1.364-.841 2.225-.207.86-.31 1.775-.31 2.747 0 2.268.567 4.068 1.704 5.401 1.137 1.333 2.67 2 4.597 2 1.087 0 2.076-.205 2.966-.615.89-.41 1.754-1.05 2.595-1.92l.444.223c-2.1 4.723-5.202 7.084-9.304 7.084M45.986 6.038c-.113-1.223-.269-2.209-.469-2.958-.2-.698-.512-1.24-.937-1.628a2.207 2.207 0 00-1.539-.58c-.626 0-1.157.193-1.594.58-.438.387-.745.93-.92 1.628-.2.799-.35 1.803-.45 3.013-.1 1.211-.15 2.59-.15 4.137 0 1.547.05 2.932.15 4.155.1 1.223.25 2.22.45 2.994.175.7.482 1.242.92 1.629.437.386.968.58 1.594.58.6 0 1.119-.194 1.557-.58.437-.387.744-.93.919-1.629.425-1.622.638-4.005.638-7.15 0-1.57-.057-2.969-.17-4.191m6.491 8.07a9.843 9.843 0 01-2.164 3.112 9.857 9.857 0 01-3.238 2.07c-1.246.496-2.584.745-4.014.745-1.456 0-2.807-.249-4.052-.745a9.852 9.852 0 01-3.238-2.07 9.84 9.84 0 01-2.165-3.113c-.53-1.193-.795-2.485-.795-3.877s.265-2.685.795-3.878A9.845 9.845 0 0135.77 3.24a9.868 9.868 0 013.238-2.069C40.253.673 41.604.425 43.06.425c1.43 0 2.768.248 4.014.745a9.873 9.873 0 013.238 2.07 9.85 9.85 0 012.164 3.112c.53 1.193.796 2.486.796 3.878s-.265 2.684-.796 3.877M130.344 3.28c0 1.812 1.46 3.281 3.262 3.281a3.271 3.271 0 003.262-3.28c0-1.812-1.46-3.281-3.262-3.281a3.271 3.271 0 00-3.262 3.28"
            fill="#3C3F40" />
        <path
            d="M.344 5.28c0 1.812 1.46 3.281 3.262 3.281a3.271 3.271 0 003.262-3.28C6.868 3.469 5.408 2 3.606 2A3.271 3.271 0 00.344 5.28M.344 15.28c0 1.812 1.46 3.281 3.262 3.281a3.271 3.271 0 003.262-3.28c0-1.812-1.46-3.281-3.262-3.281a3.271 3.271 0 00-3.262 3.28"
            fill="#FF3465" />
        <path
            d="M67.366 16.717c-.648 1.467-1.556 2.2-2.725 2.2-.672 0-1.281-.273-1.829-.82V3.406c.548-.348.97-.584 1.27-.708.298-.125.596-.187.895-.187 1.045 0 1.865.715 2.462 2.144.598 1.43.897 3.4.897 5.91 0 2.634-.324 4.685-.97 6.15m7.4-11.016c-.335-1.081-.806-2.013-1.413-2.796a6.525 6.525 0 00-2.175-1.827C70.334.642 69.406.424 68.39.424c-.943 0-1.854.187-2.734.56-.88.373-1.828.994-2.844 1.864V.424l-9.148 2.74V3.72c.394.058.722.142.975.256.358.16.672.415.945.762.148.198.265.41.352.632.086.223.154.484.204.78.05.298.086.651.111 1.06.024.41.037.887.037 1.431V21.95c0 .422-.006.769-.018 1.041a9.656 9.656 0 01-.056.707 5.173 5.173 0 01-.111.595c-.074.47-.235.842-.482 1.115a2.17 2.17 0 01-.964.725 4.191 4.191 0 01-.667.169v.594h11.116v-.533a5.348 5.348 0 01-.81-.154 1.779 1.779 0 01-.89-.571 1.912 1.912 0 01-.297-.479 3.122 3.122 0 01-.185-.663c-.05-.27-.08-.596-.093-.977a43.794 43.794 0 01-.019-1.419v-3.406c.644.498 1.234.845 1.766 1.044.533.198 1.159.298 1.878.298a7.47 7.47 0 003.458-.82 8.734 8.734 0 002.788-2.274c.794-.97 1.42-2.107 1.878-3.412.458-1.305.688-2.715.688-4.231 0-1.318-.168-2.517-.502-3.598M90.36 16.717c-.648 1.467-1.556 2.2-2.725 2.2-.672 0-1.281-.273-1.829-.82V3.406c.548-.348.97-.584 1.27-.708.298-.125.596-.187.895-.187 1.045 0 1.865.715 2.462 2.144.598 1.43.896 3.4.896 5.91 0 2.634-.323 4.685-.97 6.15M97.76 5.7c-.334-1.081-.805-2.013-1.412-2.796a6.525 6.525 0 00-2.176-1.827C93.328.642 92.4.424 91.383.424c-.942 0-1.853.187-2.733.56-.88.373-1.828.994-2.844 1.864V.424l-9.148 2.74V3.72c.394.058.722.142.975.256.358.16.672.415.945.762.148.198.265.41.352.632.086.223.154.484.204.78.049.298.086.651.11 1.06.025.41.038.887.038 1.431V21.95c0 .422-.006.769-.018 1.041a9.656 9.656 0 01-.056.707 5.172 5.172 0 01-.111.595c-.074.47-.235.842-.482 1.115a2.17 2.17 0 01-.964.725 4.191 4.191 0 01-.667.169v.594H88.1v-.533a5.348 5.348 0 01-.811-.154 1.779 1.779 0 01-.89-.571 1.912 1.912 0 01-.296-.479 3.122 3.122 0 01-.185-.663c-.05-.27-.08-.596-.093-.977a43.794 43.794 0 01-.019-1.419v-3.406c.644.498 1.234.845 1.766 1.044.533.198 1.159.298 1.878.298a7.47 7.47 0 003.457-.82 8.734 8.734 0 002.79-2.274c.792-.97 1.418-2.107 1.876-3.412.46-1.305.688-2.715.688-4.231 0-1.318-.167-2.517-.502-3.598M130.352 18.863a1.57 1.57 0 01-.816-.575 1.555 1.555 0 01-.278-.482 4.408 4.408 0 01-.166-.649c-.05-.259-.08-.586-.093-.981a46.139 46.139 0 01-.019-1.446V.368l-9.254 2.772v.56c.443.057.805.147 1.08.271.358.16.674.415.946.76.148.199.265.41.352.632.086.223.154.483.204.78.049.297.086.65.111 1.059.024.408.037.885.037 1.43v6.09c0 1.163-.037 1.986-.111 2.469-.074.483-.21.848-.408 1.095a1.777 1.777 0 01-.852.576c-.25.08-.599.144-1.04.192v.496h11.22v-.512a5.193 5.193 0 01-.913-.175M109.66.872c.742 0 1.31.308 1.705.923s.643 1.601.742 2.958c.024.251.043.477.055.678.013.2.024.42.037.66.012.238.019.508.019.809v.71h-5.703c.028-2.12.29-3.761.791-4.91.531-1.219 1.316-1.828 2.354-1.828zm8.934 11.26c-.37.572-.68 1-.927 1.285-.247.287-.58.566-1 .84-1.089.77-2.41 1.155-3.967 1.155-4.102 0-6.166-2.323-6.19-6.97h11.648V8.44h.621c-.148-1.217-.476-2.323-.982-3.318a8.455 8.455 0 00-1.946-2.535 8.421 8.421 0 00-2.744-1.603c-1.038-.373-2.174-.56-3.41-.56-1.408 0-2.725.261-3.948.783a10.174 10.174 0 00-3.206 2.144 9.925 9.925 0 00-2.15 3.188 9.882 9.882 0 00-.779 3.915c0 1.367.247 2.634.742 3.802a9.216 9.216 0 002.057 3.039 9.476 9.476 0 003.114 2.013c1.198.485 2.49.727 3.874.727 1.457 0 2.792-.28 4.003-.839a8.79 8.79 0 003.114-2.404c.272-.348.512-.672.723-.97a9 9 0 00.574-.932c.173-.323.346-.69.52-1.1.172-.41.37-.913.593-1.51l-.334-.149z"
            fill="#3C3F40" />
    </g>
</svg>