<svg xmlns="http://www.w3.org/2000/svg" xmlns:xlink="http://www.w3.org/1999/xlink" width="711" height="383">
    <defs>
        <path id="prefix__a" d="M65.232 89.402H.035V.161h65.197v89.241z" />
        <path id="prefix__c" d="M1.596.034h123.529v131.352H1.596V.034z" />
    </defs>
    <g fill="none" fill-rule="evenodd">
        <path d="M.445.445v382.11h710.11V.445H.445z" stroke="#CBD6E2" stroke-width=".89" />
        <path fill="#33475B"
            d="M161.161 145.787v37.581H127.15v-37.58H111v89.701h16.15v-36.354h34.011v36.354h16.148v-89.702zM228.985 206.497c0 7.47-5.996 13.55-13.357 13.55-7.364 0-13.357-6.08-13.357-13.55v-38.421h-15.295v38.42c0 16.029 12.855 29.068 28.652 29.068 15.794 0 28.646-13.04 28.646-29.067v-38.421h-15.289v38.42zM342.468 172.032c0-7.877 5.138-10.374 10.765-10.374 4.528 0 10.523 3.497 14.433 7.748l10.029-11.995c-5.01-6.872-15.164-11.623-23.484-11.623-16.64 0-28.628 9.873-28.628 26.244 0 30.365 36.582 20.74 36.582 37.74 0 5.242-5.015 9.869-10.764 9.869-9.055 0-11.994-4.499-16.151-9.247l-11.135 11.743c7.098 8.873 15.906 13.375 26.427 13.375 15.782 0 28.506-9.998 28.506-25.62 0-33.739-36.58-23.24-36.58-37.86M568.778 221.16c-9.048 0-11.617-3.97-11.617-10.054v-26.939h14.066v-13.653H557.16V152.51l-15.534 7.077v54.87c0 14.03 9.538 21.108 22.624 21.108 1.959 0 4.652-.129 6.121-.496l3.794-14.153c-1.713.12-3.67.245-5.388.245M287.184 219.896c-9.61 0-17.401-7.906-17.401-17.657 0-9.752 7.791-17.658 17.401-17.658s17.402 7.906 17.402 17.658c0 9.751-7.792 17.657-17.402 17.657m.097-51.37c-7.587 0-12.88 2.235-17.996 7.327v-29.53h-15.341v54.728c0 20.483 14.593 34.513 30.993 34.513 18.23 0 34.203-14.28 34.203-33.518 0-18.995-14.73-33.52-31.86-33.52" />
        <g transform="translate(388.615 167.56)">
            <mask id="prefix__b" fill="#fff">
                <use xlink:href="#prefix__a" />
            </mask>
            <path
                d="M33.278 51.144c-9.612 0-17.404-7.906-17.404-17.658 0-9.752 7.792-17.658 17.404-17.658 9.608 0 17.4 7.906 17.4 17.658 0 9.752-7.792 17.658-17.4 17.658m31.954-17.466C65.232 14.44 49.258.161 31.029.161 14.629.161.035 14.191.035 34.674v54.729h15.342V59.87c5.115 5.094 10.408 7.33 17.995 7.33 17.13 0 31.86-14.527 31.86-33.523"
                fill="#33475B" mask="url(#prefix__b)" />
        </g>
        <g transform="translate(406.9 123.702)">
            <mask id="prefix__d" fill="#fff">
                <use xlink:href="#prefix__c" />
            </mask>
            <path
                d="M91.334 94.687c-9.569 0-17.325-7.87-17.325-17.578 0-9.71 7.756-17.58 17.325-17.58 9.568 0 17.325 7.87 17.325 17.58 0 9.708-7.757 17.578-17.325 17.578m5.186-51.422V27.626c4.023-1.928 6.841-6.057 6.841-10.85v-.36c0-6.615-5.333-12.026-11.851-12.026h-.354c-6.518 0-11.851 5.411-11.851 12.025v.361c0 4.793 2.818 8.924 6.84 10.852v15.637A33.365 33.365 0 0070.17 50.4L27.855 16.999c.279-1.088.475-2.208.477-3.385C28.338 6.124 22.364.043 14.98.033 7.599.024 1.604 6.089 1.596 13.58c-.008 7.491 5.966 13.572 13.35 13.58 2.406.004 4.633-.69 6.585-1.816L63.155 58.2a34.479 34.479 0 00-5.614 18.908c0 7.32 2.28 14.09 6.13 19.658l-12.658 12.845c-1-.305-2.038-.517-3.138-.517-6.066 0-10.985 4.99-10.985 11.144 0 6.157 4.919 11.147 10.985 11.147 6.067 0 10.984-4.99 10.984-11.147 0-1.113-.209-2.167-.51-3.183l12.521-12.705c5.684 4.401 12.762 7.046 20.464 7.046 18.663 0 33.79-15.352 33.79-34.288 0-17.143-12.41-31.306-28.604-33.844"
                fill="#FF7A59" mask="url(#prefix__d)" />
        </g>
    </g>
</svg>