<svg xmlns="http://www.w3.org/2000/svg" width="72" height="72" viewBox="0 0 72 72">
    <g fill="none" fill-rule="evenodd">
        <rect width="72" height="72" fill="#d4e0ff" fill-rule="nonzero" rx="18" />
        <path fill="#2A5EE9" fill-rule="nonzero"
            d="M21.4285714,16 L21.4285714,19.4782609 L18,19.4782609 L18,56 L27.4285714,56 L27.4285714,48.173913 L30.8571429,48.173913 L30.8571429,56 L40.2857143,56 L40.2857143,19.4782609 L36.8571429,19.4782609 L36.8571429,16 L21.4285714,16 Z M23.1428571,22.9565217 L24.8571429,22.9565217 L24.8571429,24.6956522 L23.1428571,24.6956522 L23.1428571,22.9565217 Z M26.5714286,22.9565217 L28.2857143,22.9565217 L28.2857143,24.6956522 L26.5714286,24.6956522 L26.5714286,22.9565217 Z M30,22.9565217 L31.7142857,22.9565217 L31.7142857,24.6956522 L30,24.6956522 L30,22.9565217 Z M33.4285714,22.9565217 L35.1428571,22.9565217 L35.1428571,24.6956522 L33.4285714,24.6956522 L33.4285714,22.9565217 Z M42,26.4347826 L42,29.9130435 L43.7142857,29.9130435 L43.7142857,31.6521739 L42,31.6521739 L42,33.3913043 L43.7142857,33.3913043 L43.7142857,35.1304348 L42,35.1304348 L42,36.8695652 L43.7142857,36.8695652 L43.7142857,38.6086957 L42,38.6086957 L42,40.3478261 L43.7142857,40.3478261 L43.7142857,42.0869565 L42,42.0869565 L42,43.826087 L43.7142857,43.826087 L43.7142857,45.5652174 L42,45.5652174 L42,47.3043478 L43.7142857,47.3043478 L43.7142857,49.0434783 L42,49.0434783 L42,50.7826087 L43.7142857,50.7826087 L43.7142857,52.5217391 L42,52.5217391 L42,56 L54,56 L54,26.4347826 L42,26.4347826 Z M23.1428571,27.3043478 L24.8571429,27.3043478 L24.8571429,30.7826087 L23.1428571,30.7826087 L23.1428571,27.3043478 Z M26.5714286,27.3043478 L28.2857143,27.3043478 L28.2857143,30.7826087 L26.5714286,30.7826087 L26.5714286,27.3043478 Z M30,27.3043478 L31.7142857,27.3043478 L31.7142857,30.7826087 L30,30.7826087 L30,27.3043478 Z M33.4285714,27.3043478 L35.1428571,27.3043478 L35.1428571,30.7826087 L33.4285714,30.7826087 L33.4285714,27.3043478 Z M45.4285714,29.9130435 L47.1428571,29.9130435 L47.1428571,31.6521739 L45.4285714,31.6521739 L45.4285714,29.9130435 Z M48.8571429,29.9130435 L50.5714286,29.9130435 L50.5714286,31.6521739 L48.8571429,31.6521739 L48.8571429,29.9130435 Z M23.1428571,32.5217391 L24.8571429,32.5217391 L24.8571429,36 L23.1428571,36 L23.1428571,32.5217391 Z M26.5714286,32.5217391 L28.2857143,32.5217391 L28.2857143,36 L26.5714286,36 L26.5714286,32.5217391 Z M30,32.5217391 L31.7142857,32.5217391 L31.7142857,36 L30,36 L30,32.5217391 Z M33.4285714,32.5217391 L35.1428571,32.5217391 L35.1428571,36 L33.4285714,36 L33.4285714,32.5217391 Z M45.4285714,33.3913043 L47.1428571,33.3913043 L47.1428571,35.1304348 L45.4285714,35.1304348 L45.4285714,33.3913043 Z M48.8571429,33.3913043 L50.5714286,33.3913043 L50.5714286,35.1304348 L48.8571429,35.1304348 L48.8571429,33.3913043 Z M45.4285714,36.8695652 L47.1428571,36.8695652 L47.1428571,38.6086957 L45.4285714,38.6086957 L45.4285714,36.8695652 Z M48.8571429,36.8695652 L50.5714286,36.8695652 L50.5714286,38.6086957 L48.8571429,38.6086957 L48.8571429,36.8695652 Z M23.1428571,37.7391304 L24.8571429,37.7391304 L24.8571429,41.2173913 L23.1428571,41.2173913 L23.1428571,37.7391304 Z M26.5714286,37.7391304 L28.2857143,37.7391304 L28.2857143,41.2173913 L26.5714286,41.2173913 L26.5714286,37.7391304 Z M30,37.7391304 L31.7142857,37.7391304 L31.7142857,41.2173913 L30,41.2173913 L30,37.7391304 Z M33.4285714,37.7391304 L35.1428571,37.7391304 L35.1428571,41.2173913 L33.4285714,41.2173913 L33.4285714,37.7391304 Z M45.4285714,40.3478261 L47.1428571,40.3478261 L47.1428571,42.0869565 L45.4285714,42.0869565 L45.4285714,40.3478261 Z M48.8571429,40.3478261 L50.5714286,40.3478261 L50.5714286,42.0869565 L48.8571429,42.0869565 L48.8571429,40.3478261 Z M23.1428571,42.9565217 L24.8571429,42.9565217 L24.8571429,46.4347826 L23.1428571,46.4347826 L23.1428571,42.9565217 Z M26.5714286,42.9565217 L28.2857143,42.9565217 L28.2857143,46.4347826 L26.5714286,46.4347826 L26.5714286,42.9565217 Z M30,42.9565217 L31.7142857,42.9565217 L31.7142857,46.4347826 L30,46.4347826 L30,42.9565217 Z M33.4285714,42.9565217 L35.1428571,42.9565217 L35.1428571,46.4347826 L33.4285714,46.4347826 L33.4285714,42.9565217 Z M45.4285714,43.826087 L47.1428571,43.826087 L47.1428571,45.5652174 L45.4285714,45.5652174 L45.4285714,43.826087 Z M48.8571429,43.826087 L50.5714286,43.826087 L50.5714286,45.5652174 L48.8571429,45.5652174 L48.8571429,43.826087 Z M45.4285714,47.3043478 L47.1428571,47.3043478 L47.1428571,49.0434783 L45.4285714,49.0434783 L45.4285714,47.3043478 Z M48.8571429,47.3043478 L50.5714286,47.3043478 L50.5714286,49.0434783 L48.8571429,49.0434783 L48.8571429,47.3043478 Z M23.1428571,48.173913 L24.8571429,48.173913 L24.8571429,52.5217391 L23.1428571,52.5217391 L23.1428571,48.173913 Z M33.4285714,48.173913 L35.1428571,48.173913 L35.1428571,52.5217391 L33.4285714,52.5217391 L33.4285714,48.173913 Z M45.4285714,50.7826087 L47.1428571,50.7826087 L47.1428571,52.5217391 L45.4285714,52.5217391 L45.4285714,50.7826087 Z M48.8571429,50.7826087 L50.5714286,50.7826087 L50.5714286,52.5217391 L48.8571429,52.5217391 L48.8571429,50.7826087 Z" />
    </g>
</svg>