<svg xmlns="http://www.w3.org/2000/svg" width="72" height="72" viewBox="0 0 72 72">
    <g fill="none" fill-rule="evenodd">
        <rect width="72" height="72" fill="#d4e0ff" fill-rule="nonzero" rx="18" />
        <path fill="#2A5EE9" fill-rule="nonzero"
            d="M18.7954545,16 C18.2810909,16 17.8636364,16.4167442 17.8636364,16.9302326 L17.8636364,20.5367006 C17.8341115,20.649388 17.4121419,22.2587674 16.9609375,24.0214391 C16.727574,24.9330949 16.4946556,25.8536019 16.3184926,26.5723107 C16.2304106,26.931666 16.1569922,27.239574 16.1037375,27.4752912 C16.0771099,27.5931488 16.0548921,27.6933563 16.0382191,27.778706 C16.0215455,27.8640567 16,27.8494502 16,28.0930233 C16,29.023426 16.359496,29.8674167 16.9318182,30.5221656 L16.9318182,54.1395349 C16.9318182,54.6539535 17.3492727,55.0697674 17.8636364,55.0697674 L23.2980289,55.0697674 C23.3986573,55.0863712 23.5013335,55.0863712 23.6019619,55.0697674 L36.3434834,55.0697674 C36.4441118,55.0863712 36.546788,55.0863712 36.6474164,55.0697674 L49.388938,55.0697674 C49.4895664,55.0863712 49.5922426,55.0863712 49.692871,55.0697674 L55.1363636,55.0697674 C55.6516591,55.0697674 56.0681818,54.6539535 56.0681818,54.1395349 L56.0681818,30.5221656 C56.6405036,29.8674167 57,29.023426 57,28.0930233 C57,27.8494502 56.9784601,27.8640567 56.9617805,27.778706 C56.9451103,27.6933572 56.9228846,27.5931479 56.8962625,27.4752912 C56.8430101,27.239574 56.7695893,26.931666 56.6815073,26.5723107 C56.5053443,25.8536019 56.2724261,24.9330949 56.0390625,24.0214391 C55.5878575,22.2587674 55.1658883,20.649388 55.1363636,20.5367006 L55.1363636,16.9302326 C55.1363636,16.4167442 54.7198409,16 54.2045455,16 L18.7954545,16 Z M19.5161577,21.5813953 L53.4838419,21.5813953 C53.6150735,22.0839163 53.8585893,23.0158381 54.2336648,24.4811051 C54.4662102,25.3895637 54.6992011,26.3087237 54.8724699,27.0156251 C54.9591011,27.3690753 55.0312816,27.6705088 55.0799448,27.8859014 C55.1021314,27.9840912 55.1163146,28.0582549 55.1272635,28.1130084 C55.1147333,29.140427 54.3052517,29.9534884 53.2727273,29.9534884 C52.2321976,29.9534884 51.4090909,29.1317823 51.4090909,28.0930233 C51.4115625,27.5901877 51.0133519,27.1763924 50.5099648,27.1587082 C50.0065776,27.1410239 49.5802153,27.5258516 49.5472744,28.0276167 C49.5458997,28.0493909 49.5452927,28.0712065 49.5454545,28.0930233 C49.5454545,29.1317823 48.7223479,29.9534884 47.6818182,29.9534884 C46.6412885,29.9534884 45.8181818,29.1317823 45.8181818,28.0930233 C45.8185122,28.0620955 45.8172975,28.0311706 45.8145421,28.0003637 C45.7982467,27.8138093 45.7259361,27.6365063 45.6070672,27.4916428 C45.6070678,27.4910369 45.6070678,27.490431 45.6070672,27.4898251 C45.5277531,27.3938947 45.4299743,27.3148163 45.3195137,27.257267 C45.2922899,27.2425639 45.2643491,27.2292239 45.2357955,27.2172967 C45.0911105,27.1588405 44.9340354,27.1375997 44.7789865,27.1555237 C44.7477906,27.1594078 44.7168115,27.1648654 44.6861681,27.1718753 C44.6262144,27.1848624 44.5676918,27.2037279 44.5114522,27.2281972 C44.5108447,27.2288023 44.5102381,27.2294082 44.5096323,27.2300149 C44.4641286,27.2501042 44.4203096,27.2737991 44.3785954,27.3008726 C44.3681514,27.30733 44.3578363,27.313993 44.3476562,27.3208577 C44.3371617,27.329114 44.3268463,27.3375947 44.3167171,27.346294 C44.2040425,27.432359 44.1125392,27.54297 44.0491828,27.6696949 C44.0491822,27.6703005 44.0491822,27.670906 44.0491828,27.6715116 C44.0356895,27.6987599 44.0235421,27.726652 44.0127841,27.7550874 C44.0127835,27.755693 44.0127835,27.7562986 44.0127841,27.7569042 C44.002259,27.78551 43.9931482,27.8146149 43.9854846,27.8441135 C43.985484,27.8447191 43.985484,27.8453247 43.9854846,27.8459302 C43.977357,27.8752609 43.9706759,27.9049719 43.9654654,27.9349563 C43.9654648,27.9355619 43.9654648,27.9361674 43.9654654,27.936773 C43.9609446,27.9668873 43.9579076,27.9972051 43.9563653,28.0276167 C43.9563647,28.0282223 43.9563647,28.0288279 43.9563653,28.0294335 C43.9550327,28.0506032 43.9544257,28.0718122 43.9545455,28.0930233 C43.9545455,29.1317823 43.1314388,29.9534884 42.0909091,29.9534884 C41.0503794,29.9534884 40.2272727,29.1317823 40.2272727,28.0930233 C40.2276032,28.0620955 40.2263884,28.0311706 40.223633,28.0003637 C40.2073376,27.8138093 40.135027,27.6365063 40.0161581,27.4916428 C40.0161587,27.4910369 40.0161587,27.490431 40.0161581,27.4898251 C39.936844,27.3938947 39.8390652,27.3148163 39.7286046,27.257267 C39.7013808,27.2425639 39.6734401,27.2292239 39.6448864,27.2172967 C39.5002014,27.1588405 39.3431263,27.1375997 39.1880774,27.1555237 C39.1568815,27.1594078 39.1259024,27.1648654 39.095259,27.1718753 C39.0353053,27.1848624 38.9767827,27.2037279 38.9205431,27.2281972 C38.9199356,27.2288023 38.919329,27.2294082 38.9187232,27.2300149 C38.8732195,27.2501042 38.8294005,27.2737991 38.7876863,27.3008726 C38.7772423,27.30733 38.7669273,27.313993 38.7567472,27.3208577 C38.7462526,27.329114 38.7359372,27.3375947 38.725808,27.346294 C38.6131334,27.432359 38.5216301,27.54297 38.4582737,27.6696949 C38.4582731,27.6703005 38.4582731,27.670906 38.4582737,27.6715116 C38.4447804,27.6987599 38.432633,27.726652 38.421875,27.7550874 C38.4218744,27.755693 38.4218744,27.7562986 38.421875,27.7569042 C38.4113499,27.78551 38.4022391,27.8146149 38.3945755,27.8441135 C38.3945749,27.8447191 38.3945749,27.8453247 38.3945755,27.8459302 C38.3864479,27.8752609 38.3797668,27.9049719 38.3745563,27.9349563 C38.3745557,27.9355619 38.3745557,27.9361674 38.3745563,27.936773 C38.3700355,27.9668873 38.3669985,27.9972051 38.3654562,28.0276167 C38.3654556,28.0282223 38.3654556,28.0288279 38.3654562,28.0294335 C38.3641236,28.0506032 38.3635166,28.0718122 38.3636364,28.0930233 C38.3636364,29.1317823 37.5405297,29.9534884 36.5,29.9534884 C35.4594703,29.9534884 34.6363636,29.1317823 34.6363636,28.0930233 C34.6395327,27.8733812 34.5647475,27.6597044 34.425249,27.4898251 C34.4057371,27.4664199 34.3850858,27.4439852 34.3633698,27.4226019 C34.2974671,27.3566093 34.2220068,27.3008756 34.1395154,27.257267 C34.1389088,27.2572664 34.1383022,27.2572664 34.1376955,27.257267 C34.1104717,27.2425639 34.082531,27.2292239 34.0539773,27.2172967 C33.9672877,27.1826571 33.8758754,27.1612208 33.7828033,27.153706 C33.7519439,27.1509554 33.7209662,27.1497427 33.6899858,27.1500726 C33.6275316,27.1511111 33.5653402,27.1584154 33.5043499,27.1718753 C33.4742516,27.1782735 33.4444892,27.186156 33.4151721,27.195494 C33.3861397,27.2049887 33.3575925,27.215903 33.329634,27.2281972 C33.3290265,27.2288023 33.3284199,27.2294082 33.3278142,27.2300149 C33.2823104,27.2501042 33.2384914,27.2737991 33.1967772,27.3008726 C33.1863332,27.30733 33.1760182,27.313993 33.1658381,27.3208577 C33.1553435,27.329114 33.1450281,27.3375947 33.1348989,27.346294 C33.0960381,27.3754975 33.0595273,27.4076936 33.025701,27.442587 C32.9832759,27.4877706 32.9454762,27.5370704 32.9128643,27.5897526 C32.8963872,27.6156351 32.8812021,27.6423151 32.8673646,27.6696949 C32.867364,27.6703005 32.867364,27.670906 32.8673646,27.6715116 C32.8538713,27.6987599 32.8417239,27.726652 32.8309659,27.7550874 C32.8309653,27.755693 32.8309653,27.7562986 32.8309659,27.7569042 C32.8204408,27.78551 32.81133,27.8146149 32.8036664,27.8441135 C32.8036658,27.8447191 32.8036658,27.8453247 32.8036664,27.8459302 C32.7955388,27.8752609 32.7888577,27.9049719 32.7836472,27.9349563 C32.7836467,27.9355619 32.7836467,27.9361674 32.7836472,27.936773 C32.7791265,27.9668873 32.7760894,27.9972051 32.7745471,28.0276167 C32.7745465,28.0282223 32.7745465,28.0288279 32.7745471,28.0294335 C32.7732145,28.0506032 32.7726075,28.0718122 32.7727273,28.0930233 C32.7727273,29.1317823 31.9496206,29.9534884 30.9090909,29.9534884 C29.8685612,29.9534884 29.0454545,29.1317823 29.0454545,28.0930233 C29.045785,28.0620955 29.0445702,28.0311706 29.0418149,28.0003637 C29.0255194,27.8138093 28.9532088,27.6365063 28.83434,27.4916428 C28.8343405,27.4910369 28.8343405,27.490431 28.83434,27.4898251 C28.7550259,27.3938947 28.657247,27.3148163 28.5467865,27.257267 C28.5195626,27.2425639 28.4916219,27.2292239 28.4630682,27.2172967 C28.3763786,27.1826571 28.2849663,27.1612208 28.1918942,27.153706 C28.1301095,27.1481423 28.0679227,27.1487512 28.0062592,27.1555237 C27.9750633,27.1594078 27.9440842,27.1648654 27.9134408,27.1718753 C27.8534871,27.1848624 27.7949645,27.2037279 27.7387249,27.2281972 C27.7381175,27.2288023 27.7375108,27.2294082 27.7369051,27.2300149 C27.6914014,27.2501042 27.6475823,27.2737991 27.6058681,27.3008726 C27.5846255,27.3151577 27.5639819,27.330311 27.5439898,27.346294 C27.505129,27.3754975 27.4686182,27.4076936 27.4347919,27.442587 C27.3709681,27.5099871 27.3175991,27.5865362 27.2764555,27.6696949 C27.2764549,27.6703005 27.2764549,27.670906 27.2764555,27.6715116 C27.2629623,27.6987599 27.2508148,27.726652 27.2400568,27.7550874 C27.2400562,27.755693 27.2400562,27.7562986 27.2400568,27.7569042 C27.2295317,27.78551 27.2204209,27.8146149 27.2127573,27.8441135 C27.2127567,27.8447191 27.2127567,27.8453247 27.2127573,27.8459302 C27.2046297,27.8752609 27.1979486,27.9049719 27.1927382,27.9349563 C27.1927376,27.9355619 27.1927376,27.9361674 27.1927382,27.936773 C27.1882174,27.9668873 27.1851803,27.9972051 27.183638,28.0276167 C27.1836374,28.0282223 27.1836374,28.0288279 27.183638,28.0294335 C27.1823054,28.0506032 27.1816985,28.0718122 27.1818182,28.0930233 C27.1818182,29.1317823 26.3587115,29.9534884 25.3181818,29.9534884 C24.2776521,29.9534884 23.4545455,29.1317823 23.4545455,28.0930233 C23.4548759,28.0620955 23.4536611,28.0311706 23.4509058,28.0003637 C23.4346103,27.8138093 23.3622997,27.6365063 23.2434309,27.4916428 C23.2434315,27.4910369 23.2434315,27.490431 23.2434309,27.4898251 C23.1641168,27.3938947 23.066338,27.3148163 22.9558774,27.257267 C22.9286535,27.2425639 22.9007128,27.2292239 22.8721591,27.2172967 C22.727474,27.1588404 22.5703988,27.1375996 22.4153498,27.1555237 C22.384154,27.1594079 22.3531751,27.1648654 22.3225319,27.1718753 C22.2625782,27.1848624 22.2040556,27.2037279 22.147816,27.2281972 C22.1472085,27.2288023 22.1466019,27.2294082 22.1459961,27.2300149 C22.1004924,27.2501042 22.0566733,27.2737991 22.0149591,27.3008726 C22.0045151,27.30733 21.9942,27.313993 21.9840199,27.3208577 C21.9735253,27.329114 21.9632099,27.3375947 21.9530806,27.346294 C21.8404063,27.432359 21.7489031,27.5429701 21.6855469,27.6696949 C21.6855463,27.6703005 21.6855463,27.670906 21.6855469,27.6715116 C21.6720535,27.6987599 21.6599058,27.726652 21.6491477,27.7550874 C21.6491471,27.755693 21.6491471,27.7562986 21.6491477,27.7569042 C21.6386226,27.78551 21.6295119,27.8146149 21.6218483,27.8441135 C21.6218478,27.8447191 21.6218478,27.8453247 21.6218483,27.8459302 C21.6137206,27.8752608 21.6070395,27.9049719 21.6018289,27.9349563 C21.6018283,27.9355619 21.6018283,27.9361674 21.6018289,27.936773 C21.5973082,27.9668873 21.5942712,27.9972051 21.592729,28.0276167 C21.5927284,28.0282223 21.5927284,28.0288279 21.592729,28.0294335 C21.5913964,28.0506032 21.5907894,28.0718122 21.5909091,28.0930233 C21.5909091,29.1317823 20.7678025,29.9534884 19.7272727,29.9534884 C18.6947478,29.9534884 17.8852676,29.140427 17.8727361,28.1130084 C17.8836897,28.0582549 17.8978713,27.9840912 17.9200551,27.8859014 C17.9687183,27.6705088 18.0408959,27.3690753 18.1275302,27.0156251 C18.3007992,26.3087237 18.5337897,25.3895637 18.7663352,24.4811051 C19.1414104,23.0158372 19.384927,22.0839163 19.5161577,21.5813953 Z M24.3863636,36.4651163 L35.5681818,36.4651163 L35.5681818,53.2093023 L24.3863636,53.2093023 L24.3863636,36.4651163 Z M37.4318182,36.4651163 L48.6136364,36.4651163 L48.6136364,53.2093023 L37.4318182,53.2093023 L37.4318182,36.4651163 Z M32.7727273,42.9767442 C32.2580983,42.9767442 31.8409091,43.3932235 31.8409091,43.9069767 C31.8409091,44.42073 32.2580983,44.8372093 32.7727273,44.8372093 C33.2873562,44.8372093 33.7045455,44.42073 33.7045455,43.9069767 C33.7045455,43.3932235 33.2873562,42.9767442 32.7727273,42.9767442 Z M40.2272727,42.9767442 C39.7126438,42.9767442 39.2954545,43.3932235 39.2954545,43.9069767 C39.2954545,44.42073 39.7126438,44.8372093 40.2272727,44.8372093 C40.7419017,44.8372093 41.1590909,44.42073 41.1590909,43.9069767 C41.1590909,43.3932235 40.7419017,42.9767442 40.2272727,42.9767442 Z" />
    </g>
</svg>